G04 #@! TF.GenerationSoftware,KiCad,Pcbnew,(5.1.5)-3*
G04 #@! TF.CreationDate,2021-01-08T22:30:44-06:00*
G04 #@! TF.ProjectId,Bottom Plate,426f7474-6f6d-4205-906c-6174652e6b69,rev?*
G04 #@! TF.SameCoordinates,Original*
G04 #@! TF.FileFunction,Soldermask,Bot*
G04 #@! TF.FilePolarity,Negative*
%FSLAX46Y46*%
G04 Gerber Fmt 4.6, Leading zero omitted, Abs format (unit mm)*
G04 Created by KiCad (PCBNEW (5.1.5)-3) date 2021-01-08 22:30:44*
%MOMM*%
%LPD*%
G04 APERTURE LIST*
%ADD10C,0.100000*%
G04 APERTURE END LIST*
D10*
G36*
X167514549Y-171921116D02*
G01*
X167625734Y-171943232D01*
X167835203Y-172029997D01*
X168023720Y-172155960D01*
X168184040Y-172316280D01*
X168310003Y-172504797D01*
X168396768Y-172714266D01*
X168441000Y-172936636D01*
X168441000Y-173163364D01*
X168396768Y-173385734D01*
X168310003Y-173595203D01*
X168184040Y-173783720D01*
X168023720Y-173944040D01*
X167835203Y-174070003D01*
X167625734Y-174156768D01*
X167514549Y-174178884D01*
X167403365Y-174201000D01*
X167176635Y-174201000D01*
X167065451Y-174178884D01*
X166954266Y-174156768D01*
X166744797Y-174070003D01*
X166556280Y-173944040D01*
X166395960Y-173783720D01*
X166269997Y-173595203D01*
X166183232Y-173385734D01*
X166139000Y-173163364D01*
X166139000Y-172936636D01*
X166183232Y-172714266D01*
X166269997Y-172504797D01*
X166395960Y-172316280D01*
X166556280Y-172155960D01*
X166744797Y-172029997D01*
X166954266Y-171943232D01*
X167065451Y-171921116D01*
X167176635Y-171899000D01*
X167403365Y-171899000D01*
X167514549Y-171921116D01*
G37*
G36*
X50234549Y-147801116D02*
G01*
X50345734Y-147823232D01*
X50555203Y-147909997D01*
X50743720Y-148035960D01*
X50904040Y-148196280D01*
X51030003Y-148384797D01*
X51116768Y-148594266D01*
X51161000Y-148816636D01*
X51161000Y-149043364D01*
X51116768Y-149265734D01*
X51030003Y-149475203D01*
X50904040Y-149663720D01*
X50743720Y-149824040D01*
X50555203Y-149950003D01*
X50345734Y-150036768D01*
X50234549Y-150058884D01*
X50123365Y-150081000D01*
X49896635Y-150081000D01*
X49785451Y-150058884D01*
X49674266Y-150036768D01*
X49464797Y-149950003D01*
X49276280Y-149824040D01*
X49115960Y-149663720D01*
X48989997Y-149475203D01*
X48903232Y-149265734D01*
X48859000Y-149043364D01*
X48859000Y-148816636D01*
X48903232Y-148594266D01*
X48989997Y-148384797D01*
X49115960Y-148196280D01*
X49276280Y-148035960D01*
X49464797Y-147909997D01*
X49674266Y-147823232D01*
X49785451Y-147801116D01*
X49896635Y-147779000D01*
X50123365Y-147779000D01*
X50234549Y-147801116D01*
G37*
G36*
X107374549Y-139041116D02*
G01*
X107485734Y-139063232D01*
X107695203Y-139149997D01*
X107883720Y-139275960D01*
X108044040Y-139436280D01*
X108170003Y-139624797D01*
X108256768Y-139834266D01*
X108301000Y-140056636D01*
X108301000Y-140283364D01*
X108256768Y-140505734D01*
X108170003Y-140715203D01*
X108044040Y-140903720D01*
X107883720Y-141064040D01*
X107695203Y-141190003D01*
X107485734Y-141276768D01*
X107374549Y-141298884D01*
X107263365Y-141321000D01*
X107036635Y-141321000D01*
X106925451Y-141298884D01*
X106814266Y-141276768D01*
X106604797Y-141190003D01*
X106416280Y-141064040D01*
X106255960Y-140903720D01*
X106129997Y-140715203D01*
X106043232Y-140505734D01*
X105999000Y-140283364D01*
X105999000Y-140056636D01*
X106043232Y-139834266D01*
X106129997Y-139624797D01*
X106255960Y-139436280D01*
X106416280Y-139275960D01*
X106604797Y-139149997D01*
X106814266Y-139063232D01*
X106925451Y-139041116D01*
X107036635Y-139019000D01*
X107263365Y-139019000D01*
X107374549Y-139041116D01*
G37*
G36*
X88324549Y-137911116D02*
G01*
X88435734Y-137933232D01*
X88645203Y-138019997D01*
X88833720Y-138145960D01*
X88994040Y-138306280D01*
X89120003Y-138494797D01*
X89206768Y-138704266D01*
X89251000Y-138926636D01*
X89251000Y-139153364D01*
X89206768Y-139375734D01*
X89120003Y-139585203D01*
X88994040Y-139773720D01*
X88833720Y-139934040D01*
X88645203Y-140060003D01*
X88435734Y-140146768D01*
X88324549Y-140168884D01*
X88213365Y-140191000D01*
X87986635Y-140191000D01*
X87875451Y-140168884D01*
X87764266Y-140146768D01*
X87554797Y-140060003D01*
X87366280Y-139934040D01*
X87205960Y-139773720D01*
X87079997Y-139585203D01*
X86993232Y-139375734D01*
X86949000Y-139153364D01*
X86949000Y-138926636D01*
X86993232Y-138704266D01*
X87079997Y-138494797D01*
X87205960Y-138306280D01*
X87366280Y-138145960D01*
X87554797Y-138019997D01*
X87764266Y-137933232D01*
X87875451Y-137911116D01*
X87986635Y-137889000D01*
X88213365Y-137889000D01*
X88324549Y-137911116D01*
G37*
G36*
X175884549Y-131451116D02*
G01*
X175995734Y-131473232D01*
X176205203Y-131559997D01*
X176393720Y-131685960D01*
X176554040Y-131846280D01*
X176680003Y-132034797D01*
X176766768Y-132244266D01*
X176811000Y-132466636D01*
X176811000Y-132693364D01*
X176766768Y-132915734D01*
X176680003Y-133125203D01*
X176554040Y-133313720D01*
X176393720Y-133474040D01*
X176205203Y-133600003D01*
X175995734Y-133686768D01*
X175884549Y-133708884D01*
X175773365Y-133731000D01*
X175546635Y-133731000D01*
X175435451Y-133708884D01*
X175324266Y-133686768D01*
X175114797Y-133600003D01*
X174926280Y-133474040D01*
X174765960Y-133313720D01*
X174639997Y-133125203D01*
X174553232Y-132915734D01*
X174509000Y-132693364D01*
X174509000Y-132466636D01*
X174553232Y-132244266D01*
X174639997Y-132034797D01*
X174765960Y-131846280D01*
X174926280Y-131685960D01*
X175114797Y-131559997D01*
X175324266Y-131473232D01*
X175435451Y-131451116D01*
X175546635Y-131429000D01*
X175773365Y-131429000D01*
X175884549Y-131451116D01*
G37*
G36*
X142184549Y-130721116D02*
G01*
X142295734Y-130743232D01*
X142505203Y-130829997D01*
X142693720Y-130955960D01*
X142854040Y-131116280D01*
X142980003Y-131304797D01*
X143066768Y-131514266D01*
X143111000Y-131736636D01*
X143111000Y-131963364D01*
X143066768Y-132185734D01*
X142980003Y-132395203D01*
X142854040Y-132583720D01*
X142693720Y-132744040D01*
X142505203Y-132870003D01*
X142295734Y-132956768D01*
X142184549Y-132978884D01*
X142073365Y-133001000D01*
X141846635Y-133001000D01*
X141735451Y-132978884D01*
X141624266Y-132956768D01*
X141414797Y-132870003D01*
X141226280Y-132744040D01*
X141065960Y-132583720D01*
X140939997Y-132395203D01*
X140853232Y-132185734D01*
X140809000Y-131963364D01*
X140809000Y-131736636D01*
X140853232Y-131514266D01*
X140939997Y-131304797D01*
X141065960Y-131116280D01*
X141226280Y-130955960D01*
X141414797Y-130829997D01*
X141624266Y-130743232D01*
X141735451Y-130721116D01*
X141846635Y-130699000D01*
X142073365Y-130699000D01*
X142184549Y-130721116D01*
G37*
G36*
X50224549Y-109201116D02*
G01*
X50335734Y-109223232D01*
X50545203Y-109309997D01*
X50733720Y-109435960D01*
X50894040Y-109596280D01*
X51020003Y-109784797D01*
X51106768Y-109994266D01*
X51151000Y-110216636D01*
X51151000Y-110443364D01*
X51106768Y-110665734D01*
X51020003Y-110875203D01*
X50894040Y-111063720D01*
X50733720Y-111224040D01*
X50545203Y-111350003D01*
X50335734Y-111436768D01*
X50224549Y-111458884D01*
X50113365Y-111481000D01*
X49886635Y-111481000D01*
X49775451Y-111458884D01*
X49664266Y-111436768D01*
X49454797Y-111350003D01*
X49266280Y-111224040D01*
X49105960Y-111063720D01*
X48979997Y-110875203D01*
X48893232Y-110665734D01*
X48849000Y-110443364D01*
X48849000Y-110216636D01*
X48893232Y-109994266D01*
X48979997Y-109784797D01*
X49105960Y-109596280D01*
X49266280Y-109435960D01*
X49454797Y-109309997D01*
X49664266Y-109223232D01*
X49775451Y-109201116D01*
X49886635Y-109179000D01*
X50113365Y-109179000D01*
X50224549Y-109201116D01*
G37*
G36*
X107374549Y-100631116D02*
G01*
X107485734Y-100653232D01*
X107695203Y-100739997D01*
X107883720Y-100865960D01*
X108044040Y-101026280D01*
X108170003Y-101214797D01*
X108256395Y-101423365D01*
X108256768Y-101424267D01*
X108300821Y-101645733D01*
X108301000Y-101646636D01*
X108301000Y-101873364D01*
X108256768Y-102095734D01*
X108170003Y-102305203D01*
X108044040Y-102493720D01*
X107883720Y-102654040D01*
X107695203Y-102780003D01*
X107485734Y-102866768D01*
X107374549Y-102888884D01*
X107263365Y-102911000D01*
X107036635Y-102911000D01*
X106925451Y-102888884D01*
X106814266Y-102866768D01*
X106604797Y-102780003D01*
X106416280Y-102654040D01*
X106255960Y-102493720D01*
X106129997Y-102305203D01*
X106043232Y-102095734D01*
X105999000Y-101873364D01*
X105999000Y-101646636D01*
X105999180Y-101645733D01*
X106043232Y-101424267D01*
X106043606Y-101423365D01*
X106129997Y-101214797D01*
X106255960Y-101026280D01*
X106416280Y-100865960D01*
X106604797Y-100739997D01*
X106814266Y-100653232D01*
X106925451Y-100631116D01*
X107036635Y-100609000D01*
X107263365Y-100609000D01*
X107374549Y-100631116D01*
G37*
G36*
X88334549Y-100181116D02*
G01*
X88445734Y-100203232D01*
X88655203Y-100289997D01*
X88843720Y-100415960D01*
X89004040Y-100576280D01*
X89113432Y-100739997D01*
X89130004Y-100764799D01*
X89216768Y-100974267D01*
X89261000Y-101196635D01*
X89261000Y-101423365D01*
X89238884Y-101534549D01*
X89216768Y-101645734D01*
X89130003Y-101855203D01*
X89004040Y-102043720D01*
X88843720Y-102204040D01*
X88655203Y-102330003D01*
X88445734Y-102416768D01*
X88334549Y-102438884D01*
X88223365Y-102461000D01*
X87996635Y-102461000D01*
X87885451Y-102438884D01*
X87774266Y-102416768D01*
X87564797Y-102330003D01*
X87376280Y-102204040D01*
X87215960Y-102043720D01*
X87089997Y-101855203D01*
X87003232Y-101645734D01*
X86981116Y-101534549D01*
X86959000Y-101423365D01*
X86959000Y-101196635D01*
X87003232Y-100974267D01*
X87089996Y-100764799D01*
X87106568Y-100739997D01*
X87215960Y-100576280D01*
X87376280Y-100415960D01*
X87564797Y-100289997D01*
X87774266Y-100203232D01*
X87885451Y-100181116D01*
X87996635Y-100159000D01*
X88223365Y-100159000D01*
X88334549Y-100181116D01*
G37*
G36*
X126404549Y-87761116D02*
G01*
X126515734Y-87783232D01*
X126725203Y-87869997D01*
X126913720Y-87995960D01*
X127074040Y-88156280D01*
X127200003Y-88344797D01*
X127286768Y-88554266D01*
X127331000Y-88776636D01*
X127331000Y-89003364D01*
X127286768Y-89225734D01*
X127200003Y-89435203D01*
X127074040Y-89623720D01*
X126913720Y-89784040D01*
X126725203Y-89910003D01*
X126515734Y-89996768D01*
X126404549Y-90018884D01*
X126293365Y-90041000D01*
X126066635Y-90041000D01*
X125955451Y-90018884D01*
X125844266Y-89996768D01*
X125634797Y-89910003D01*
X125446280Y-89784040D01*
X125285960Y-89623720D01*
X125159997Y-89435203D01*
X125073232Y-89225734D01*
X125029000Y-89003364D01*
X125029000Y-88776636D01*
X125073232Y-88554266D01*
X125159997Y-88344797D01*
X125285960Y-88156280D01*
X125446280Y-87995960D01*
X125634797Y-87869997D01*
X125844266Y-87783232D01*
X125955451Y-87761116D01*
X126066635Y-87739000D01*
X126293365Y-87739000D01*
X126404549Y-87761116D01*
G37*
G36*
X50224549Y-70341116D02*
G01*
X50335734Y-70363232D01*
X50545203Y-70449997D01*
X50733720Y-70575960D01*
X50894040Y-70736280D01*
X51020003Y-70924797D01*
X51106768Y-71134266D01*
X51151000Y-71356636D01*
X51151000Y-71583364D01*
X51106768Y-71805734D01*
X51020003Y-72015203D01*
X50894040Y-72203720D01*
X50733720Y-72364040D01*
X50545203Y-72490003D01*
X50335734Y-72576768D01*
X50224549Y-72598884D01*
X50113365Y-72621000D01*
X49886635Y-72621000D01*
X49775451Y-72598884D01*
X49664266Y-72576768D01*
X49454797Y-72490003D01*
X49266280Y-72364040D01*
X49105960Y-72203720D01*
X48979997Y-72015203D01*
X48893232Y-71805734D01*
X48849000Y-71583364D01*
X48849000Y-71356636D01*
X48893232Y-71134266D01*
X48979997Y-70924797D01*
X49105960Y-70736280D01*
X49266280Y-70575960D01*
X49454797Y-70449997D01*
X49664266Y-70363232D01*
X49775451Y-70341116D01*
X49886635Y-70319000D01*
X50113365Y-70319000D01*
X50224549Y-70341116D01*
G37*
G36*
X107374549Y-62901116D02*
G01*
X107485734Y-62923232D01*
X107695203Y-63009997D01*
X107883720Y-63135960D01*
X108044040Y-63296280D01*
X108170003Y-63484797D01*
X108256768Y-63694266D01*
X108301000Y-63916636D01*
X108301000Y-64143364D01*
X108256768Y-64365734D01*
X108170003Y-64575203D01*
X108044040Y-64763720D01*
X107883720Y-64924040D01*
X107695203Y-65050003D01*
X107485734Y-65136768D01*
X107374549Y-65158884D01*
X107263365Y-65181000D01*
X107036635Y-65181000D01*
X106925451Y-65158884D01*
X106814266Y-65136768D01*
X106604797Y-65050003D01*
X106416280Y-64924040D01*
X106255960Y-64763720D01*
X106129997Y-64575203D01*
X106043232Y-64365734D01*
X105999000Y-64143364D01*
X105999000Y-63916636D01*
X106043232Y-63694266D01*
X106129997Y-63484797D01*
X106255960Y-63296280D01*
X106416280Y-63135960D01*
X106604797Y-63009997D01*
X106814266Y-62923232D01*
X106925451Y-62901116D01*
X107036635Y-62879000D01*
X107263365Y-62879000D01*
X107374549Y-62901116D01*
G37*
G36*
X88334549Y-62121116D02*
G01*
X88445734Y-62143232D01*
X88655203Y-62229997D01*
X88843720Y-62355960D01*
X89004040Y-62516280D01*
X89130003Y-62704797D01*
X89216768Y-62914266D01*
X89261000Y-63136636D01*
X89261000Y-63363364D01*
X89216768Y-63585734D01*
X89130003Y-63795203D01*
X89004040Y-63983720D01*
X88843720Y-64144040D01*
X88655203Y-64270003D01*
X88445734Y-64356768D01*
X88334549Y-64378884D01*
X88223365Y-64401000D01*
X87996635Y-64401000D01*
X87885451Y-64378884D01*
X87774266Y-64356768D01*
X87564797Y-64270003D01*
X87376280Y-64144040D01*
X87215960Y-63983720D01*
X87089997Y-63795203D01*
X87003232Y-63585734D01*
X86959000Y-63363364D01*
X86959000Y-63136636D01*
X87003232Y-62914266D01*
X87089997Y-62704797D01*
X87215960Y-62516280D01*
X87376280Y-62355960D01*
X87564797Y-62229997D01*
X87774266Y-62143232D01*
X87885451Y-62121116D01*
X87996635Y-62099000D01*
X88223365Y-62099000D01*
X88334549Y-62121116D01*
G37*
M02*
