G04 #@! TF.GenerationSoftware,KiCad,Pcbnew,(5.1.5)-3*
G04 #@! TF.CreationDate,2021-01-08T22:30:43-06:00*
G04 #@! TF.ProjectId,Bottom Plate,426f7474-6f6d-4205-906c-6174652e6b69,rev?*
G04 #@! TF.SameCoordinates,Original*
G04 #@! TF.FileFunction,Copper,L1,Top*
G04 #@! TF.FilePolarity,Positive*
%FSLAX46Y46*%
G04 Gerber Fmt 4.6, Leading zero omitted, Abs format (unit mm)*
G04 Created by KiCad (PCBNEW (5.1.5)-3) date 2021-01-08 22:30:43*
%MOMM*%
%LPD*%
G04 APERTURE LIST*
%ADD10C,0.254000*%
G04 APERTURE END LIST*
D10*
G36*
X134891393Y-48162738D02*
G01*
X135499536Y-48285097D01*
X136076863Y-48525134D01*
X136561213Y-48840925D01*
X144678890Y-54936114D01*
X144688076Y-54941694D01*
X144912967Y-55099390D01*
X145073175Y-55266677D01*
X145197840Y-55461901D01*
X145282211Y-55677618D01*
X145326472Y-55924559D01*
X145330011Y-56013407D01*
X145350027Y-82042925D01*
X145359651Y-82139882D01*
X145360397Y-82142334D01*
X145371955Y-82250292D01*
X145383343Y-82305228D01*
X145393343Y-82360451D01*
X145395924Y-82369297D01*
X145451342Y-82554434D01*
X145474008Y-82609797D01*
X145495896Y-82665465D01*
X145500146Y-82673641D01*
X145590469Y-82844489D01*
X145623435Y-82894362D01*
X145655741Y-82944752D01*
X145661499Y-82951947D01*
X145783287Y-83101996D01*
X145825334Y-83144538D01*
X145866787Y-83187668D01*
X145873832Y-83193608D01*
X146022444Y-83317144D01*
X146071973Y-83350722D01*
X146120996Y-83384967D01*
X146129061Y-83389426D01*
X146298838Y-83481743D01*
X146353926Y-83505054D01*
X146408689Y-83529134D01*
X146417466Y-83531941D01*
X146601942Y-83589524D01*
X146660485Y-83601685D01*
X146718902Y-83614674D01*
X146728058Y-83615722D01*
X146858322Y-83629725D01*
X146860967Y-83630529D01*
X146957925Y-83640138D01*
X162977515Y-83649881D01*
X163269677Y-83678527D01*
X163519466Y-83753943D01*
X163749848Y-83876440D01*
X163952049Y-84041351D01*
X164118371Y-84242399D01*
X164242468Y-84471912D01*
X164319628Y-84721176D01*
X164350000Y-85010147D01*
X164339992Y-122042240D01*
X164341567Y-122058276D01*
X164396625Y-123192388D01*
X164399755Y-123222787D01*
X164402406Y-123253186D01*
X164402734Y-123255467D01*
X164616675Y-124725011D01*
X164623488Y-124758849D01*
X164630192Y-124792760D01*
X164630764Y-124794992D01*
X165002164Y-126232835D01*
X165012640Y-126265896D01*
X165022918Y-126298726D01*
X165023724Y-126300872D01*
X165023728Y-126300885D01*
X165023733Y-126300897D01*
X165548241Y-127690206D01*
X165562218Y-127721923D01*
X165575991Y-127753472D01*
X165577021Y-127755513D01*
X165577028Y-127755529D01*
X165577036Y-127755543D01*
X166248521Y-129080078D01*
X166268852Y-129115317D01*
X166273432Y-129124820D01*
X166278279Y-129132658D01*
X166452895Y-129410697D01*
X166483976Y-129450868D01*
X166513366Y-129492292D01*
X166519455Y-129499209D01*
X166823396Y-129839684D01*
X166867417Y-129880227D01*
X166910828Y-129921343D01*
X166918144Y-129926946D01*
X167282429Y-130201901D01*
X167333461Y-130233106D01*
X167384057Y-130265023D01*
X167392323Y-130269098D01*
X167803077Y-130468060D01*
X167859212Y-130488763D01*
X167915029Y-130510240D01*
X167923928Y-130512632D01*
X168365504Y-130628022D01*
X168424541Y-130637419D01*
X168483517Y-130647654D01*
X168492712Y-130648272D01*
X168936419Y-130674980D01*
X168956768Y-130676946D01*
X174984902Y-130665626D01*
X174699855Y-130783696D01*
X174367863Y-131005526D01*
X174085526Y-131287863D01*
X173863696Y-131619855D01*
X173710896Y-131988746D01*
X173633000Y-132380358D01*
X173633000Y-132779642D01*
X173710896Y-133171254D01*
X173863696Y-133540145D01*
X174085526Y-133872137D01*
X174367863Y-134154474D01*
X174699855Y-134376304D01*
X175068746Y-134529104D01*
X175460358Y-134607000D01*
X175859642Y-134607000D01*
X176251254Y-134529104D01*
X176620145Y-134376304D01*
X176952137Y-134154474D01*
X177234474Y-133872137D01*
X177456304Y-133540145D01*
X177609104Y-133171254D01*
X177687000Y-132779642D01*
X177687000Y-132380358D01*
X177609104Y-131988746D01*
X177456304Y-131619855D01*
X177234474Y-131287863D01*
X176952137Y-131005526D01*
X176620145Y-130783696D01*
X176329005Y-130663101D01*
X177403595Y-130661083D01*
X177708407Y-130680967D01*
X177962391Y-130748702D01*
X178198385Y-130864478D01*
X178407393Y-131023886D01*
X178581458Y-131220856D01*
X178713951Y-131447886D01*
X178799822Y-131696322D01*
X178839460Y-131983166D01*
X178840163Y-132014700D01*
X178840225Y-132015212D01*
X178840198Y-132016172D01*
X178848543Y-132356634D01*
X178849057Y-132361732D01*
X178853489Y-132422701D01*
X178984859Y-133468785D01*
X178987966Y-133484044D01*
X178989460Y-133499541D01*
X179004833Y-133566893D01*
X179292923Y-134581068D01*
X179298304Y-134595686D01*
X179302124Y-134610774D01*
X179327507Y-134675025D01*
X179765687Y-135633955D01*
X179773218Y-135647593D01*
X179779276Y-135661928D01*
X179814086Y-135721601D01*
X180392273Y-136603217D01*
X180401779Y-136615557D01*
X180409936Y-136628812D01*
X180453356Y-136682512D01*
X180453372Y-136682533D01*
X180453378Y-136682539D01*
X181116874Y-137420517D01*
X181118476Y-137423158D01*
X181206293Y-137519025D01*
X181284858Y-137576651D01*
X181312661Y-137593116D01*
X181312675Y-137593126D01*
X181312690Y-137593134D01*
X185875466Y-140295252D01*
X186426837Y-140731249D01*
X186869845Y-141250591D01*
X187203543Y-141846091D01*
X187415219Y-142495067D01*
X187496811Y-143172793D01*
X187445210Y-143853468D01*
X187262382Y-144511154D01*
X186944373Y-145142478D01*
X186943370Y-145143888D01*
X170201745Y-174379268D01*
X169768752Y-174926838D01*
X169249410Y-175369846D01*
X168653913Y-175703542D01*
X168004935Y-175915220D01*
X167327208Y-175996812D01*
X166646533Y-175945211D01*
X165988847Y-175762383D01*
X165356227Y-175443721D01*
X160912821Y-172850358D01*
X165263000Y-172850358D01*
X165263000Y-173249642D01*
X165340896Y-173641254D01*
X165493696Y-174010145D01*
X165715526Y-174342137D01*
X165997863Y-174624474D01*
X166329855Y-174846304D01*
X166698746Y-174999104D01*
X167090358Y-175077000D01*
X167489642Y-175077000D01*
X167881254Y-174999104D01*
X168250145Y-174846304D01*
X168582137Y-174624474D01*
X168864474Y-174342137D01*
X169086304Y-174010145D01*
X169239104Y-173641254D01*
X169317000Y-173249642D01*
X169317000Y-172850358D01*
X169239104Y-172458746D01*
X169086304Y-172089855D01*
X168864474Y-171757863D01*
X168582137Y-171475526D01*
X168250145Y-171253696D01*
X167881254Y-171100896D01*
X167489642Y-171023000D01*
X167090358Y-171023000D01*
X166698746Y-171100896D01*
X166329855Y-171253696D01*
X165997863Y-171475526D01*
X165715526Y-171757863D01*
X165493696Y-172089855D01*
X165340896Y-172458746D01*
X165263000Y-172850358D01*
X160912821Y-172850358D01*
X124987742Y-151882936D01*
X124325243Y-151480540D01*
X124295741Y-151465068D01*
X124266657Y-151448886D01*
X123104970Y-150895017D01*
X123104964Y-150895014D01*
X123028056Y-150864112D01*
X121806104Y-150460207D01*
X121725930Y-150439187D01*
X120463005Y-150191622D01*
X120462990Y-150191618D01*
X120380814Y-150180813D01*
X119106753Y-150094161D01*
X119084487Y-150091966D01*
X92467630Y-150089998D01*
X92462921Y-150090461D01*
X91800824Y-150099899D01*
X91786362Y-150100686D01*
X91771855Y-150100948D01*
X91764958Y-150101387D01*
X89827155Y-150234626D01*
X89804268Y-150237125D01*
X89781334Y-150239388D01*
X89774494Y-150240377D01*
X87853619Y-150528595D01*
X87831003Y-150532923D01*
X87808327Y-150537017D01*
X87801588Y-150538552D01*
X85910014Y-150979895D01*
X85887864Y-150986010D01*
X85865544Y-150991921D01*
X85858951Y-150993992D01*
X84021090Y-151581706D01*
X84002257Y-151586929D01*
X71908613Y-156259728D01*
X69660710Y-156747519D01*
X67356388Y-157093682D01*
X65032535Y-157290589D01*
X63141374Y-157340000D01*
X32532279Y-157340000D01*
X31851874Y-157273286D01*
X31228430Y-157085057D01*
X30653427Y-156779323D01*
X30148752Y-156367721D01*
X29733638Y-155865933D01*
X29423896Y-155293077D01*
X29231318Y-154670961D01*
X29160000Y-153992416D01*
X29159983Y-148730358D01*
X47983000Y-148730358D01*
X47983000Y-149129642D01*
X48060896Y-149521254D01*
X48213696Y-149890145D01*
X48435526Y-150222137D01*
X48717863Y-150504474D01*
X49049855Y-150726304D01*
X49418746Y-150879104D01*
X49810358Y-150957000D01*
X50209642Y-150957000D01*
X50601254Y-150879104D01*
X50970145Y-150726304D01*
X51302137Y-150504474D01*
X51584474Y-150222137D01*
X51806304Y-149890145D01*
X51959104Y-149521254D01*
X52037000Y-149129642D01*
X52037000Y-148730358D01*
X51959104Y-148338746D01*
X51806304Y-147969855D01*
X51584474Y-147637863D01*
X51302137Y-147355526D01*
X50970145Y-147133696D01*
X50601254Y-146980896D01*
X50209642Y-146903000D01*
X49810358Y-146903000D01*
X49418746Y-146980896D01*
X49049855Y-147133696D01*
X48717863Y-147355526D01*
X48435526Y-147637863D01*
X48213696Y-147969855D01*
X48060896Y-148338746D01*
X47983000Y-148730358D01*
X29159983Y-148730358D01*
X29159950Y-138840358D01*
X86073000Y-138840358D01*
X86073000Y-139239642D01*
X86150896Y-139631254D01*
X86303696Y-140000145D01*
X86525526Y-140332137D01*
X86807863Y-140614474D01*
X87139855Y-140836304D01*
X87508746Y-140989104D01*
X87900358Y-141067000D01*
X88299642Y-141067000D01*
X88691254Y-140989104D01*
X89060145Y-140836304D01*
X89392137Y-140614474D01*
X89674474Y-140332137D01*
X89896304Y-140000145D01*
X89908642Y-139970358D01*
X105123000Y-139970358D01*
X105123000Y-140369642D01*
X105200896Y-140761254D01*
X105353696Y-141130145D01*
X105575526Y-141462137D01*
X105857863Y-141744474D01*
X106189855Y-141966304D01*
X106558746Y-142119104D01*
X106950358Y-142197000D01*
X107349642Y-142197000D01*
X107741254Y-142119104D01*
X108110145Y-141966304D01*
X108442137Y-141744474D01*
X108724474Y-141462137D01*
X108946304Y-141130145D01*
X109099104Y-140761254D01*
X109177000Y-140369642D01*
X109177000Y-139970358D01*
X109099104Y-139578746D01*
X108946304Y-139209855D01*
X108724474Y-138877863D01*
X108442137Y-138595526D01*
X108110145Y-138373696D01*
X107741254Y-138220896D01*
X107349642Y-138143000D01*
X106950358Y-138143000D01*
X106558746Y-138220896D01*
X106189855Y-138373696D01*
X105857863Y-138595526D01*
X105575526Y-138877863D01*
X105353696Y-139209855D01*
X105200896Y-139578746D01*
X105123000Y-139970358D01*
X89908642Y-139970358D01*
X90049104Y-139631254D01*
X90127000Y-139239642D01*
X90127000Y-138840358D01*
X90049104Y-138448746D01*
X89896304Y-138079855D01*
X89674474Y-137747863D01*
X89392137Y-137465526D01*
X89060145Y-137243696D01*
X88691254Y-137090896D01*
X88299642Y-137013000D01*
X87900358Y-137013000D01*
X87508746Y-137090896D01*
X87139855Y-137243696D01*
X86807863Y-137465526D01*
X86525526Y-137747863D01*
X86303696Y-138079855D01*
X86150896Y-138448746D01*
X86073000Y-138840358D01*
X29159950Y-138840358D01*
X29159926Y-131650358D01*
X139933000Y-131650358D01*
X139933000Y-132049642D01*
X140010896Y-132441254D01*
X140163696Y-132810145D01*
X140385526Y-133142137D01*
X140667863Y-133424474D01*
X140999855Y-133646304D01*
X141368746Y-133799104D01*
X141760358Y-133877000D01*
X142159642Y-133877000D01*
X142551254Y-133799104D01*
X142920145Y-133646304D01*
X143252137Y-133424474D01*
X143534474Y-133142137D01*
X143756304Y-132810145D01*
X143909104Y-132441254D01*
X143987000Y-132049642D01*
X143987000Y-131650358D01*
X143909104Y-131258746D01*
X143756304Y-130889855D01*
X143534474Y-130557863D01*
X143252137Y-130275526D01*
X142920145Y-130053696D01*
X142551254Y-129900896D01*
X142159642Y-129823000D01*
X141760358Y-129823000D01*
X141368746Y-129900896D01*
X140999855Y-130053696D01*
X140667863Y-130275526D01*
X140385526Y-130557863D01*
X140163696Y-130889855D01*
X140010896Y-131258746D01*
X139933000Y-131650358D01*
X29159926Y-131650358D01*
X29159852Y-110130358D01*
X47973000Y-110130358D01*
X47973000Y-110529642D01*
X48050896Y-110921254D01*
X48203696Y-111290145D01*
X48425526Y-111622137D01*
X48707863Y-111904474D01*
X49039855Y-112126304D01*
X49408746Y-112279104D01*
X49800358Y-112357000D01*
X50199642Y-112357000D01*
X50591254Y-112279104D01*
X50960145Y-112126304D01*
X51292137Y-111904474D01*
X51574474Y-111622137D01*
X51796304Y-111290145D01*
X51949104Y-110921254D01*
X52027000Y-110529642D01*
X52027000Y-110130358D01*
X51949104Y-109738746D01*
X51796304Y-109369855D01*
X51574474Y-109037863D01*
X51292137Y-108755526D01*
X50960145Y-108533696D01*
X50591254Y-108380896D01*
X50199642Y-108303000D01*
X49800358Y-108303000D01*
X49408746Y-108380896D01*
X49039855Y-108533696D01*
X48707863Y-108755526D01*
X48425526Y-109037863D01*
X48203696Y-109369855D01*
X48050896Y-109738746D01*
X47973000Y-110130358D01*
X29159852Y-110130358D01*
X29159822Y-101110358D01*
X86083000Y-101110358D01*
X86083000Y-101509642D01*
X86160896Y-101901254D01*
X86313696Y-102270145D01*
X86535526Y-102602137D01*
X86817863Y-102884474D01*
X87149855Y-103106304D01*
X87518746Y-103259104D01*
X87910358Y-103337000D01*
X88309642Y-103337000D01*
X88701254Y-103259104D01*
X89070145Y-103106304D01*
X89402137Y-102884474D01*
X89684474Y-102602137D01*
X89906304Y-102270145D01*
X90059104Y-101901254D01*
X90126912Y-101560358D01*
X105123000Y-101560358D01*
X105123000Y-101959642D01*
X105200896Y-102351254D01*
X105353696Y-102720145D01*
X105575526Y-103052137D01*
X105857863Y-103334474D01*
X106189855Y-103556304D01*
X106558746Y-103709104D01*
X106950358Y-103787000D01*
X107349642Y-103787000D01*
X107741254Y-103709104D01*
X108110145Y-103556304D01*
X108442137Y-103334474D01*
X108724474Y-103052137D01*
X108946304Y-102720145D01*
X109099104Y-102351254D01*
X109177000Y-101959642D01*
X109177000Y-101560358D01*
X109099104Y-101168746D01*
X108946304Y-100799855D01*
X108724474Y-100467863D01*
X108442137Y-100185526D01*
X108110145Y-99963696D01*
X107741254Y-99810896D01*
X107349642Y-99733000D01*
X106950358Y-99733000D01*
X106558746Y-99810896D01*
X106189855Y-99963696D01*
X105857863Y-100185526D01*
X105575526Y-100467863D01*
X105353696Y-100799855D01*
X105200896Y-101168746D01*
X105123000Y-101560358D01*
X90126912Y-101560358D01*
X90137000Y-101509642D01*
X90137000Y-101110358D01*
X90059104Y-100718746D01*
X89906304Y-100349855D01*
X89684474Y-100017863D01*
X89402137Y-99735526D01*
X89070145Y-99513696D01*
X88701254Y-99360896D01*
X88309642Y-99283000D01*
X87910358Y-99283000D01*
X87518746Y-99360896D01*
X87149855Y-99513696D01*
X86817863Y-99735526D01*
X86535526Y-100017863D01*
X86313696Y-100349855D01*
X86160896Y-100718746D01*
X86083000Y-101110358D01*
X29159822Y-101110358D01*
X29159780Y-88690358D01*
X124153000Y-88690358D01*
X124153000Y-89089642D01*
X124230896Y-89481254D01*
X124383696Y-89850145D01*
X124605526Y-90182137D01*
X124887863Y-90464474D01*
X125219855Y-90686304D01*
X125588746Y-90839104D01*
X125980358Y-90917000D01*
X126379642Y-90917000D01*
X126771254Y-90839104D01*
X127140145Y-90686304D01*
X127472137Y-90464474D01*
X127754474Y-90182137D01*
X127976304Y-89850145D01*
X128129104Y-89481254D01*
X128207000Y-89089642D01*
X128207000Y-88690358D01*
X128129104Y-88298746D01*
X127976304Y-87929855D01*
X127754474Y-87597863D01*
X127472137Y-87315526D01*
X127140145Y-87093696D01*
X126771254Y-86940896D01*
X126379642Y-86863000D01*
X125980358Y-86863000D01*
X125588746Y-86940896D01*
X125219855Y-87093696D01*
X124887863Y-87315526D01*
X124605526Y-87597863D01*
X124383696Y-87929855D01*
X124230896Y-88298746D01*
X124153000Y-88690358D01*
X29159780Y-88690358D01*
X29159720Y-71270358D01*
X47973000Y-71270358D01*
X47973000Y-71669642D01*
X48050896Y-72061254D01*
X48203696Y-72430145D01*
X48425526Y-72762137D01*
X48707863Y-73044474D01*
X49039855Y-73266304D01*
X49408746Y-73419104D01*
X49800358Y-73497000D01*
X50199642Y-73497000D01*
X50591254Y-73419104D01*
X50960145Y-73266304D01*
X51292137Y-73044474D01*
X51574474Y-72762137D01*
X51796304Y-72430145D01*
X51949104Y-72061254D01*
X52027000Y-71669642D01*
X52027000Y-71270358D01*
X51949104Y-70878746D01*
X51796304Y-70509855D01*
X51574474Y-70177863D01*
X51292137Y-69895526D01*
X50960145Y-69673696D01*
X50591254Y-69520896D01*
X50199642Y-69443000D01*
X49800358Y-69443000D01*
X49408746Y-69520896D01*
X49039855Y-69673696D01*
X48707863Y-69895526D01*
X48425526Y-70177863D01*
X48203696Y-70509855D01*
X48050896Y-70878746D01*
X47973000Y-71270358D01*
X29159720Y-71270358D01*
X29159692Y-63050358D01*
X86083000Y-63050358D01*
X86083000Y-63449642D01*
X86160896Y-63841254D01*
X86313696Y-64210145D01*
X86535526Y-64542137D01*
X86817863Y-64824474D01*
X87149855Y-65046304D01*
X87518746Y-65199104D01*
X87910358Y-65277000D01*
X88309642Y-65277000D01*
X88701254Y-65199104D01*
X89070145Y-65046304D01*
X89402137Y-64824474D01*
X89684474Y-64542137D01*
X89906304Y-64210145D01*
X90059104Y-63841254D01*
X90061271Y-63830358D01*
X105123000Y-63830358D01*
X105123000Y-64229642D01*
X105200896Y-64621254D01*
X105353696Y-64990145D01*
X105575526Y-65322137D01*
X105857863Y-65604474D01*
X106189855Y-65826304D01*
X106558746Y-65979104D01*
X106950358Y-66057000D01*
X107349642Y-66057000D01*
X107741254Y-65979104D01*
X108110145Y-65826304D01*
X108442137Y-65604474D01*
X108724474Y-65322137D01*
X108946304Y-64990145D01*
X109099104Y-64621254D01*
X109177000Y-64229642D01*
X109177000Y-63830358D01*
X109099104Y-63438746D01*
X108946304Y-63069855D01*
X108724474Y-62737863D01*
X108442137Y-62455526D01*
X108110145Y-62233696D01*
X107741254Y-62080896D01*
X107349642Y-62003000D01*
X106950358Y-62003000D01*
X106558746Y-62080896D01*
X106189855Y-62233696D01*
X105857863Y-62455526D01*
X105575526Y-62737863D01*
X105353696Y-63069855D01*
X105200896Y-63438746D01*
X105123000Y-63830358D01*
X90061271Y-63830358D01*
X90137000Y-63449642D01*
X90137000Y-63050358D01*
X90059104Y-62658746D01*
X89906304Y-62289855D01*
X89684474Y-61957863D01*
X89402137Y-61675526D01*
X89070145Y-61453696D01*
X88701254Y-61300896D01*
X88309642Y-61223000D01*
X87910358Y-61223000D01*
X87518746Y-61300896D01*
X87149855Y-61453696D01*
X86817863Y-61675526D01*
X86535526Y-61957863D01*
X86313696Y-62289855D01*
X86160896Y-62658746D01*
X86083000Y-63050358D01*
X29159692Y-63050358D01*
X29159688Y-62032285D01*
X29226409Y-61351814D01*
X29414656Y-60728310D01*
X29720419Y-60153254D01*
X30132060Y-59648532D01*
X30633894Y-59233379D01*
X31223661Y-58914493D01*
X31428044Y-58838060D01*
X86426796Y-48468791D01*
X88636587Y-48237308D01*
X90861472Y-48160000D01*
X134891393Y-48162738D01*
G37*
X134891393Y-48162738D02*
X135499536Y-48285097D01*
X136076863Y-48525134D01*
X136561213Y-48840925D01*
X144678890Y-54936114D01*
X144688076Y-54941694D01*
X144912967Y-55099390D01*
X145073175Y-55266677D01*
X145197840Y-55461901D01*
X145282211Y-55677618D01*
X145326472Y-55924559D01*
X145330011Y-56013407D01*
X145350027Y-82042925D01*
X145359651Y-82139882D01*
X145360397Y-82142334D01*
X145371955Y-82250292D01*
X145383343Y-82305228D01*
X145393343Y-82360451D01*
X145395924Y-82369297D01*
X145451342Y-82554434D01*
X145474008Y-82609797D01*
X145495896Y-82665465D01*
X145500146Y-82673641D01*
X145590469Y-82844489D01*
X145623435Y-82894362D01*
X145655741Y-82944752D01*
X145661499Y-82951947D01*
X145783287Y-83101996D01*
X145825334Y-83144538D01*
X145866787Y-83187668D01*
X145873832Y-83193608D01*
X146022444Y-83317144D01*
X146071973Y-83350722D01*
X146120996Y-83384967D01*
X146129061Y-83389426D01*
X146298838Y-83481743D01*
X146353926Y-83505054D01*
X146408689Y-83529134D01*
X146417466Y-83531941D01*
X146601942Y-83589524D01*
X146660485Y-83601685D01*
X146718902Y-83614674D01*
X146728058Y-83615722D01*
X146858322Y-83629725D01*
X146860967Y-83630529D01*
X146957925Y-83640138D01*
X162977515Y-83649881D01*
X163269677Y-83678527D01*
X163519466Y-83753943D01*
X163749848Y-83876440D01*
X163952049Y-84041351D01*
X164118371Y-84242399D01*
X164242468Y-84471912D01*
X164319628Y-84721176D01*
X164350000Y-85010147D01*
X164339992Y-122042240D01*
X164341567Y-122058276D01*
X164396625Y-123192388D01*
X164399755Y-123222787D01*
X164402406Y-123253186D01*
X164402734Y-123255467D01*
X164616675Y-124725011D01*
X164623488Y-124758849D01*
X164630192Y-124792760D01*
X164630764Y-124794992D01*
X165002164Y-126232835D01*
X165012640Y-126265896D01*
X165022918Y-126298726D01*
X165023724Y-126300872D01*
X165023728Y-126300885D01*
X165023733Y-126300897D01*
X165548241Y-127690206D01*
X165562218Y-127721923D01*
X165575991Y-127753472D01*
X165577021Y-127755513D01*
X165577028Y-127755529D01*
X165577036Y-127755543D01*
X166248521Y-129080078D01*
X166268852Y-129115317D01*
X166273432Y-129124820D01*
X166278279Y-129132658D01*
X166452895Y-129410697D01*
X166483976Y-129450868D01*
X166513366Y-129492292D01*
X166519455Y-129499209D01*
X166823396Y-129839684D01*
X166867417Y-129880227D01*
X166910828Y-129921343D01*
X166918144Y-129926946D01*
X167282429Y-130201901D01*
X167333461Y-130233106D01*
X167384057Y-130265023D01*
X167392323Y-130269098D01*
X167803077Y-130468060D01*
X167859212Y-130488763D01*
X167915029Y-130510240D01*
X167923928Y-130512632D01*
X168365504Y-130628022D01*
X168424541Y-130637419D01*
X168483517Y-130647654D01*
X168492712Y-130648272D01*
X168936419Y-130674980D01*
X168956768Y-130676946D01*
X174984902Y-130665626D01*
X174699855Y-130783696D01*
X174367863Y-131005526D01*
X174085526Y-131287863D01*
X173863696Y-131619855D01*
X173710896Y-131988746D01*
X173633000Y-132380358D01*
X173633000Y-132779642D01*
X173710896Y-133171254D01*
X173863696Y-133540145D01*
X174085526Y-133872137D01*
X174367863Y-134154474D01*
X174699855Y-134376304D01*
X175068746Y-134529104D01*
X175460358Y-134607000D01*
X175859642Y-134607000D01*
X176251254Y-134529104D01*
X176620145Y-134376304D01*
X176952137Y-134154474D01*
X177234474Y-133872137D01*
X177456304Y-133540145D01*
X177609104Y-133171254D01*
X177687000Y-132779642D01*
X177687000Y-132380358D01*
X177609104Y-131988746D01*
X177456304Y-131619855D01*
X177234474Y-131287863D01*
X176952137Y-131005526D01*
X176620145Y-130783696D01*
X176329005Y-130663101D01*
X177403595Y-130661083D01*
X177708407Y-130680967D01*
X177962391Y-130748702D01*
X178198385Y-130864478D01*
X178407393Y-131023886D01*
X178581458Y-131220856D01*
X178713951Y-131447886D01*
X178799822Y-131696322D01*
X178839460Y-131983166D01*
X178840163Y-132014700D01*
X178840225Y-132015212D01*
X178840198Y-132016172D01*
X178848543Y-132356634D01*
X178849057Y-132361732D01*
X178853489Y-132422701D01*
X178984859Y-133468785D01*
X178987966Y-133484044D01*
X178989460Y-133499541D01*
X179004833Y-133566893D01*
X179292923Y-134581068D01*
X179298304Y-134595686D01*
X179302124Y-134610774D01*
X179327507Y-134675025D01*
X179765687Y-135633955D01*
X179773218Y-135647593D01*
X179779276Y-135661928D01*
X179814086Y-135721601D01*
X180392273Y-136603217D01*
X180401779Y-136615557D01*
X180409936Y-136628812D01*
X180453356Y-136682512D01*
X180453372Y-136682533D01*
X180453378Y-136682539D01*
X181116874Y-137420517D01*
X181118476Y-137423158D01*
X181206293Y-137519025D01*
X181284858Y-137576651D01*
X181312661Y-137593116D01*
X181312675Y-137593126D01*
X181312690Y-137593134D01*
X185875466Y-140295252D01*
X186426837Y-140731249D01*
X186869845Y-141250591D01*
X187203543Y-141846091D01*
X187415219Y-142495067D01*
X187496811Y-143172793D01*
X187445210Y-143853468D01*
X187262382Y-144511154D01*
X186944373Y-145142478D01*
X186943370Y-145143888D01*
X170201745Y-174379268D01*
X169768752Y-174926838D01*
X169249410Y-175369846D01*
X168653913Y-175703542D01*
X168004935Y-175915220D01*
X167327208Y-175996812D01*
X166646533Y-175945211D01*
X165988847Y-175762383D01*
X165356227Y-175443721D01*
X160912821Y-172850358D01*
X165263000Y-172850358D01*
X165263000Y-173249642D01*
X165340896Y-173641254D01*
X165493696Y-174010145D01*
X165715526Y-174342137D01*
X165997863Y-174624474D01*
X166329855Y-174846304D01*
X166698746Y-174999104D01*
X167090358Y-175077000D01*
X167489642Y-175077000D01*
X167881254Y-174999104D01*
X168250145Y-174846304D01*
X168582137Y-174624474D01*
X168864474Y-174342137D01*
X169086304Y-174010145D01*
X169239104Y-173641254D01*
X169317000Y-173249642D01*
X169317000Y-172850358D01*
X169239104Y-172458746D01*
X169086304Y-172089855D01*
X168864474Y-171757863D01*
X168582137Y-171475526D01*
X168250145Y-171253696D01*
X167881254Y-171100896D01*
X167489642Y-171023000D01*
X167090358Y-171023000D01*
X166698746Y-171100896D01*
X166329855Y-171253696D01*
X165997863Y-171475526D01*
X165715526Y-171757863D01*
X165493696Y-172089855D01*
X165340896Y-172458746D01*
X165263000Y-172850358D01*
X160912821Y-172850358D01*
X124987742Y-151882936D01*
X124325243Y-151480540D01*
X124295741Y-151465068D01*
X124266657Y-151448886D01*
X123104970Y-150895017D01*
X123104964Y-150895014D01*
X123028056Y-150864112D01*
X121806104Y-150460207D01*
X121725930Y-150439187D01*
X120463005Y-150191622D01*
X120462990Y-150191618D01*
X120380814Y-150180813D01*
X119106753Y-150094161D01*
X119084487Y-150091966D01*
X92467630Y-150089998D01*
X92462921Y-150090461D01*
X91800824Y-150099899D01*
X91786362Y-150100686D01*
X91771855Y-150100948D01*
X91764958Y-150101387D01*
X89827155Y-150234626D01*
X89804268Y-150237125D01*
X89781334Y-150239388D01*
X89774494Y-150240377D01*
X87853619Y-150528595D01*
X87831003Y-150532923D01*
X87808327Y-150537017D01*
X87801588Y-150538552D01*
X85910014Y-150979895D01*
X85887864Y-150986010D01*
X85865544Y-150991921D01*
X85858951Y-150993992D01*
X84021090Y-151581706D01*
X84002257Y-151586929D01*
X71908613Y-156259728D01*
X69660710Y-156747519D01*
X67356388Y-157093682D01*
X65032535Y-157290589D01*
X63141374Y-157340000D01*
X32532279Y-157340000D01*
X31851874Y-157273286D01*
X31228430Y-157085057D01*
X30653427Y-156779323D01*
X30148752Y-156367721D01*
X29733638Y-155865933D01*
X29423896Y-155293077D01*
X29231318Y-154670961D01*
X29160000Y-153992416D01*
X29159983Y-148730358D01*
X47983000Y-148730358D01*
X47983000Y-149129642D01*
X48060896Y-149521254D01*
X48213696Y-149890145D01*
X48435526Y-150222137D01*
X48717863Y-150504474D01*
X49049855Y-150726304D01*
X49418746Y-150879104D01*
X49810358Y-150957000D01*
X50209642Y-150957000D01*
X50601254Y-150879104D01*
X50970145Y-150726304D01*
X51302137Y-150504474D01*
X51584474Y-150222137D01*
X51806304Y-149890145D01*
X51959104Y-149521254D01*
X52037000Y-149129642D01*
X52037000Y-148730358D01*
X51959104Y-148338746D01*
X51806304Y-147969855D01*
X51584474Y-147637863D01*
X51302137Y-147355526D01*
X50970145Y-147133696D01*
X50601254Y-146980896D01*
X50209642Y-146903000D01*
X49810358Y-146903000D01*
X49418746Y-146980896D01*
X49049855Y-147133696D01*
X48717863Y-147355526D01*
X48435526Y-147637863D01*
X48213696Y-147969855D01*
X48060896Y-148338746D01*
X47983000Y-148730358D01*
X29159983Y-148730358D01*
X29159950Y-138840358D01*
X86073000Y-138840358D01*
X86073000Y-139239642D01*
X86150896Y-139631254D01*
X86303696Y-140000145D01*
X86525526Y-140332137D01*
X86807863Y-140614474D01*
X87139855Y-140836304D01*
X87508746Y-140989104D01*
X87900358Y-141067000D01*
X88299642Y-141067000D01*
X88691254Y-140989104D01*
X89060145Y-140836304D01*
X89392137Y-140614474D01*
X89674474Y-140332137D01*
X89896304Y-140000145D01*
X89908642Y-139970358D01*
X105123000Y-139970358D01*
X105123000Y-140369642D01*
X105200896Y-140761254D01*
X105353696Y-141130145D01*
X105575526Y-141462137D01*
X105857863Y-141744474D01*
X106189855Y-141966304D01*
X106558746Y-142119104D01*
X106950358Y-142197000D01*
X107349642Y-142197000D01*
X107741254Y-142119104D01*
X108110145Y-141966304D01*
X108442137Y-141744474D01*
X108724474Y-141462137D01*
X108946304Y-141130145D01*
X109099104Y-140761254D01*
X109177000Y-140369642D01*
X109177000Y-139970358D01*
X109099104Y-139578746D01*
X108946304Y-139209855D01*
X108724474Y-138877863D01*
X108442137Y-138595526D01*
X108110145Y-138373696D01*
X107741254Y-138220896D01*
X107349642Y-138143000D01*
X106950358Y-138143000D01*
X106558746Y-138220896D01*
X106189855Y-138373696D01*
X105857863Y-138595526D01*
X105575526Y-138877863D01*
X105353696Y-139209855D01*
X105200896Y-139578746D01*
X105123000Y-139970358D01*
X89908642Y-139970358D01*
X90049104Y-139631254D01*
X90127000Y-139239642D01*
X90127000Y-138840358D01*
X90049104Y-138448746D01*
X89896304Y-138079855D01*
X89674474Y-137747863D01*
X89392137Y-137465526D01*
X89060145Y-137243696D01*
X88691254Y-137090896D01*
X88299642Y-137013000D01*
X87900358Y-137013000D01*
X87508746Y-137090896D01*
X87139855Y-137243696D01*
X86807863Y-137465526D01*
X86525526Y-137747863D01*
X86303696Y-138079855D01*
X86150896Y-138448746D01*
X86073000Y-138840358D01*
X29159950Y-138840358D01*
X29159926Y-131650358D01*
X139933000Y-131650358D01*
X139933000Y-132049642D01*
X140010896Y-132441254D01*
X140163696Y-132810145D01*
X140385526Y-133142137D01*
X140667863Y-133424474D01*
X140999855Y-133646304D01*
X141368746Y-133799104D01*
X141760358Y-133877000D01*
X142159642Y-133877000D01*
X142551254Y-133799104D01*
X142920145Y-133646304D01*
X143252137Y-133424474D01*
X143534474Y-133142137D01*
X143756304Y-132810145D01*
X143909104Y-132441254D01*
X143987000Y-132049642D01*
X143987000Y-131650358D01*
X143909104Y-131258746D01*
X143756304Y-130889855D01*
X143534474Y-130557863D01*
X143252137Y-130275526D01*
X142920145Y-130053696D01*
X142551254Y-129900896D01*
X142159642Y-129823000D01*
X141760358Y-129823000D01*
X141368746Y-129900896D01*
X140999855Y-130053696D01*
X140667863Y-130275526D01*
X140385526Y-130557863D01*
X140163696Y-130889855D01*
X140010896Y-131258746D01*
X139933000Y-131650358D01*
X29159926Y-131650358D01*
X29159852Y-110130358D01*
X47973000Y-110130358D01*
X47973000Y-110529642D01*
X48050896Y-110921254D01*
X48203696Y-111290145D01*
X48425526Y-111622137D01*
X48707863Y-111904474D01*
X49039855Y-112126304D01*
X49408746Y-112279104D01*
X49800358Y-112357000D01*
X50199642Y-112357000D01*
X50591254Y-112279104D01*
X50960145Y-112126304D01*
X51292137Y-111904474D01*
X51574474Y-111622137D01*
X51796304Y-111290145D01*
X51949104Y-110921254D01*
X52027000Y-110529642D01*
X52027000Y-110130358D01*
X51949104Y-109738746D01*
X51796304Y-109369855D01*
X51574474Y-109037863D01*
X51292137Y-108755526D01*
X50960145Y-108533696D01*
X50591254Y-108380896D01*
X50199642Y-108303000D01*
X49800358Y-108303000D01*
X49408746Y-108380896D01*
X49039855Y-108533696D01*
X48707863Y-108755526D01*
X48425526Y-109037863D01*
X48203696Y-109369855D01*
X48050896Y-109738746D01*
X47973000Y-110130358D01*
X29159852Y-110130358D01*
X29159822Y-101110358D01*
X86083000Y-101110358D01*
X86083000Y-101509642D01*
X86160896Y-101901254D01*
X86313696Y-102270145D01*
X86535526Y-102602137D01*
X86817863Y-102884474D01*
X87149855Y-103106304D01*
X87518746Y-103259104D01*
X87910358Y-103337000D01*
X88309642Y-103337000D01*
X88701254Y-103259104D01*
X89070145Y-103106304D01*
X89402137Y-102884474D01*
X89684474Y-102602137D01*
X89906304Y-102270145D01*
X90059104Y-101901254D01*
X90126912Y-101560358D01*
X105123000Y-101560358D01*
X105123000Y-101959642D01*
X105200896Y-102351254D01*
X105353696Y-102720145D01*
X105575526Y-103052137D01*
X105857863Y-103334474D01*
X106189855Y-103556304D01*
X106558746Y-103709104D01*
X106950358Y-103787000D01*
X107349642Y-103787000D01*
X107741254Y-103709104D01*
X108110145Y-103556304D01*
X108442137Y-103334474D01*
X108724474Y-103052137D01*
X108946304Y-102720145D01*
X109099104Y-102351254D01*
X109177000Y-101959642D01*
X109177000Y-101560358D01*
X109099104Y-101168746D01*
X108946304Y-100799855D01*
X108724474Y-100467863D01*
X108442137Y-100185526D01*
X108110145Y-99963696D01*
X107741254Y-99810896D01*
X107349642Y-99733000D01*
X106950358Y-99733000D01*
X106558746Y-99810896D01*
X106189855Y-99963696D01*
X105857863Y-100185526D01*
X105575526Y-100467863D01*
X105353696Y-100799855D01*
X105200896Y-101168746D01*
X105123000Y-101560358D01*
X90126912Y-101560358D01*
X90137000Y-101509642D01*
X90137000Y-101110358D01*
X90059104Y-100718746D01*
X89906304Y-100349855D01*
X89684474Y-100017863D01*
X89402137Y-99735526D01*
X89070145Y-99513696D01*
X88701254Y-99360896D01*
X88309642Y-99283000D01*
X87910358Y-99283000D01*
X87518746Y-99360896D01*
X87149855Y-99513696D01*
X86817863Y-99735526D01*
X86535526Y-100017863D01*
X86313696Y-100349855D01*
X86160896Y-100718746D01*
X86083000Y-101110358D01*
X29159822Y-101110358D01*
X29159780Y-88690358D01*
X124153000Y-88690358D01*
X124153000Y-89089642D01*
X124230896Y-89481254D01*
X124383696Y-89850145D01*
X124605526Y-90182137D01*
X124887863Y-90464474D01*
X125219855Y-90686304D01*
X125588746Y-90839104D01*
X125980358Y-90917000D01*
X126379642Y-90917000D01*
X126771254Y-90839104D01*
X127140145Y-90686304D01*
X127472137Y-90464474D01*
X127754474Y-90182137D01*
X127976304Y-89850145D01*
X128129104Y-89481254D01*
X128207000Y-89089642D01*
X128207000Y-88690358D01*
X128129104Y-88298746D01*
X127976304Y-87929855D01*
X127754474Y-87597863D01*
X127472137Y-87315526D01*
X127140145Y-87093696D01*
X126771254Y-86940896D01*
X126379642Y-86863000D01*
X125980358Y-86863000D01*
X125588746Y-86940896D01*
X125219855Y-87093696D01*
X124887863Y-87315526D01*
X124605526Y-87597863D01*
X124383696Y-87929855D01*
X124230896Y-88298746D01*
X124153000Y-88690358D01*
X29159780Y-88690358D01*
X29159720Y-71270358D01*
X47973000Y-71270358D01*
X47973000Y-71669642D01*
X48050896Y-72061254D01*
X48203696Y-72430145D01*
X48425526Y-72762137D01*
X48707863Y-73044474D01*
X49039855Y-73266304D01*
X49408746Y-73419104D01*
X49800358Y-73497000D01*
X50199642Y-73497000D01*
X50591254Y-73419104D01*
X50960145Y-73266304D01*
X51292137Y-73044474D01*
X51574474Y-72762137D01*
X51796304Y-72430145D01*
X51949104Y-72061254D01*
X52027000Y-71669642D01*
X52027000Y-71270358D01*
X51949104Y-70878746D01*
X51796304Y-70509855D01*
X51574474Y-70177863D01*
X51292137Y-69895526D01*
X50960145Y-69673696D01*
X50591254Y-69520896D01*
X50199642Y-69443000D01*
X49800358Y-69443000D01*
X49408746Y-69520896D01*
X49039855Y-69673696D01*
X48707863Y-69895526D01*
X48425526Y-70177863D01*
X48203696Y-70509855D01*
X48050896Y-70878746D01*
X47973000Y-71270358D01*
X29159720Y-71270358D01*
X29159692Y-63050358D01*
X86083000Y-63050358D01*
X86083000Y-63449642D01*
X86160896Y-63841254D01*
X86313696Y-64210145D01*
X86535526Y-64542137D01*
X86817863Y-64824474D01*
X87149855Y-65046304D01*
X87518746Y-65199104D01*
X87910358Y-65277000D01*
X88309642Y-65277000D01*
X88701254Y-65199104D01*
X89070145Y-65046304D01*
X89402137Y-64824474D01*
X89684474Y-64542137D01*
X89906304Y-64210145D01*
X90059104Y-63841254D01*
X90061271Y-63830358D01*
X105123000Y-63830358D01*
X105123000Y-64229642D01*
X105200896Y-64621254D01*
X105353696Y-64990145D01*
X105575526Y-65322137D01*
X105857863Y-65604474D01*
X106189855Y-65826304D01*
X106558746Y-65979104D01*
X106950358Y-66057000D01*
X107349642Y-66057000D01*
X107741254Y-65979104D01*
X108110145Y-65826304D01*
X108442137Y-65604474D01*
X108724474Y-65322137D01*
X108946304Y-64990145D01*
X109099104Y-64621254D01*
X109177000Y-64229642D01*
X109177000Y-63830358D01*
X109099104Y-63438746D01*
X108946304Y-63069855D01*
X108724474Y-62737863D01*
X108442137Y-62455526D01*
X108110145Y-62233696D01*
X107741254Y-62080896D01*
X107349642Y-62003000D01*
X106950358Y-62003000D01*
X106558746Y-62080896D01*
X106189855Y-62233696D01*
X105857863Y-62455526D01*
X105575526Y-62737863D01*
X105353696Y-63069855D01*
X105200896Y-63438746D01*
X105123000Y-63830358D01*
X90061271Y-63830358D01*
X90137000Y-63449642D01*
X90137000Y-63050358D01*
X90059104Y-62658746D01*
X89906304Y-62289855D01*
X89684474Y-61957863D01*
X89402137Y-61675526D01*
X89070145Y-61453696D01*
X88701254Y-61300896D01*
X88309642Y-61223000D01*
X87910358Y-61223000D01*
X87518746Y-61300896D01*
X87149855Y-61453696D01*
X86817863Y-61675526D01*
X86535526Y-61957863D01*
X86313696Y-62289855D01*
X86160896Y-62658746D01*
X86083000Y-63050358D01*
X29159692Y-63050358D01*
X29159688Y-62032285D01*
X29226409Y-61351814D01*
X29414656Y-60728310D01*
X29720419Y-60153254D01*
X30132060Y-59648532D01*
X30633894Y-59233379D01*
X31223661Y-58914493D01*
X31428044Y-58838060D01*
X86426796Y-48468791D01*
X88636587Y-48237308D01*
X90861472Y-48160000D01*
X134891393Y-48162738D01*
M02*
