M48
; DRILL file {KiCad (5.1.5)-3} date 1/8/2021 10:33:06 PM
; FORMAT={-:-/ absolute / inch / decimal}
; #@! TF.CreationDate,2021-01-08T22:33:06-06:00
; #@! TF.GenerationSoftware,Kicad,Pcbnew,(5.1.5)-3
; #@! TF.FileFunction,Plated,1,2,PTH
FMAT,2
INCH
T1C0.0197
%
G90
G05
T1
G00X3.576Y-2.078
M15
G01X3.576Y-2.6095
M16
G05
G00X3.578Y-2.076
M15
G01X4.1095Y-2.076
M16
G05
G00X3.578Y-2.6115
M15
G01X4.1095Y-2.6115
M16
G05
G00X4.1115Y-2.078
M15
G01X4.1115Y-2.6095
M16
G05
G00X6.0885Y-4.9485
M15
G01X5.8228Y-5.4088
M16
G05
G00X5.8235Y-5.4115
M15
G01X6.2838Y-5.6772
M16
G05
G00X6.0912Y-4.9478
M15
G01X6.5515Y-5.2135
M16
G05
G00X6.5522Y-5.2162
M15
G01X6.2865Y-5.6765
M16
G05
G00X4.326Y-3.703
M15
G01X4.326Y-4.2345
M16
G05
G00X4.328Y-3.701
M15
G01X4.8595Y-3.701
M16
G05
G00X4.328Y-4.2365
M15
G01X4.8595Y-4.2365
M16
G05
G00X4.8615Y-3.703
M15
G01X4.8615Y-4.2345
M16
G05
G00X2.826Y-2.9218
M15
G01X2.826Y-3.4532
M16
G05
G00X2.828Y-2.9198
M15
G01X3.3595Y-2.9198
M16
G05
G00X2.828Y-3.4552
M15
G01X3.3595Y-3.4552
M16
G05
G00X3.3615Y-2.9218
M15
G01X3.3615Y-3.4532
M16
G05
G00X5.826Y-3.3905
M15
G01X5.826Y-3.922
M16
G05
G00X5.828Y-3.3885
M15
G01X6.3595Y-3.3885
M16
G05
G00X5.828Y-3.924
M15
G01X6.3595Y-3.924
M16
G05
G00X6.3615Y-3.3905
M15
G01X6.3615Y-3.922
M16
G05
G00X5.076Y-3.0155
M15
G01X5.076Y-3.547
M16
G05
G00X5.078Y-3.0135
M15
G01X5.6095Y-3.0135
M16
G05
G00X5.078Y-3.549
M15
G01X5.6095Y-3.549
M16
G05
G00X5.6115Y-3.0155
M15
G01X5.6115Y-3.547
M16
G05
G00X2.076Y-3.9843
M15
G01X2.076Y-4.5157
M16
G05
G00X2.078Y-3.9823
M15
G01X2.6095Y-3.9823
M16
G05
G00X2.078Y-4.5177
M15
G01X2.6095Y-4.5177
M16
G05
G00X2.6115Y-3.9843
M15
G01X2.6115Y-4.5157
M16
G05
G00X3.576Y-2.828
M15
G01X3.576Y-3.3595
M16
G05
G00X3.578Y-2.826
M15
G01X4.1095Y-2.826
M16
G05
G00X3.578Y-3.3615
M15
G01X4.1095Y-3.3615
M16
G05
G00X4.1115Y-2.828
M15
G01X4.1115Y-3.3595
M16
G05
G00X3.576Y-4.328
M15
G01X3.576Y-4.8595
M16
G05
G00X3.578Y-4.326
M15
G01X4.1095Y-4.326
M16
G05
G00X3.578Y-4.8615
M15
G01X4.1095Y-4.8615
M16
G05
G00X4.1115Y-4.328
M15
G01X4.1115Y-4.8595
M16
G05
G00X1.326Y-4.7343
M15
G01X1.326Y-5.2657
M16
G05
G00X1.328Y-4.7323
M15
G01X1.8595Y-4.7323
M16
G05
G00X1.328Y-5.2677
M15
G01X1.8595Y-5.2677
M16
G05
G00X1.8615Y-4.7343
M15
G01X1.8615Y-5.2657
M16
G05
G00X1.326Y-5.4843
M15
G01X1.326Y-6.0157
M16
G05
G00X1.328Y-5.4823
M15
G01X1.8595Y-5.4823
M16
G05
G00X1.328Y-6.0177
M15
G01X1.8595Y-6.0177
M16
G05
G00X1.8615Y-5.4843
M15
G01X1.8615Y-6.0157
M16
G05
G00X2.826Y-2.1718
M15
G01X2.826Y-2.7032
M16
G05
G00X2.828Y-2.1698
M15
G01X3.3595Y-2.1698
M16
G05
G00X2.828Y-2.7052
M15
G01X3.3595Y-2.7052
M16
G05
G00X3.3615Y-2.1718
M15
G01X3.3615Y-2.7032
M16
G05
G00X4.326Y-4.453
M15
G01X4.326Y-4.9845
M16
G05
G00X4.328Y-4.451
M15
G01X4.8595Y-4.451
M16
G05
G00X4.328Y-4.9865
M15
G01X4.8595Y-4.9865
M16
G05
G00X4.8615Y-4.453
M15
G01X4.8615Y-4.9845
M16
G05
G00X3.576Y-3.578
M15
G01X3.576Y-4.1095
M16
G05
G00X3.578Y-3.576
M15
G01X4.1095Y-3.576
M16
G05
G00X3.578Y-4.1115
M15
G01X4.1095Y-4.1115
M16
G05
G00X4.1115Y-3.578
M15
G01X4.1115Y-4.1095
M16
G05
G00X2.826Y-3.6718
M15
G01X2.826Y-4.2032
M16
G05
G00X2.828Y-3.6698
M15
G01X3.3595Y-3.6698
M16
G05
G00X2.828Y-4.2052
M15
G01X3.3595Y-4.2052
M16
G05
G00X3.3615Y-3.6718
M15
G01X3.3615Y-4.2032
M16
G05
G00X2.076Y-5.4843
M15
G01X2.076Y-6.0157
M16
G05
G00X2.078Y-5.4823
M15
G01X2.6095Y-5.4823
M16
G05
G00X2.078Y-6.0177
M15
G01X2.6095Y-6.0177
M16
G05
G00X2.6115Y-5.4843
M15
G01X2.6115Y-6.0157
M16
G05
G00X1.326Y-2.4843
M15
G01X1.326Y-3.0157
M16
G05
G00X1.328Y-2.4823
M15
G01X1.8595Y-2.4823
M16
G05
G00X1.328Y-3.0177
M15
G01X1.8595Y-3.0177
M16
G05
G00X1.8615Y-2.4843
M15
G01X1.8615Y-3.0157
M16
G05
G00X4.326Y-2.953
M15
G01X4.326Y-3.4845
M16
G05
G00X4.328Y-2.951
M15
G01X4.8595Y-2.951
M16
G05
G00X4.328Y-3.4865
M15
G01X4.8595Y-3.4865
M16
G05
G00X4.8615Y-2.953
M15
G01X4.8615Y-3.4845
M16
G05
G00X5.5573Y-5.511
M15
G01X5.2915Y-5.9713
M16
G05
G00X5.2922Y-5.974
M15
G01X5.7525Y-6.2397
M16
G05
G00X5.56Y-5.5103
M15
G01X6.0203Y-5.776
M16
G05
G00X6.021Y-5.7787
M15
G01X5.7552Y-6.239
M16
G05
G00X6.3698Y-5.9797
M15
G01X6.104Y-6.44
M16
G05
G00X6.1047Y-6.4427
M15
G01X6.565Y-6.7085
M16
G05
G00X6.3725Y-5.979
M15
G01X6.8328Y-6.2448
M16
G05
G00X6.8335Y-6.2475
M15
G01X6.5677Y-6.7078
M16
G05
G00X2.826Y-5.1718
M15
G01X2.826Y-5.7032
M16
G05
G00X2.828Y-5.1698
M15
G01X3.3595Y-5.1698
M16
G05
G00X2.828Y-5.7052
M15
G01X3.3595Y-5.7052
M16
G05
G00X3.3615Y-5.1718
M15
G01X3.3615Y-5.7032
M16
G05
G00X2.076Y-4.7343
M15
G01X2.076Y-5.2657
M16
G05
G00X2.078Y-4.7323
M15
G01X2.6095Y-4.7323
M16
G05
G00X2.078Y-5.2677
M15
G01X2.6095Y-5.2677
M16
G05
G00X2.6115Y-4.7343
M15
G01X2.6115Y-5.2657
M16
G05
G00X2.076Y-2.4843
M15
G01X2.076Y-3.0157
M16
G05
G00X2.078Y-2.4823
M15
G01X2.6095Y-2.4823
M16
G05
G00X2.078Y-3.0177
M15
G01X2.6095Y-3.0177
M16
G05
G00X2.6115Y-2.4843
M15
G01X2.6115Y-3.0157
M16
G05
G00X5.076Y-4.5155
M15
G01X5.076Y-5.047
M16
G05
G00X5.078Y-4.5135
M15
G01X5.6095Y-4.5135
M16
G05
G00X5.078Y-5.049
M15
G01X5.6095Y-5.049
M16
G05
G00X5.6115Y-4.5155
M15
G01X5.6115Y-5.047
M16
G05
G00X4.326Y-2.203
M15
G01X4.326Y-2.7345
M16
G05
G00X4.328Y-2.201
M15
G01X4.8595Y-2.201
M16
G05
G00X4.328Y-2.7365
M15
G01X4.8595Y-2.7365
M16
G05
G00X4.8615Y-2.203
M15
G01X4.8615Y-2.7345
M16
G05
G00X5.826Y-4.1405
M15
G01X5.826Y-4.672
M16
G05
G00X5.828Y-4.1385
M15
G01X6.3595Y-4.1385
M16
G05
G00X5.828Y-4.674
M15
G01X6.3595Y-4.674
M16
G05
G00X6.3615Y-4.1405
M15
G01X6.3615Y-4.672
M16
G05
G00X3.576Y-5.078
M15
G01X3.576Y-5.6095
M16
G05
G00X3.578Y-5.076
M15
G01X4.1095Y-5.076
M16
G05
G00X3.578Y-5.6115
M15
G01X4.1095Y-5.6115
M16
G05
G00X4.1115Y-5.078
M15
G01X4.1115Y-5.6095
M16
G05
G00X1.326Y-3.9843
M15
G01X1.326Y-4.5157
M16
G05
G00X1.328Y-3.9823
M15
G01X1.8595Y-3.9823
M16
G05
G00X1.328Y-4.5177
M15
G01X1.8595Y-4.5177
M16
G05
G00X1.8615Y-3.9843
M15
G01X1.8615Y-4.5157
M16
G05
G00X1.326Y-3.2343
M15
G01X1.326Y-3.7657
M16
G05
G00X1.328Y-3.2323
M15
G01X1.8595Y-3.2323
M16
G05
G00X1.328Y-3.7677
M15
G01X1.8595Y-3.7677
M16
G05
G00X1.8615Y-3.2343
M15
G01X1.8615Y-3.7657
M16
G05
G00X5.076Y-3.7655
M15
G01X5.076Y-4.297
M16
G05
G00X5.078Y-3.7635
M15
G01X5.6095Y-3.7635
M16
G05
G00X5.078Y-4.299
M15
G01X5.6095Y-4.299
M16
G05
G00X5.6115Y-3.7655
M15
G01X5.6115Y-4.297
M16
G05
G00X5.076Y-2.2655
M15
G01X5.076Y-2.797
M16
G05
G00X5.078Y-2.2635
M15
G01X5.6095Y-2.2635
M16
G05
G00X5.078Y-2.799
M15
G01X5.6095Y-2.799
M16
G05
G00X5.6115Y-2.2655
M15
G01X5.6115Y-2.797
M16
G05
G00X4.326Y-5.203
M15
G01X4.326Y-5.7345
M16
G05
G00X4.328Y-5.201
M15
G01X4.8595Y-5.201
M16
G05
G00X4.328Y-5.7365
M15
G01X4.8595Y-5.7365
M16
G05
G00X4.8615Y-5.203
M15
G01X4.8615Y-5.7345
M16
G05
G00X2.076Y-3.2343
M15
G01X2.076Y-3.7657
M16
G05
G00X2.078Y-3.2323
M15
G01X2.6095Y-3.2323
M16
G05
G00X2.078Y-3.7677
M15
G01X2.6095Y-3.7677
M16
G05
G00X2.6115Y-3.2343
M15
G01X2.6115Y-3.7657
M16
G05
G00X2.826Y-4.4218
M15
G01X2.826Y-4.9532
M16
G05
G00X2.828Y-4.4198
M15
G01X3.3595Y-4.4198
M16
G05
G00X2.828Y-4.9552
M15
G01X3.3595Y-4.9552
M16
G05
G00X3.3615Y-4.4218
M15
G01X3.3615Y-4.9532
M16
G05
T0
M30
