G04 #@! TF.GenerationSoftware,KiCad,Pcbnew,(5.1.5)-3*
G04 #@! TF.CreationDate,2021-01-08T22:33:02-06:00*
G04 #@! TF.ProjectId,Top Plate,546f7020-506c-4617-9465-2e6b69636164,rev?*
G04 #@! TF.SameCoordinates,Original*
G04 #@! TF.FileFunction,Legend,Top*
G04 #@! TF.FilePolarity,Positive*
%FSLAX46Y46*%
G04 Gerber Fmt 4.6, Leading zero omitted, Abs format (unit mm)*
G04 Created by KiCad (PCBNEW (5.1.5)-3) date 2021-01-08 22:33:02*
%MOMM*%
%LPD*%
G04 APERTURE LIST*
%ADD10C,0.100000*%
%ADD11C,2.302000*%
%ADD12C,1.602000*%
%ADD13O,15.102000X1.602000*%
%ADD14O,1.602000X15.102000*%
G04 APERTURE END LIST*
%LPC*%
D10*
G36*
X171334370Y-133613997D02*
G01*
X171431096Y-133631597D01*
X171525631Y-133658593D01*
X171617066Y-133694725D01*
X171704518Y-133739645D01*
X185126482Y-141488819D01*
X185209110Y-141542095D01*
X185286119Y-141603213D01*
X185356766Y-141671585D01*
X185420371Y-141746553D01*
X185476322Y-141827394D01*
X185524079Y-141913330D01*
X185563184Y-142003533D01*
X185593259Y-142097134D01*
X185614014Y-142193233D01*
X185625250Y-142290903D01*
X185626859Y-142389205D01*
X185618824Y-142487191D01*
X185601224Y-142583917D01*
X185574228Y-142678452D01*
X185538096Y-142769887D01*
X185493176Y-142857339D01*
X178544002Y-154893661D01*
X178490726Y-154976289D01*
X178429608Y-155053298D01*
X178361236Y-155123945D01*
X178286268Y-155187550D01*
X178205427Y-155243501D01*
X178119491Y-155291258D01*
X178029288Y-155330363D01*
X177935687Y-155360438D01*
X177839588Y-155381193D01*
X177741918Y-155392429D01*
X177643616Y-155394038D01*
X177545630Y-155386003D01*
X177448904Y-155368403D01*
X177354369Y-155341407D01*
X177262934Y-155305275D01*
X177175482Y-155260355D01*
X163753518Y-147511181D01*
X163670890Y-147457905D01*
X163593881Y-147396787D01*
X163523234Y-147328415D01*
X163459629Y-147253447D01*
X163403678Y-147172606D01*
X163355921Y-147086670D01*
X163316816Y-146996467D01*
X163286741Y-146902866D01*
X163265986Y-146806767D01*
X163254750Y-146709097D01*
X163253141Y-146610795D01*
X163261176Y-146512809D01*
X163278776Y-146416083D01*
X163305772Y-146321548D01*
X163341904Y-146230113D01*
X163386824Y-146142661D01*
X170335998Y-134106339D01*
X170389274Y-134023711D01*
X170450392Y-133946702D01*
X170518764Y-133876055D01*
X170593732Y-133812450D01*
X170674573Y-133756499D01*
X170760509Y-133708742D01*
X170850712Y-133669637D01*
X170944313Y-133639562D01*
X171040412Y-133618807D01*
X171138082Y-133607571D01*
X171236384Y-133605962D01*
X171334370Y-133613997D01*
G37*
D11*
X175660000Y-132580000D03*
X167290000Y-173050000D03*
X141960000Y-131850000D03*
X126180000Y-88890000D03*
X107150000Y-140170000D03*
X107150000Y-101760000D03*
X107150000Y-64030000D03*
X88100000Y-139040000D03*
X88110000Y-101310000D03*
X88110000Y-63250000D03*
X50010000Y-148930000D03*
X50000000Y-110330000D03*
X50000000Y-71470000D03*
D12*
X161860579Y-151867277D02*
X173551921Y-158617277D01*
X155060579Y-163645223D02*
X166751921Y-170395223D01*
X161792277Y-151885579D02*
X155042277Y-163576921D01*
X173570223Y-158685579D02*
X166820223Y-170376921D01*
X166426473Y-132491829D02*
X159676473Y-144183171D01*
X154648527Y-125691829D02*
X147898527Y-137383171D01*
X147916829Y-137451473D02*
X159608171Y-144201473D01*
X154716829Y-125673527D02*
X166408171Y-132423527D01*
X141223079Y-139961027D02*
X152914421Y-146711027D01*
X134423079Y-151738973D02*
X146114421Y-158488973D01*
X141154777Y-139979329D02*
X134404777Y-151670671D01*
X152932723Y-146779329D02*
X146182723Y-158470671D01*
D13*
X154781250Y-105118750D03*
X154781250Y-118718750D03*
D14*
X147981250Y-111918750D03*
X161581250Y-111918750D03*
X161581250Y-92868750D03*
X147981250Y-92868750D03*
D13*
X154781250Y-99668750D03*
X154781250Y-86068750D03*
X135731250Y-114643750D03*
X135731250Y-128243750D03*
D14*
X128931250Y-121443750D03*
X142531250Y-121443750D03*
X142531250Y-102393750D03*
X128931250Y-102393750D03*
D13*
X135731250Y-109193750D03*
X135731250Y-95593750D03*
X135731250Y-76543750D03*
X135731250Y-90143750D03*
D14*
X128931250Y-83343750D03*
X142531250Y-83343750D03*
X142531250Y-64293750D03*
X128931250Y-64293750D03*
D13*
X135731250Y-71093750D03*
X135731250Y-57493750D03*
X116681250Y-55906250D03*
X116681250Y-69506250D03*
D14*
X109881250Y-62706250D03*
X123481250Y-62706250D03*
X123481250Y-81756250D03*
X109881250Y-81756250D03*
D13*
X116681250Y-88556250D03*
X116681250Y-74956250D03*
X116681250Y-94006250D03*
X116681250Y-107606250D03*
D14*
X109881250Y-100806250D03*
X123481250Y-100806250D03*
X123481250Y-119856250D03*
X109881250Y-119856250D03*
D13*
X116681250Y-126656250D03*
X116681250Y-113056250D03*
D14*
X123481250Y-138906250D03*
X109881250Y-138906250D03*
D13*
X116681250Y-145706250D03*
X116681250Y-132106250D03*
X97631250Y-52731250D03*
X97631250Y-66331250D03*
D14*
X90831250Y-59531250D03*
X104431250Y-59531250D03*
X104431250Y-78581250D03*
X90831250Y-78581250D03*
D13*
X97631250Y-85381250D03*
X97631250Y-71781250D03*
D14*
X104431250Y-97631250D03*
X90831250Y-97631250D03*
D13*
X97631250Y-104431250D03*
X97631250Y-90831250D03*
D14*
X104431250Y-116681250D03*
X90831250Y-116681250D03*
D13*
X97631250Y-123481250D03*
X97631250Y-109881250D03*
D14*
X104431250Y-135731250D03*
X90831250Y-135731250D03*
D13*
X97631250Y-142531250D03*
X97631250Y-128931250D03*
D14*
X85381250Y-138112500D03*
X71781250Y-138112500D03*
D13*
X78581250Y-144912500D03*
X78581250Y-131312500D03*
X78581250Y-112262500D03*
X78581250Y-125862500D03*
D14*
X71781250Y-119062500D03*
X85381250Y-119062500D03*
X85381250Y-100012500D03*
X71781250Y-100012500D03*
D13*
X78581250Y-106812500D03*
X78581250Y-93212500D03*
D14*
X85381250Y-80962500D03*
X71781250Y-80962500D03*
D13*
X78581250Y-87762500D03*
X78581250Y-74162500D03*
D14*
X85381250Y-61912500D03*
X71781250Y-61912500D03*
D13*
X78581250Y-68712500D03*
X78581250Y-55112500D03*
D14*
X66331250Y-146050000D03*
X52731250Y-146050000D03*
D13*
X59531250Y-152850000D03*
X59531250Y-139250000D03*
X40481250Y-139250000D03*
X40481250Y-152850000D03*
D14*
X33681250Y-146050000D03*
X47281250Y-146050000D03*
X66331250Y-127000000D03*
X52731250Y-127000000D03*
D13*
X59531250Y-133800000D03*
X59531250Y-120200000D03*
D14*
X47281250Y-127000000D03*
X33681250Y-127000000D03*
D13*
X40481250Y-133800000D03*
X40481250Y-120200000D03*
D14*
X66331250Y-107950000D03*
X52731250Y-107950000D03*
D13*
X59531250Y-114750000D03*
X59531250Y-101150000D03*
D14*
X47281250Y-107950000D03*
X33681250Y-107950000D03*
D13*
X40481250Y-114750000D03*
X40481250Y-101150000D03*
D14*
X66331250Y-88900000D03*
X52731250Y-88900000D03*
D13*
X59531250Y-95700000D03*
X59531250Y-82100000D03*
X40481250Y-82100000D03*
X40481250Y-95700000D03*
D14*
X33681250Y-88900000D03*
X47281250Y-88900000D03*
X66331250Y-69850000D03*
X52731250Y-69850000D03*
D13*
X59531250Y-76650000D03*
X59531250Y-63050000D03*
X40481250Y-63050000D03*
X40481250Y-76650000D03*
D14*
X33681250Y-69850000D03*
X47281250Y-69850000D03*
M02*
