G04 #@! TF.GenerationSoftware,KiCad,Pcbnew,(5.1.5)-3*
G04 #@! TF.CreationDate,2021-01-08T22:33:02-06:00*
G04 #@! TF.ProjectId,Top Plate,546f7020-506c-4617-9465-2e6b69636164,rev?*
G04 #@! TF.SameCoordinates,Original*
G04 #@! TF.FileFunction,Copper,L2,Bot*
G04 #@! TF.FilePolarity,Positive*
%FSLAX46Y46*%
G04 Gerber Fmt 4.6, Leading zero omitted, Abs format (unit mm)*
G04 Created by KiCad (PCBNEW (5.1.5)-3) date 2021-01-08 22:33:02*
%MOMM*%
%LPD*%
G04 APERTURE LIST*
%ADD10C,0.100000*%
%ADD11C,1.500000*%
%ADD12O,15.000000X1.500000*%
%ADD13O,1.500000X15.000000*%
%ADD14C,0.254000*%
G04 APERTURE END LIST*
G04 #@! TA.AperFunction,SMDPad,CuDef*
D10*
G36*
X171349847Y-133681257D02*
G01*
X171445953Y-133698744D01*
X171539882Y-133725567D01*
X171630730Y-133761467D01*
X171717621Y-133806099D01*
X185062379Y-141510699D01*
X185144477Y-141563633D01*
X185220992Y-141624360D01*
X185291186Y-141692293D01*
X185354383Y-141766780D01*
X185409975Y-141847102D01*
X185457426Y-141932487D01*
X185496280Y-142022111D01*
X185526162Y-142115113D01*
X185546784Y-142210595D01*
X185557948Y-142307639D01*
X185559546Y-142405310D01*
X185551563Y-142502667D01*
X185534076Y-142598773D01*
X185507253Y-142692702D01*
X185471353Y-142783550D01*
X185426721Y-142870441D01*
X178522121Y-154829559D01*
X178469187Y-154911657D01*
X178408460Y-154988172D01*
X178340527Y-155058366D01*
X178266040Y-155121563D01*
X178185718Y-155177155D01*
X178100333Y-155224606D01*
X178010709Y-155263460D01*
X177917707Y-155293342D01*
X177822225Y-155313964D01*
X177725181Y-155325128D01*
X177627510Y-155326726D01*
X177530153Y-155318743D01*
X177434047Y-155301256D01*
X177340118Y-155274433D01*
X177249270Y-155238533D01*
X177162379Y-155193901D01*
X163817621Y-147489301D01*
X163735523Y-147436367D01*
X163659008Y-147375640D01*
X163588814Y-147307707D01*
X163525617Y-147233220D01*
X163470025Y-147152898D01*
X163422574Y-147067513D01*
X163383720Y-146977889D01*
X163353838Y-146884887D01*
X163333216Y-146789405D01*
X163322052Y-146692361D01*
X163320454Y-146594690D01*
X163328437Y-146497333D01*
X163345924Y-146401227D01*
X163372747Y-146307298D01*
X163408647Y-146216450D01*
X163453279Y-146129559D01*
X170357879Y-134170441D01*
X170410813Y-134088343D01*
X170471540Y-134011828D01*
X170539473Y-133941634D01*
X170613960Y-133878437D01*
X170694282Y-133822845D01*
X170779667Y-133775394D01*
X170869291Y-133736540D01*
X170962293Y-133706658D01*
X171057775Y-133686036D01*
X171154819Y-133674872D01*
X171252490Y-133673274D01*
X171349847Y-133681257D01*
G37*
G04 #@! TD.AperFunction*
D11*
X161860579Y-151867277D02*
X173551921Y-158617277D01*
X155060579Y-163645223D02*
X166751921Y-170395223D01*
X161792277Y-151885579D02*
X155042277Y-163576921D01*
X173570223Y-158685579D02*
X166820223Y-170376921D01*
X166426473Y-132491829D02*
X159676473Y-144183171D01*
X154648527Y-125691829D02*
X147898527Y-137383171D01*
X147916829Y-137451473D02*
X159608171Y-144201473D01*
X154716829Y-125673527D02*
X166408171Y-132423527D01*
X141223079Y-139961027D02*
X152914421Y-146711027D01*
X134423079Y-151738973D02*
X146114421Y-158488973D01*
X141154777Y-139979329D02*
X134404777Y-151670671D01*
X152932723Y-146779329D02*
X146182723Y-158470671D01*
D12*
X154781250Y-105118750D03*
X154781250Y-118718750D03*
D13*
X147981250Y-111918750D03*
X161581250Y-111918750D03*
X161581250Y-92868750D03*
X147981250Y-92868750D03*
D12*
X154781250Y-99668750D03*
X154781250Y-86068750D03*
X135731250Y-114643750D03*
X135731250Y-128243750D03*
D13*
X128931250Y-121443750D03*
X142531250Y-121443750D03*
X142531250Y-102393750D03*
X128931250Y-102393750D03*
D12*
X135731250Y-109193750D03*
X135731250Y-95593750D03*
X135731250Y-76543750D03*
X135731250Y-90143750D03*
D13*
X128931250Y-83343750D03*
X142531250Y-83343750D03*
X142531250Y-64293750D03*
X128931250Y-64293750D03*
D12*
X135731250Y-71093750D03*
X135731250Y-57493750D03*
X116681250Y-55906250D03*
X116681250Y-69506250D03*
D13*
X109881250Y-62706250D03*
X123481250Y-62706250D03*
X123481250Y-81756250D03*
X109881250Y-81756250D03*
D12*
X116681250Y-88556250D03*
X116681250Y-74956250D03*
X116681250Y-94006250D03*
X116681250Y-107606250D03*
D13*
X109881250Y-100806250D03*
X123481250Y-100806250D03*
X123481250Y-119856250D03*
X109881250Y-119856250D03*
D12*
X116681250Y-126656250D03*
X116681250Y-113056250D03*
D13*
X123481250Y-138906250D03*
X109881250Y-138906250D03*
D12*
X116681250Y-145706250D03*
X116681250Y-132106250D03*
X97631250Y-52731250D03*
X97631250Y-66331250D03*
D13*
X90831250Y-59531250D03*
X104431250Y-59531250D03*
X104431250Y-78581250D03*
X90831250Y-78581250D03*
D12*
X97631250Y-85381250D03*
X97631250Y-71781250D03*
D13*
X104431250Y-97631250D03*
X90831250Y-97631250D03*
D12*
X97631250Y-104431250D03*
X97631250Y-90831250D03*
D13*
X104431250Y-116681250D03*
X90831250Y-116681250D03*
D12*
X97631250Y-123481250D03*
X97631250Y-109881250D03*
D13*
X104431250Y-135731250D03*
X90831250Y-135731250D03*
D12*
X97631250Y-142531250D03*
X97631250Y-128931250D03*
D13*
X85381250Y-138112500D03*
X71781250Y-138112500D03*
D12*
X78581250Y-144912500D03*
X78581250Y-131312500D03*
X78581250Y-112262500D03*
X78581250Y-125862500D03*
D13*
X71781250Y-119062500D03*
X85381250Y-119062500D03*
X85381250Y-100012500D03*
X71781250Y-100012500D03*
D12*
X78581250Y-106812500D03*
X78581250Y-93212500D03*
D13*
X85381250Y-80962500D03*
X71781250Y-80962500D03*
D12*
X78581250Y-87762500D03*
X78581250Y-74162500D03*
D13*
X85381250Y-61912500D03*
X71781250Y-61912500D03*
D12*
X78581250Y-68712500D03*
X78581250Y-55112500D03*
D13*
X66331250Y-146050000D03*
X52731250Y-146050000D03*
D12*
X59531250Y-152850000D03*
X59531250Y-139250000D03*
X40481250Y-139250000D03*
X40481250Y-152850000D03*
D13*
X33681250Y-146050000D03*
X47281250Y-146050000D03*
X66331250Y-127000000D03*
X52731250Y-127000000D03*
D12*
X59531250Y-133800000D03*
X59531250Y-120200000D03*
D13*
X47281250Y-127000000D03*
X33681250Y-127000000D03*
D12*
X40481250Y-133800000D03*
X40481250Y-120200000D03*
D13*
X66331250Y-107950000D03*
X52731250Y-107950000D03*
D12*
X59531250Y-114750000D03*
X59531250Y-101150000D03*
D13*
X47281250Y-107950000D03*
X33681250Y-107950000D03*
D12*
X40481250Y-114750000D03*
X40481250Y-101150000D03*
D13*
X66331250Y-88900000D03*
X52731250Y-88900000D03*
D12*
X59531250Y-95700000D03*
X59531250Y-82100000D03*
X40481250Y-82100000D03*
X40481250Y-95700000D03*
D13*
X33681250Y-88900000D03*
X47281250Y-88900000D03*
X66331250Y-69850000D03*
X52731250Y-69850000D03*
D12*
X59531250Y-76650000D03*
X59531250Y-63050000D03*
X40481250Y-63050000D03*
X40481250Y-76650000D03*
D13*
X33681250Y-69850000D03*
X47281250Y-69850000D03*
D14*
G36*
X134891393Y-48162738D02*
G01*
X135499536Y-48285097D01*
X136076863Y-48525134D01*
X136561213Y-48840925D01*
X144678890Y-54936114D01*
X144688076Y-54941694D01*
X144912967Y-55099390D01*
X145073175Y-55266677D01*
X145197840Y-55461901D01*
X145282211Y-55677618D01*
X145326472Y-55924559D01*
X145330011Y-56013407D01*
X145350027Y-82042925D01*
X145359651Y-82139882D01*
X145360397Y-82142334D01*
X145371955Y-82250292D01*
X145383343Y-82305228D01*
X145393343Y-82360451D01*
X145395924Y-82369297D01*
X145451342Y-82554434D01*
X145474008Y-82609797D01*
X145495896Y-82665465D01*
X145500146Y-82673641D01*
X145590469Y-82844489D01*
X145623435Y-82894362D01*
X145655741Y-82944752D01*
X145661499Y-82951947D01*
X145783287Y-83101996D01*
X145825334Y-83144538D01*
X145866787Y-83187668D01*
X145873832Y-83193608D01*
X146022444Y-83317144D01*
X146071973Y-83350722D01*
X146120996Y-83384967D01*
X146129061Y-83389426D01*
X146298838Y-83481743D01*
X146353926Y-83505054D01*
X146408689Y-83529134D01*
X146417466Y-83531941D01*
X146601942Y-83589524D01*
X146660485Y-83601685D01*
X146718902Y-83614674D01*
X146728058Y-83615722D01*
X146858322Y-83629725D01*
X146860967Y-83630529D01*
X146957925Y-83640138D01*
X162977515Y-83649881D01*
X163269677Y-83678527D01*
X163519466Y-83753943D01*
X163749848Y-83876440D01*
X163952049Y-84041351D01*
X164118371Y-84242399D01*
X164242468Y-84471912D01*
X164319628Y-84721176D01*
X164350000Y-85010147D01*
X164339992Y-122042240D01*
X164341567Y-122058276D01*
X164396625Y-123192388D01*
X164399755Y-123222787D01*
X164402406Y-123253186D01*
X164402734Y-123255467D01*
X164616675Y-124725011D01*
X164623488Y-124758849D01*
X164630192Y-124792760D01*
X164630764Y-124794992D01*
X165002164Y-126232835D01*
X165012640Y-126265896D01*
X165022918Y-126298726D01*
X165023724Y-126300872D01*
X165023728Y-126300885D01*
X165023733Y-126300897D01*
X165548241Y-127690206D01*
X165562218Y-127721923D01*
X165575991Y-127753472D01*
X165577021Y-127755513D01*
X165577028Y-127755529D01*
X165577036Y-127755543D01*
X166248521Y-129080078D01*
X166268852Y-129115317D01*
X166273432Y-129124820D01*
X166278279Y-129132658D01*
X166452895Y-129410697D01*
X166483976Y-129450868D01*
X166513366Y-129492292D01*
X166519455Y-129499209D01*
X166823396Y-129839684D01*
X166867417Y-129880227D01*
X166910828Y-129921343D01*
X166918144Y-129926946D01*
X167282429Y-130201901D01*
X167333461Y-130233106D01*
X167384057Y-130265023D01*
X167392323Y-130269098D01*
X167803077Y-130468060D01*
X167859212Y-130488763D01*
X167915029Y-130510240D01*
X167923928Y-130512632D01*
X168365504Y-130628022D01*
X168424541Y-130637419D01*
X168483517Y-130647654D01*
X168492712Y-130648272D01*
X168936419Y-130674980D01*
X168956768Y-130676946D01*
X174984902Y-130665626D01*
X174699855Y-130783696D01*
X174367863Y-131005526D01*
X174085526Y-131287863D01*
X173863696Y-131619855D01*
X173710896Y-131988746D01*
X173633000Y-132380358D01*
X173633000Y-132779642D01*
X173710896Y-133171254D01*
X173863696Y-133540145D01*
X174085526Y-133872137D01*
X174367863Y-134154474D01*
X174699855Y-134376304D01*
X175068746Y-134529104D01*
X175460358Y-134607000D01*
X175859642Y-134607000D01*
X176251254Y-134529104D01*
X176620145Y-134376304D01*
X176952137Y-134154474D01*
X177234474Y-133872137D01*
X177456304Y-133540145D01*
X177609104Y-133171254D01*
X177687000Y-132779642D01*
X177687000Y-132380358D01*
X177609104Y-131988746D01*
X177456304Y-131619855D01*
X177234474Y-131287863D01*
X176952137Y-131005526D01*
X176620145Y-130783696D01*
X176329005Y-130663101D01*
X177403595Y-130661083D01*
X177708407Y-130680967D01*
X177962391Y-130748702D01*
X178198385Y-130864478D01*
X178407393Y-131023886D01*
X178581458Y-131220856D01*
X178713951Y-131447886D01*
X178799822Y-131696322D01*
X178839460Y-131983166D01*
X178840163Y-132014700D01*
X178840225Y-132015212D01*
X178840198Y-132016172D01*
X178848543Y-132356634D01*
X178849057Y-132361732D01*
X178853489Y-132422701D01*
X178984859Y-133468785D01*
X178987966Y-133484044D01*
X178989460Y-133499541D01*
X179004833Y-133566893D01*
X179292923Y-134581068D01*
X179298304Y-134595686D01*
X179302124Y-134610774D01*
X179327507Y-134675025D01*
X179765687Y-135633955D01*
X179773218Y-135647593D01*
X179779276Y-135661928D01*
X179814086Y-135721601D01*
X180392273Y-136603217D01*
X180401779Y-136615557D01*
X180409936Y-136628812D01*
X180453356Y-136682512D01*
X180453372Y-136682533D01*
X180453378Y-136682539D01*
X181116874Y-137420517D01*
X181118476Y-137423158D01*
X181206293Y-137519025D01*
X181284858Y-137576651D01*
X181312661Y-137593116D01*
X181312675Y-137593126D01*
X181312690Y-137593134D01*
X185875466Y-140295252D01*
X186426837Y-140731249D01*
X186869845Y-141250591D01*
X187203543Y-141846091D01*
X187415219Y-142495067D01*
X187496811Y-143172793D01*
X187445210Y-143853468D01*
X187262382Y-144511154D01*
X186944373Y-145142478D01*
X186943370Y-145143888D01*
X170201745Y-174379268D01*
X169768752Y-174926838D01*
X169249410Y-175369846D01*
X168653913Y-175703542D01*
X168004935Y-175915220D01*
X167327208Y-175996812D01*
X166646533Y-175945211D01*
X165988847Y-175762383D01*
X165356227Y-175443721D01*
X145179890Y-163667942D01*
X153653556Y-163667942D01*
X153697998Y-163937119D01*
X153710513Y-163970371D01*
X153716300Y-164005421D01*
X153812401Y-164260756D01*
X153956469Y-164492436D01*
X154142968Y-164691559D01*
X154309158Y-164810649D01*
X165944862Y-171528527D01*
X165715526Y-171757863D01*
X165493696Y-172089855D01*
X165340896Y-172458746D01*
X165263000Y-172850358D01*
X165263000Y-173249642D01*
X165340896Y-173641254D01*
X165493696Y-174010145D01*
X165715526Y-174342137D01*
X165997863Y-174624474D01*
X166329855Y-174846304D01*
X166698746Y-174999104D01*
X167090358Y-175077000D01*
X167489642Y-175077000D01*
X167881254Y-174999104D01*
X168250145Y-174846304D01*
X168582137Y-174624474D01*
X168864474Y-174342137D01*
X169086304Y-174010145D01*
X169239104Y-173641254D01*
X169317000Y-173249642D01*
X169317000Y-172850358D01*
X169239104Y-172458746D01*
X169086304Y-172089855D01*
X168864474Y-171757863D01*
X168582137Y-171475526D01*
X168250145Y-171253696D01*
X167976921Y-171140522D01*
X167985649Y-171128342D01*
X174803686Y-159319158D01*
X174888066Y-159132928D01*
X174950017Y-158867233D01*
X174958944Y-158594558D01*
X174914502Y-158325381D01*
X174901987Y-158292130D01*
X174896200Y-158257078D01*
X174800099Y-158001743D01*
X174656031Y-157770063D01*
X174469532Y-157570940D01*
X174303342Y-157451850D01*
X162494157Y-150633814D01*
X162307927Y-150549434D01*
X162042232Y-150487483D01*
X161769558Y-150478556D01*
X161500381Y-150522998D01*
X161467130Y-150535513D01*
X161432078Y-150541300D01*
X161176743Y-150637401D01*
X160945063Y-150781469D01*
X160745940Y-150967968D01*
X160626850Y-151134158D01*
X153808814Y-162943343D01*
X153724434Y-163129573D01*
X153662483Y-163395268D01*
X153653556Y-163667942D01*
X145179890Y-163667942D01*
X124987742Y-151882936D01*
X124788128Y-151761692D01*
X133016056Y-151761692D01*
X133060498Y-152030869D01*
X133073013Y-152064121D01*
X133078800Y-152099171D01*
X133174901Y-152354506D01*
X133318969Y-152586186D01*
X133505468Y-152785309D01*
X133671658Y-152904399D01*
X145480842Y-159722436D01*
X145667072Y-159806816D01*
X145932767Y-159868767D01*
X146205442Y-159877694D01*
X146474619Y-159833252D01*
X146507871Y-159820737D01*
X146542921Y-159814950D01*
X146798256Y-159718849D01*
X147029936Y-159574781D01*
X147229059Y-159388282D01*
X147348149Y-159222092D01*
X154166186Y-147412908D01*
X154250566Y-147226678D01*
X154312517Y-146960983D01*
X154319945Y-146734093D01*
X162685346Y-146734093D01*
X162737508Y-147050033D01*
X162850304Y-147349725D01*
X163019401Y-147621654D01*
X163238298Y-147855368D01*
X163498585Y-148041887D01*
X176843343Y-155746487D01*
X177135017Y-155878643D01*
X177446868Y-155951356D01*
X177766913Y-155961834D01*
X178082853Y-155909672D01*
X178382545Y-155796876D01*
X178654474Y-155627779D01*
X178888188Y-155408882D01*
X179074707Y-155148595D01*
X185979307Y-143189477D01*
X186111463Y-142897803D01*
X186184176Y-142585952D01*
X186194654Y-142265907D01*
X186142492Y-141949967D01*
X186029696Y-141650275D01*
X185860599Y-141378346D01*
X185641702Y-141144632D01*
X185381415Y-140958113D01*
X172036657Y-133253513D01*
X171744983Y-133121357D01*
X171433132Y-133048644D01*
X171113087Y-133038166D01*
X170797147Y-133090328D01*
X170497455Y-133203124D01*
X170225526Y-133372221D01*
X169991812Y-133591118D01*
X169805293Y-133851405D01*
X162900693Y-145810523D01*
X162768537Y-146102197D01*
X162695824Y-146414048D01*
X162685346Y-146734093D01*
X154319945Y-146734093D01*
X154321444Y-146688308D01*
X154277002Y-146419131D01*
X154264487Y-146385880D01*
X154258700Y-146350828D01*
X154162599Y-146095493D01*
X154018531Y-145863813D01*
X153832032Y-145664690D01*
X153665842Y-145545600D01*
X141856657Y-138727564D01*
X141670427Y-138643184D01*
X141404732Y-138581233D01*
X141132058Y-138572306D01*
X140862881Y-138616748D01*
X140829630Y-138629263D01*
X140794578Y-138635050D01*
X140539243Y-138731151D01*
X140307563Y-138875219D01*
X140108440Y-139061718D01*
X139989350Y-139227908D01*
X133171314Y-151037093D01*
X133086934Y-151223323D01*
X133024983Y-151489018D01*
X133016056Y-151761692D01*
X124788128Y-151761692D01*
X124325243Y-151480540D01*
X124295741Y-151465068D01*
X124266657Y-151448886D01*
X123104970Y-150895017D01*
X123104964Y-150895014D01*
X123028056Y-150864112D01*
X121806104Y-150460207D01*
X121725930Y-150439187D01*
X120463005Y-150191622D01*
X120462990Y-150191618D01*
X120380814Y-150180813D01*
X119106753Y-150094161D01*
X119084487Y-150091966D01*
X92467630Y-150089998D01*
X92462921Y-150090461D01*
X91800824Y-150099899D01*
X91786362Y-150100686D01*
X91771855Y-150100948D01*
X91764958Y-150101387D01*
X89827155Y-150234626D01*
X89804268Y-150237125D01*
X89781334Y-150239388D01*
X89774494Y-150240377D01*
X87853619Y-150528595D01*
X87831003Y-150532923D01*
X87808327Y-150537017D01*
X87801588Y-150538552D01*
X85910014Y-150979895D01*
X85887864Y-150986010D01*
X85865544Y-150991921D01*
X85858951Y-150993992D01*
X84021090Y-151581706D01*
X84002257Y-151586929D01*
X71908613Y-156259728D01*
X69660710Y-156747519D01*
X67356388Y-157093682D01*
X65032535Y-157290589D01*
X63141374Y-157340000D01*
X32532279Y-157340000D01*
X31851874Y-157273286D01*
X31228430Y-157085057D01*
X30653427Y-156779323D01*
X30148752Y-156367721D01*
X29733638Y-155865933D01*
X29423896Y-155293077D01*
X29231318Y-154670961D01*
X29160000Y-153992416D01*
X29159950Y-139231964D01*
X32296250Y-139231964D01*
X32296251Y-152868037D01*
X32316291Y-153071507D01*
X32395487Y-153332581D01*
X32524094Y-153573188D01*
X32697170Y-153784081D01*
X32724629Y-153806616D01*
X32747169Y-153834081D01*
X32958062Y-154007157D01*
X33198669Y-154135764D01*
X33459743Y-154214960D01*
X33663213Y-154235000D01*
X47299287Y-154235000D01*
X47502757Y-154214960D01*
X47763831Y-154135764D01*
X48004438Y-154007157D01*
X48215331Y-153834081D01*
X48237869Y-153806619D01*
X48265331Y-153784081D01*
X48438407Y-153573188D01*
X48567014Y-153332581D01*
X48646210Y-153071507D01*
X48666250Y-152868037D01*
X48666250Y-150452861D01*
X48717863Y-150504474D01*
X49049855Y-150726304D01*
X49418746Y-150879104D01*
X49810358Y-150957000D01*
X50209642Y-150957000D01*
X50601254Y-150879104D01*
X50970145Y-150726304D01*
X51302137Y-150504474D01*
X51346251Y-150460360D01*
X51346251Y-152868037D01*
X51366291Y-153071507D01*
X51445487Y-153332581D01*
X51574094Y-153573188D01*
X51747170Y-153784081D01*
X51774629Y-153806616D01*
X51797169Y-153834081D01*
X52008062Y-154007157D01*
X52248669Y-154135764D01*
X52509743Y-154214960D01*
X52713213Y-154235000D01*
X66349287Y-154235000D01*
X66552757Y-154214960D01*
X66813831Y-154135764D01*
X67054438Y-154007157D01*
X67265331Y-153834081D01*
X67287869Y-153806619D01*
X67315331Y-153784081D01*
X67488407Y-153573188D01*
X67617014Y-153332581D01*
X67696210Y-153071507D01*
X67716250Y-152868037D01*
X67716250Y-139231963D01*
X67696210Y-139028493D01*
X67617014Y-138767419D01*
X67488407Y-138526812D01*
X67315330Y-138315919D01*
X67287871Y-138293384D01*
X67265331Y-138265919D01*
X67054438Y-138092843D01*
X66813831Y-137964236D01*
X66552757Y-137885040D01*
X66349287Y-137865000D01*
X52713213Y-137865000D01*
X52509743Y-137885040D01*
X52248669Y-137964236D01*
X52008062Y-138092843D01*
X51797169Y-138265919D01*
X51774629Y-138293384D01*
X51747169Y-138315920D01*
X51574093Y-138526813D01*
X51445486Y-138767420D01*
X51366290Y-139028494D01*
X51346250Y-139231964D01*
X51346251Y-147399640D01*
X51302137Y-147355526D01*
X50970145Y-147133696D01*
X50601254Y-146980896D01*
X50209642Y-146903000D01*
X49810358Y-146903000D01*
X49418746Y-146980896D01*
X49049855Y-147133696D01*
X48717863Y-147355526D01*
X48666250Y-147407139D01*
X48666250Y-139231963D01*
X48646210Y-139028493D01*
X48567014Y-138767419D01*
X48438407Y-138526812D01*
X48265330Y-138315919D01*
X48237871Y-138293384D01*
X48215331Y-138265919D01*
X48004438Y-138092843D01*
X47763831Y-137964236D01*
X47502757Y-137885040D01*
X47299287Y-137865000D01*
X33663213Y-137865000D01*
X33459743Y-137885040D01*
X33198669Y-137964236D01*
X32958062Y-138092843D01*
X32747169Y-138265919D01*
X32724629Y-138293384D01*
X32697169Y-138315920D01*
X32524093Y-138526813D01*
X32395486Y-138767420D01*
X32316290Y-139028494D01*
X32296250Y-139231964D01*
X29159950Y-139231964D01*
X29159886Y-120181964D01*
X32296250Y-120181964D01*
X32296251Y-133818037D01*
X32316291Y-134021507D01*
X32395487Y-134282581D01*
X32524094Y-134523188D01*
X32697170Y-134734081D01*
X32724629Y-134756616D01*
X32747169Y-134784081D01*
X32958062Y-134957157D01*
X33198669Y-135085764D01*
X33459743Y-135164960D01*
X33663213Y-135185000D01*
X47299287Y-135185000D01*
X47502757Y-135164960D01*
X47763831Y-135085764D01*
X48004438Y-134957157D01*
X48215331Y-134784081D01*
X48237869Y-134756619D01*
X48265331Y-134734081D01*
X48438407Y-134523188D01*
X48567014Y-134282581D01*
X48646210Y-134021507D01*
X48666250Y-133818037D01*
X48666250Y-120181964D01*
X51346250Y-120181964D01*
X51346251Y-133818037D01*
X51366291Y-134021507D01*
X51445487Y-134282581D01*
X51574094Y-134523188D01*
X51747170Y-134734081D01*
X51774629Y-134756616D01*
X51797169Y-134784081D01*
X52008062Y-134957157D01*
X52248669Y-135085764D01*
X52509743Y-135164960D01*
X52713213Y-135185000D01*
X66349287Y-135185000D01*
X66552757Y-135164960D01*
X66813831Y-135085764D01*
X67054438Y-134957157D01*
X67265331Y-134784081D01*
X67287869Y-134756619D01*
X67315331Y-134734081D01*
X67488407Y-134523188D01*
X67617014Y-134282581D01*
X67696210Y-134021507D01*
X67716250Y-133818037D01*
X67716250Y-131294464D01*
X70396250Y-131294464D01*
X70396251Y-144930537D01*
X70416291Y-145134007D01*
X70495487Y-145395081D01*
X70624094Y-145635688D01*
X70797170Y-145846581D01*
X70824629Y-145869116D01*
X70847169Y-145896581D01*
X71058062Y-146069657D01*
X71298669Y-146198264D01*
X71559743Y-146277460D01*
X71763213Y-146297500D01*
X85399287Y-146297500D01*
X85602757Y-146277460D01*
X85863831Y-146198264D01*
X86104438Y-146069657D01*
X86315331Y-145896581D01*
X86337869Y-145869119D01*
X86365331Y-145846581D01*
X86538407Y-145635688D01*
X86667014Y-145395081D01*
X86746210Y-145134007D01*
X86766250Y-144930537D01*
X86766250Y-140572861D01*
X86807863Y-140614474D01*
X87139855Y-140836304D01*
X87508746Y-140989104D01*
X87900358Y-141067000D01*
X88299642Y-141067000D01*
X88691254Y-140989104D01*
X89060145Y-140836304D01*
X89392137Y-140614474D01*
X89446251Y-140560360D01*
X89446251Y-142549287D01*
X89466291Y-142752757D01*
X89545487Y-143013831D01*
X89674094Y-143254438D01*
X89847170Y-143465331D01*
X89874629Y-143487866D01*
X89897169Y-143515331D01*
X90108062Y-143688407D01*
X90348669Y-143817014D01*
X90609743Y-143896210D01*
X90813213Y-143916250D01*
X104449287Y-143916250D01*
X104652757Y-143896210D01*
X104913831Y-143817014D01*
X105154438Y-143688407D01*
X105365331Y-143515331D01*
X105387869Y-143487869D01*
X105415331Y-143465331D01*
X105588407Y-143254438D01*
X105717014Y-143013831D01*
X105796210Y-142752757D01*
X105816250Y-142549287D01*
X105816250Y-141702861D01*
X105857863Y-141744474D01*
X106189855Y-141966304D01*
X106558746Y-142119104D01*
X106950358Y-142197000D01*
X107349642Y-142197000D01*
X107741254Y-142119104D01*
X108110145Y-141966304D01*
X108442137Y-141744474D01*
X108496251Y-141690360D01*
X108496251Y-145724287D01*
X108516291Y-145927757D01*
X108595487Y-146188831D01*
X108724094Y-146429438D01*
X108897170Y-146640331D01*
X108924629Y-146662866D01*
X108947169Y-146690331D01*
X109158062Y-146863407D01*
X109398669Y-146992014D01*
X109659743Y-147071210D01*
X109863213Y-147091250D01*
X123499287Y-147091250D01*
X123702757Y-147071210D01*
X123963831Y-146992014D01*
X124204438Y-146863407D01*
X124415331Y-146690331D01*
X124437869Y-146662869D01*
X124465331Y-146640331D01*
X124638407Y-146429438D01*
X124767014Y-146188831D01*
X124846210Y-145927757D01*
X124866250Y-145724287D01*
X124866250Y-137474192D01*
X146509806Y-137474192D01*
X146554248Y-137743369D01*
X146566763Y-137776621D01*
X146572550Y-137811671D01*
X146668651Y-138067006D01*
X146812719Y-138298686D01*
X146999218Y-138497809D01*
X147165408Y-138616899D01*
X158974592Y-145434936D01*
X159160822Y-145519316D01*
X159426517Y-145581267D01*
X159699192Y-145590194D01*
X159968369Y-145545752D01*
X160001621Y-145533237D01*
X160036671Y-145527450D01*
X160292006Y-145431349D01*
X160523686Y-145287281D01*
X160722809Y-145100782D01*
X160841899Y-144934592D01*
X167659936Y-133125408D01*
X167744316Y-132939178D01*
X167806267Y-132673483D01*
X167815194Y-132400808D01*
X167770752Y-132131631D01*
X167758237Y-132098380D01*
X167752450Y-132063328D01*
X167656349Y-131807993D01*
X167512281Y-131576313D01*
X167325782Y-131377190D01*
X167159592Y-131258100D01*
X155350407Y-124440064D01*
X155164177Y-124355684D01*
X154898482Y-124293733D01*
X154625808Y-124284806D01*
X154356631Y-124329248D01*
X154323380Y-124341763D01*
X154288328Y-124347550D01*
X154032993Y-124443651D01*
X153801313Y-124587719D01*
X153602190Y-124774218D01*
X153483100Y-124940408D01*
X146665064Y-136749593D01*
X146580684Y-136935823D01*
X146518733Y-137201518D01*
X146509806Y-137474192D01*
X124866250Y-137474192D01*
X124866250Y-132088213D01*
X124846210Y-131884743D01*
X124775111Y-131650358D01*
X139933000Y-131650358D01*
X139933000Y-132049642D01*
X140010896Y-132441254D01*
X140163696Y-132810145D01*
X140385526Y-133142137D01*
X140667863Y-133424474D01*
X140999855Y-133646304D01*
X141368746Y-133799104D01*
X141760358Y-133877000D01*
X142159642Y-133877000D01*
X142551254Y-133799104D01*
X142920145Y-133646304D01*
X143252137Y-133424474D01*
X143534474Y-133142137D01*
X143756304Y-132810145D01*
X143909104Y-132441254D01*
X143987000Y-132049642D01*
X143987000Y-131650358D01*
X143909104Y-131258746D01*
X143756304Y-130889855D01*
X143534474Y-130557863D01*
X143252137Y-130275526D01*
X142920145Y-130053696D01*
X142551254Y-129900896D01*
X142159642Y-129823000D01*
X141760358Y-129823000D01*
X141368746Y-129900896D01*
X140999855Y-130053696D01*
X140667863Y-130275526D01*
X140385526Y-130557863D01*
X140163696Y-130889855D01*
X140010896Y-131258746D01*
X139933000Y-131650358D01*
X124775111Y-131650358D01*
X124767014Y-131623669D01*
X124638407Y-131383062D01*
X124465330Y-131172169D01*
X124437871Y-131149634D01*
X124415331Y-131122169D01*
X124204438Y-130949093D01*
X123963831Y-130820486D01*
X123702757Y-130741290D01*
X123499287Y-130721250D01*
X109863213Y-130721250D01*
X109659743Y-130741290D01*
X109398669Y-130820486D01*
X109158062Y-130949093D01*
X108947169Y-131122169D01*
X108924629Y-131149634D01*
X108897169Y-131172170D01*
X108724093Y-131383063D01*
X108595486Y-131623670D01*
X108516290Y-131884744D01*
X108496250Y-132088214D01*
X108496250Y-138649639D01*
X108442137Y-138595526D01*
X108110145Y-138373696D01*
X107741254Y-138220896D01*
X107349642Y-138143000D01*
X106950358Y-138143000D01*
X106558746Y-138220896D01*
X106189855Y-138373696D01*
X105857863Y-138595526D01*
X105816250Y-138637139D01*
X105816250Y-128913213D01*
X105796210Y-128709743D01*
X105717014Y-128448669D01*
X105588407Y-128208062D01*
X105415330Y-127997169D01*
X105387871Y-127974634D01*
X105365331Y-127947169D01*
X105154438Y-127774093D01*
X104913831Y-127645486D01*
X104652757Y-127566290D01*
X104449287Y-127546250D01*
X90813213Y-127546250D01*
X90609743Y-127566290D01*
X90348669Y-127645486D01*
X90108062Y-127774093D01*
X89897169Y-127947169D01*
X89874629Y-127974634D01*
X89847169Y-127997170D01*
X89674093Y-128208063D01*
X89545486Y-128448670D01*
X89466290Y-128709744D01*
X89446250Y-128913214D01*
X89446251Y-137519640D01*
X89392137Y-137465526D01*
X89060145Y-137243696D01*
X88691254Y-137090896D01*
X88299642Y-137013000D01*
X87900358Y-137013000D01*
X87508746Y-137090896D01*
X87139855Y-137243696D01*
X86807863Y-137465526D01*
X86766250Y-137507139D01*
X86766250Y-131294463D01*
X86746210Y-131090993D01*
X86667014Y-130829919D01*
X86538407Y-130589312D01*
X86365330Y-130378419D01*
X86337871Y-130355884D01*
X86315331Y-130328419D01*
X86104438Y-130155343D01*
X85863831Y-130026736D01*
X85602757Y-129947540D01*
X85399287Y-129927500D01*
X71763213Y-129927500D01*
X71559743Y-129947540D01*
X71298669Y-130026736D01*
X71058062Y-130155343D01*
X70847169Y-130328419D01*
X70824629Y-130355884D01*
X70797169Y-130378420D01*
X70624093Y-130589313D01*
X70495486Y-130829920D01*
X70416290Y-131090994D01*
X70396250Y-131294464D01*
X67716250Y-131294464D01*
X67716250Y-120181963D01*
X67696210Y-119978493D01*
X67617014Y-119717419D01*
X67488407Y-119476812D01*
X67315330Y-119265919D01*
X67287871Y-119243384D01*
X67265331Y-119215919D01*
X67054438Y-119042843D01*
X66813831Y-118914236D01*
X66552757Y-118835040D01*
X66349287Y-118815000D01*
X52713213Y-118815000D01*
X52509743Y-118835040D01*
X52248669Y-118914236D01*
X52008062Y-119042843D01*
X51797169Y-119215919D01*
X51774629Y-119243384D01*
X51747169Y-119265920D01*
X51574093Y-119476813D01*
X51445486Y-119717420D01*
X51366290Y-119978494D01*
X51346250Y-120181964D01*
X48666250Y-120181964D01*
X48666250Y-120181963D01*
X48646210Y-119978493D01*
X48567014Y-119717419D01*
X48438407Y-119476812D01*
X48265330Y-119265919D01*
X48237871Y-119243384D01*
X48215331Y-119215919D01*
X48004438Y-119042843D01*
X47763831Y-118914236D01*
X47502757Y-118835040D01*
X47299287Y-118815000D01*
X33663213Y-118815000D01*
X33459743Y-118835040D01*
X33198669Y-118914236D01*
X32958062Y-119042843D01*
X32747169Y-119215919D01*
X32724629Y-119243384D01*
X32697169Y-119265920D01*
X32524093Y-119476813D01*
X32395486Y-119717420D01*
X32316290Y-119978494D01*
X32296250Y-120181964D01*
X29159886Y-120181964D01*
X29159822Y-101131964D01*
X32296250Y-101131964D01*
X32296251Y-114768037D01*
X32316291Y-114971507D01*
X32395487Y-115232581D01*
X32524094Y-115473188D01*
X32697170Y-115684081D01*
X32724629Y-115706616D01*
X32747169Y-115734081D01*
X32958062Y-115907157D01*
X33198669Y-116035764D01*
X33459743Y-116114960D01*
X33663213Y-116135000D01*
X47299287Y-116135000D01*
X47502757Y-116114960D01*
X47763831Y-116035764D01*
X48004438Y-115907157D01*
X48215331Y-115734081D01*
X48237869Y-115706619D01*
X48265331Y-115684081D01*
X48438407Y-115473188D01*
X48567014Y-115232581D01*
X48646210Y-114971507D01*
X48666250Y-114768037D01*
X48666250Y-111862861D01*
X48707863Y-111904474D01*
X49039855Y-112126304D01*
X49408746Y-112279104D01*
X49800358Y-112357000D01*
X50199642Y-112357000D01*
X50591254Y-112279104D01*
X50960145Y-112126304D01*
X51292137Y-111904474D01*
X51346251Y-111850360D01*
X51346251Y-114768037D01*
X51366291Y-114971507D01*
X51445487Y-115232581D01*
X51574094Y-115473188D01*
X51747170Y-115684081D01*
X51774629Y-115706616D01*
X51797169Y-115734081D01*
X52008062Y-115907157D01*
X52248669Y-116035764D01*
X52509743Y-116114960D01*
X52713213Y-116135000D01*
X66349287Y-116135000D01*
X66552757Y-116114960D01*
X66813831Y-116035764D01*
X67054438Y-115907157D01*
X67265331Y-115734081D01*
X67287869Y-115706619D01*
X67315331Y-115684081D01*
X67488407Y-115473188D01*
X67617014Y-115232581D01*
X67696210Y-114971507D01*
X67716250Y-114768037D01*
X67716250Y-112244464D01*
X70396250Y-112244464D01*
X70396251Y-125880537D01*
X70416291Y-126084007D01*
X70495487Y-126345081D01*
X70624094Y-126585688D01*
X70797170Y-126796581D01*
X70824629Y-126819116D01*
X70847169Y-126846581D01*
X71058062Y-127019657D01*
X71298669Y-127148264D01*
X71559743Y-127227460D01*
X71763213Y-127247500D01*
X85399287Y-127247500D01*
X85602757Y-127227460D01*
X85863831Y-127148264D01*
X86104438Y-127019657D01*
X86315331Y-126846581D01*
X86337869Y-126819119D01*
X86365331Y-126796581D01*
X86538407Y-126585688D01*
X86667014Y-126345081D01*
X86746210Y-126084007D01*
X86766250Y-125880537D01*
X86766250Y-112244463D01*
X86746210Y-112040993D01*
X86667014Y-111779919D01*
X86538407Y-111539312D01*
X86365330Y-111328419D01*
X86337871Y-111305884D01*
X86315331Y-111278419D01*
X86104438Y-111105343D01*
X85863831Y-110976736D01*
X85602757Y-110897540D01*
X85399287Y-110877500D01*
X71763213Y-110877500D01*
X71559743Y-110897540D01*
X71298669Y-110976736D01*
X71058062Y-111105343D01*
X70847169Y-111278419D01*
X70824629Y-111305884D01*
X70797169Y-111328420D01*
X70624093Y-111539313D01*
X70495486Y-111779920D01*
X70416290Y-112040994D01*
X70396250Y-112244464D01*
X67716250Y-112244464D01*
X67716250Y-109863214D01*
X89446250Y-109863214D01*
X89446251Y-123499287D01*
X89466291Y-123702757D01*
X89545487Y-123963831D01*
X89674094Y-124204438D01*
X89847170Y-124415331D01*
X89874629Y-124437866D01*
X89897169Y-124465331D01*
X90108062Y-124638407D01*
X90348669Y-124767014D01*
X90609743Y-124846210D01*
X90813213Y-124866250D01*
X104449287Y-124866250D01*
X104652757Y-124846210D01*
X104913831Y-124767014D01*
X105154438Y-124638407D01*
X105365331Y-124465331D01*
X105387869Y-124437869D01*
X105415331Y-124415331D01*
X105588407Y-124204438D01*
X105717014Y-123963831D01*
X105796210Y-123702757D01*
X105816250Y-123499287D01*
X105816250Y-113038214D01*
X108496250Y-113038214D01*
X108496251Y-126674287D01*
X108516291Y-126877757D01*
X108595487Y-127138831D01*
X108724094Y-127379438D01*
X108897170Y-127590331D01*
X108924629Y-127612866D01*
X108947169Y-127640331D01*
X109158062Y-127813407D01*
X109398669Y-127942014D01*
X109659743Y-128021210D01*
X109863213Y-128041250D01*
X123499287Y-128041250D01*
X123702757Y-128021210D01*
X123963831Y-127942014D01*
X124204438Y-127813407D01*
X124415331Y-127640331D01*
X124437869Y-127612869D01*
X124465331Y-127590331D01*
X124638407Y-127379438D01*
X124767014Y-127138831D01*
X124846210Y-126877757D01*
X124866250Y-126674287D01*
X124866250Y-114625714D01*
X127546250Y-114625714D01*
X127546251Y-128261787D01*
X127566291Y-128465257D01*
X127645487Y-128726331D01*
X127774094Y-128966938D01*
X127947170Y-129177831D01*
X127974629Y-129200366D01*
X127997169Y-129227831D01*
X128208062Y-129400907D01*
X128448669Y-129529514D01*
X128709743Y-129608710D01*
X128913213Y-129628750D01*
X142549287Y-129628750D01*
X142752757Y-129608710D01*
X143013831Y-129529514D01*
X143254438Y-129400907D01*
X143465331Y-129227831D01*
X143487869Y-129200369D01*
X143515331Y-129177831D01*
X143688407Y-128966938D01*
X143817014Y-128726331D01*
X143896210Y-128465257D01*
X143916250Y-128261787D01*
X143916250Y-114625713D01*
X143896210Y-114422243D01*
X143817014Y-114161169D01*
X143688407Y-113920562D01*
X143515330Y-113709669D01*
X143487871Y-113687134D01*
X143465331Y-113659669D01*
X143254438Y-113486593D01*
X143013831Y-113357986D01*
X142752757Y-113278790D01*
X142549287Y-113258750D01*
X128913213Y-113258750D01*
X128709743Y-113278790D01*
X128448669Y-113357986D01*
X128208062Y-113486593D01*
X127997169Y-113659669D01*
X127974629Y-113687134D01*
X127947169Y-113709670D01*
X127774093Y-113920563D01*
X127645486Y-114161170D01*
X127566290Y-114422244D01*
X127546250Y-114625714D01*
X124866250Y-114625714D01*
X124866250Y-113038213D01*
X124846210Y-112834743D01*
X124767014Y-112573669D01*
X124638407Y-112333062D01*
X124465330Y-112122169D01*
X124437871Y-112099634D01*
X124415331Y-112072169D01*
X124204438Y-111899093D01*
X123963831Y-111770486D01*
X123702757Y-111691290D01*
X123499287Y-111671250D01*
X109863213Y-111671250D01*
X109659743Y-111691290D01*
X109398669Y-111770486D01*
X109158062Y-111899093D01*
X108947169Y-112072169D01*
X108924629Y-112099634D01*
X108897169Y-112122170D01*
X108724093Y-112333063D01*
X108595486Y-112573670D01*
X108516290Y-112834744D01*
X108496250Y-113038214D01*
X105816250Y-113038214D01*
X105816250Y-109863213D01*
X105796210Y-109659743D01*
X105717014Y-109398669D01*
X105588407Y-109158062D01*
X105415330Y-108947169D01*
X105387871Y-108924634D01*
X105365331Y-108897169D01*
X105154438Y-108724093D01*
X104913831Y-108595486D01*
X104652757Y-108516290D01*
X104449287Y-108496250D01*
X90813213Y-108496250D01*
X90609743Y-108516290D01*
X90348669Y-108595486D01*
X90108062Y-108724093D01*
X89897169Y-108897169D01*
X89874629Y-108924634D01*
X89847169Y-108947170D01*
X89674093Y-109158063D01*
X89545486Y-109398670D01*
X89466290Y-109659744D01*
X89446250Y-109863214D01*
X67716250Y-109863214D01*
X67716250Y-101131963D01*
X67696210Y-100928493D01*
X67617014Y-100667419D01*
X67488407Y-100426812D01*
X67315330Y-100215919D01*
X67287871Y-100193384D01*
X67265331Y-100165919D01*
X67054438Y-99992843D01*
X66813831Y-99864236D01*
X66552757Y-99785040D01*
X66349287Y-99765000D01*
X52713213Y-99765000D01*
X52509743Y-99785040D01*
X52248669Y-99864236D01*
X52008062Y-99992843D01*
X51797169Y-100165919D01*
X51774629Y-100193384D01*
X51747169Y-100215920D01*
X51574093Y-100426813D01*
X51445486Y-100667420D01*
X51366290Y-100928494D01*
X51346250Y-101131964D01*
X51346251Y-108809640D01*
X51292137Y-108755526D01*
X50960145Y-108533696D01*
X50591254Y-108380896D01*
X50199642Y-108303000D01*
X49800358Y-108303000D01*
X49408746Y-108380896D01*
X49039855Y-108533696D01*
X48707863Y-108755526D01*
X48666250Y-108797139D01*
X48666250Y-101131963D01*
X48646210Y-100928493D01*
X48567014Y-100667419D01*
X48438407Y-100426812D01*
X48265330Y-100215919D01*
X48237871Y-100193384D01*
X48215331Y-100165919D01*
X48004438Y-99992843D01*
X47763831Y-99864236D01*
X47502757Y-99785040D01*
X47299287Y-99765000D01*
X33663213Y-99765000D01*
X33459743Y-99785040D01*
X33198669Y-99864236D01*
X32958062Y-99992843D01*
X32747169Y-100165919D01*
X32724629Y-100193384D01*
X32697169Y-100215920D01*
X32524093Y-100426813D01*
X32395486Y-100667420D01*
X32316290Y-100928494D01*
X32296250Y-101131964D01*
X29159822Y-101131964D01*
X29159757Y-82081964D01*
X32296250Y-82081964D01*
X32296251Y-95718037D01*
X32316291Y-95921507D01*
X32395487Y-96182581D01*
X32524094Y-96423188D01*
X32697170Y-96634081D01*
X32724629Y-96656616D01*
X32747169Y-96684081D01*
X32958062Y-96857157D01*
X33198669Y-96985764D01*
X33459743Y-97064960D01*
X33663213Y-97085000D01*
X47299287Y-97085000D01*
X47502757Y-97064960D01*
X47763831Y-96985764D01*
X48004438Y-96857157D01*
X48215331Y-96684081D01*
X48237869Y-96656619D01*
X48265331Y-96634081D01*
X48438407Y-96423188D01*
X48567014Y-96182581D01*
X48646210Y-95921507D01*
X48666250Y-95718037D01*
X48666250Y-82081964D01*
X51346250Y-82081964D01*
X51346251Y-95718037D01*
X51366291Y-95921507D01*
X51445487Y-96182581D01*
X51574094Y-96423188D01*
X51747170Y-96634081D01*
X51774629Y-96656616D01*
X51797169Y-96684081D01*
X52008062Y-96857157D01*
X52248669Y-96985764D01*
X52509743Y-97064960D01*
X52713213Y-97085000D01*
X66349287Y-97085000D01*
X66552757Y-97064960D01*
X66813831Y-96985764D01*
X67054438Y-96857157D01*
X67265331Y-96684081D01*
X67287869Y-96656619D01*
X67315331Y-96634081D01*
X67488407Y-96423188D01*
X67617014Y-96182581D01*
X67696210Y-95921507D01*
X67716250Y-95718037D01*
X67716250Y-93194464D01*
X70396250Y-93194464D01*
X70396251Y-106830537D01*
X70416291Y-107034007D01*
X70495487Y-107295081D01*
X70624094Y-107535688D01*
X70797170Y-107746581D01*
X70824629Y-107769116D01*
X70847169Y-107796581D01*
X71058062Y-107969657D01*
X71298669Y-108098264D01*
X71559743Y-108177460D01*
X71763213Y-108197500D01*
X85399287Y-108197500D01*
X85602757Y-108177460D01*
X85863831Y-108098264D01*
X86104438Y-107969657D01*
X86315331Y-107796581D01*
X86337869Y-107769119D01*
X86365331Y-107746581D01*
X86538407Y-107535688D01*
X86667014Y-107295081D01*
X86746210Y-107034007D01*
X86766250Y-106830537D01*
X86766250Y-102832861D01*
X86817863Y-102884474D01*
X87149855Y-103106304D01*
X87518746Y-103259104D01*
X87910358Y-103337000D01*
X88309642Y-103337000D01*
X88701254Y-103259104D01*
X89070145Y-103106304D01*
X89402137Y-102884474D01*
X89446251Y-102840360D01*
X89446251Y-104449287D01*
X89466291Y-104652757D01*
X89545487Y-104913831D01*
X89674094Y-105154438D01*
X89847170Y-105365331D01*
X89874629Y-105387866D01*
X89897169Y-105415331D01*
X90108062Y-105588407D01*
X90348669Y-105717014D01*
X90609743Y-105796210D01*
X90813213Y-105816250D01*
X104449287Y-105816250D01*
X104652757Y-105796210D01*
X104913831Y-105717014D01*
X105154438Y-105588407D01*
X105365331Y-105415331D01*
X105387869Y-105387869D01*
X105415331Y-105365331D01*
X105588407Y-105154438D01*
X105717014Y-104913831D01*
X105796210Y-104652757D01*
X105816250Y-104449287D01*
X105816250Y-103292861D01*
X105857863Y-103334474D01*
X106189855Y-103556304D01*
X106558746Y-103709104D01*
X106950358Y-103787000D01*
X107349642Y-103787000D01*
X107741254Y-103709104D01*
X108110145Y-103556304D01*
X108442137Y-103334474D01*
X108496251Y-103280360D01*
X108496251Y-107624287D01*
X108516291Y-107827757D01*
X108595487Y-108088831D01*
X108724094Y-108329438D01*
X108897170Y-108540331D01*
X108924629Y-108562866D01*
X108947169Y-108590331D01*
X109158062Y-108763407D01*
X109398669Y-108892014D01*
X109659743Y-108971210D01*
X109863213Y-108991250D01*
X123499287Y-108991250D01*
X123702757Y-108971210D01*
X123963831Y-108892014D01*
X124204438Y-108763407D01*
X124415331Y-108590331D01*
X124437869Y-108562869D01*
X124465331Y-108540331D01*
X124638407Y-108329438D01*
X124767014Y-108088831D01*
X124846210Y-107827757D01*
X124866250Y-107624287D01*
X124866250Y-95575714D01*
X127546250Y-95575714D01*
X127546251Y-109211787D01*
X127566291Y-109415257D01*
X127645487Y-109676331D01*
X127774094Y-109916938D01*
X127947170Y-110127831D01*
X127974629Y-110150366D01*
X127997169Y-110177831D01*
X128208062Y-110350907D01*
X128448669Y-110479514D01*
X128709743Y-110558710D01*
X128913213Y-110578750D01*
X142549287Y-110578750D01*
X142752757Y-110558710D01*
X143013831Y-110479514D01*
X143254438Y-110350907D01*
X143465331Y-110177831D01*
X143487869Y-110150369D01*
X143515331Y-110127831D01*
X143688407Y-109916938D01*
X143817014Y-109676331D01*
X143896210Y-109415257D01*
X143916250Y-109211787D01*
X143916250Y-105100714D01*
X146596250Y-105100714D01*
X146596251Y-118736787D01*
X146616291Y-118940257D01*
X146695487Y-119201331D01*
X146824094Y-119441938D01*
X146997170Y-119652831D01*
X147024629Y-119675366D01*
X147047169Y-119702831D01*
X147258062Y-119875907D01*
X147498669Y-120004514D01*
X147759743Y-120083710D01*
X147963213Y-120103750D01*
X161599287Y-120103750D01*
X161802757Y-120083710D01*
X162063831Y-120004514D01*
X162304438Y-119875907D01*
X162515331Y-119702831D01*
X162537869Y-119675369D01*
X162565331Y-119652831D01*
X162738407Y-119441938D01*
X162867014Y-119201331D01*
X162946210Y-118940257D01*
X162966250Y-118736787D01*
X162966250Y-105100713D01*
X162946210Y-104897243D01*
X162867014Y-104636169D01*
X162738407Y-104395562D01*
X162565330Y-104184669D01*
X162537871Y-104162134D01*
X162515331Y-104134669D01*
X162304438Y-103961593D01*
X162063831Y-103832986D01*
X161802757Y-103753790D01*
X161599287Y-103733750D01*
X147963213Y-103733750D01*
X147759743Y-103753790D01*
X147498669Y-103832986D01*
X147258062Y-103961593D01*
X147047169Y-104134669D01*
X147024629Y-104162134D01*
X146997169Y-104184670D01*
X146824093Y-104395563D01*
X146695486Y-104636170D01*
X146616290Y-104897244D01*
X146596250Y-105100714D01*
X143916250Y-105100714D01*
X143916250Y-95575713D01*
X143896210Y-95372243D01*
X143817014Y-95111169D01*
X143688407Y-94870562D01*
X143515330Y-94659669D01*
X143487871Y-94637134D01*
X143465331Y-94609669D01*
X143254438Y-94436593D01*
X143013831Y-94307986D01*
X142752757Y-94228790D01*
X142549287Y-94208750D01*
X128913213Y-94208750D01*
X128709743Y-94228790D01*
X128448669Y-94307986D01*
X128208062Y-94436593D01*
X127997169Y-94609669D01*
X127974629Y-94637134D01*
X127947169Y-94659670D01*
X127774093Y-94870563D01*
X127645486Y-95111170D01*
X127566290Y-95372244D01*
X127546250Y-95575714D01*
X124866250Y-95575714D01*
X124866250Y-93988213D01*
X124846210Y-93784743D01*
X124767014Y-93523669D01*
X124638407Y-93283062D01*
X124465330Y-93072169D01*
X124437871Y-93049634D01*
X124415331Y-93022169D01*
X124204438Y-92849093D01*
X123963831Y-92720486D01*
X123702757Y-92641290D01*
X123499287Y-92621250D01*
X109863213Y-92621250D01*
X109659743Y-92641290D01*
X109398669Y-92720486D01*
X109158062Y-92849093D01*
X108947169Y-93022169D01*
X108924629Y-93049634D01*
X108897169Y-93072170D01*
X108724093Y-93283063D01*
X108595486Y-93523670D01*
X108516290Y-93784744D01*
X108496250Y-93988214D01*
X108496250Y-100239639D01*
X108442137Y-100185526D01*
X108110145Y-99963696D01*
X107741254Y-99810896D01*
X107349642Y-99733000D01*
X106950358Y-99733000D01*
X106558746Y-99810896D01*
X106189855Y-99963696D01*
X105857863Y-100185526D01*
X105816250Y-100227139D01*
X105816250Y-90813213D01*
X105796210Y-90609743D01*
X105717014Y-90348669D01*
X105588407Y-90108062D01*
X105415330Y-89897169D01*
X105387871Y-89874634D01*
X105365331Y-89847169D01*
X105154438Y-89674093D01*
X104913831Y-89545486D01*
X104652757Y-89466290D01*
X104449287Y-89446250D01*
X90813213Y-89446250D01*
X90609743Y-89466290D01*
X90348669Y-89545486D01*
X90108062Y-89674093D01*
X89897169Y-89847169D01*
X89874629Y-89874634D01*
X89847169Y-89897170D01*
X89674093Y-90108063D01*
X89545486Y-90348670D01*
X89466290Y-90609744D01*
X89446250Y-90813214D01*
X89446251Y-99779640D01*
X89402137Y-99735526D01*
X89070145Y-99513696D01*
X88701254Y-99360896D01*
X88309642Y-99283000D01*
X87910358Y-99283000D01*
X87518746Y-99360896D01*
X87149855Y-99513696D01*
X86817863Y-99735526D01*
X86766250Y-99787139D01*
X86766250Y-93194463D01*
X86746210Y-92990993D01*
X86667014Y-92729919D01*
X86538407Y-92489312D01*
X86365330Y-92278419D01*
X86337871Y-92255884D01*
X86315331Y-92228419D01*
X86104438Y-92055343D01*
X85863831Y-91926736D01*
X85602757Y-91847540D01*
X85399287Y-91827500D01*
X71763213Y-91827500D01*
X71559743Y-91847540D01*
X71298669Y-91926736D01*
X71058062Y-92055343D01*
X70847169Y-92228419D01*
X70824629Y-92255884D01*
X70797169Y-92278420D01*
X70624093Y-92489313D01*
X70495486Y-92729920D01*
X70416290Y-92990994D01*
X70396250Y-93194464D01*
X67716250Y-93194464D01*
X67716250Y-82081963D01*
X67696210Y-81878493D01*
X67617014Y-81617419D01*
X67488407Y-81376812D01*
X67315330Y-81165919D01*
X67287871Y-81143384D01*
X67265331Y-81115919D01*
X67054438Y-80942843D01*
X66813831Y-80814236D01*
X66552757Y-80735040D01*
X66349287Y-80715000D01*
X52713213Y-80715000D01*
X52509743Y-80735040D01*
X52248669Y-80814236D01*
X52008062Y-80942843D01*
X51797169Y-81115919D01*
X51774629Y-81143384D01*
X51747169Y-81165920D01*
X51574093Y-81376813D01*
X51445486Y-81617420D01*
X51366290Y-81878494D01*
X51346250Y-82081964D01*
X48666250Y-82081964D01*
X48666250Y-82081963D01*
X48646210Y-81878493D01*
X48567014Y-81617419D01*
X48438407Y-81376812D01*
X48265330Y-81165919D01*
X48237871Y-81143384D01*
X48215331Y-81115919D01*
X48004438Y-80942843D01*
X47763831Y-80814236D01*
X47502757Y-80735040D01*
X47299287Y-80715000D01*
X33663213Y-80715000D01*
X33459743Y-80735040D01*
X33198669Y-80814236D01*
X32958062Y-80942843D01*
X32747169Y-81115919D01*
X32724629Y-81143384D01*
X32697169Y-81165920D01*
X32524093Y-81376813D01*
X32395486Y-81617420D01*
X32316290Y-81878494D01*
X32296250Y-82081964D01*
X29159757Y-82081964D01*
X29159692Y-63031964D01*
X32296250Y-63031964D01*
X32296251Y-76668037D01*
X32316291Y-76871507D01*
X32395487Y-77132581D01*
X32524094Y-77373188D01*
X32697170Y-77584081D01*
X32724629Y-77606616D01*
X32747169Y-77634081D01*
X32958062Y-77807157D01*
X33198669Y-77935764D01*
X33459743Y-78014960D01*
X33663213Y-78035000D01*
X47299287Y-78035000D01*
X47502757Y-78014960D01*
X47763831Y-77935764D01*
X48004438Y-77807157D01*
X48215331Y-77634081D01*
X48237869Y-77606619D01*
X48265331Y-77584081D01*
X48438407Y-77373188D01*
X48567014Y-77132581D01*
X48646210Y-76871507D01*
X48666250Y-76668037D01*
X48666250Y-73002861D01*
X48707863Y-73044474D01*
X49039855Y-73266304D01*
X49408746Y-73419104D01*
X49800358Y-73497000D01*
X50199642Y-73497000D01*
X50591254Y-73419104D01*
X50960145Y-73266304D01*
X51292137Y-73044474D01*
X51346251Y-72990360D01*
X51346251Y-76668037D01*
X51366291Y-76871507D01*
X51445487Y-77132581D01*
X51574094Y-77373188D01*
X51747170Y-77584081D01*
X51774629Y-77606616D01*
X51797169Y-77634081D01*
X52008062Y-77807157D01*
X52248669Y-77935764D01*
X52509743Y-78014960D01*
X52713213Y-78035000D01*
X66349287Y-78035000D01*
X66552757Y-78014960D01*
X66813831Y-77935764D01*
X67054438Y-77807157D01*
X67265331Y-77634081D01*
X67287869Y-77606619D01*
X67315331Y-77584081D01*
X67488407Y-77373188D01*
X67617014Y-77132581D01*
X67696210Y-76871507D01*
X67716250Y-76668037D01*
X67716250Y-74144464D01*
X70396250Y-74144464D01*
X70396251Y-87780537D01*
X70416291Y-87984007D01*
X70495487Y-88245081D01*
X70624094Y-88485688D01*
X70797170Y-88696581D01*
X70824629Y-88719116D01*
X70847169Y-88746581D01*
X71058062Y-88919657D01*
X71298669Y-89048264D01*
X71559743Y-89127460D01*
X71763213Y-89147500D01*
X85399287Y-89147500D01*
X85602757Y-89127460D01*
X85863831Y-89048264D01*
X86104438Y-88919657D01*
X86315331Y-88746581D01*
X86337869Y-88719119D01*
X86365331Y-88696581D01*
X86538407Y-88485688D01*
X86667014Y-88245081D01*
X86746210Y-87984007D01*
X86766250Y-87780537D01*
X86766250Y-74144463D01*
X86746210Y-73940993D01*
X86667014Y-73679919D01*
X86538407Y-73439312D01*
X86365330Y-73228419D01*
X86337871Y-73205884D01*
X86315331Y-73178419D01*
X86104438Y-73005343D01*
X85863831Y-72876736D01*
X85602757Y-72797540D01*
X85399287Y-72777500D01*
X71763213Y-72777500D01*
X71559743Y-72797540D01*
X71298669Y-72876736D01*
X71058062Y-73005343D01*
X70847169Y-73178419D01*
X70824629Y-73205884D01*
X70797169Y-73228420D01*
X70624093Y-73439313D01*
X70495486Y-73679920D01*
X70416290Y-73940994D01*
X70396250Y-74144464D01*
X67716250Y-74144464D01*
X67716250Y-71763214D01*
X89446250Y-71763214D01*
X89446251Y-85399287D01*
X89466291Y-85602757D01*
X89545487Y-85863831D01*
X89674094Y-86104438D01*
X89847170Y-86315331D01*
X89874629Y-86337866D01*
X89897169Y-86365331D01*
X90108062Y-86538407D01*
X90348669Y-86667014D01*
X90609743Y-86746210D01*
X90813213Y-86766250D01*
X104449287Y-86766250D01*
X104652757Y-86746210D01*
X104913831Y-86667014D01*
X105154438Y-86538407D01*
X105365331Y-86365331D01*
X105387869Y-86337869D01*
X105415331Y-86315331D01*
X105588407Y-86104438D01*
X105717014Y-85863831D01*
X105796210Y-85602757D01*
X105816250Y-85399287D01*
X105816250Y-74938214D01*
X108496250Y-74938214D01*
X108496251Y-88574287D01*
X108516291Y-88777757D01*
X108595487Y-89038831D01*
X108724094Y-89279438D01*
X108897170Y-89490331D01*
X108924629Y-89512866D01*
X108947169Y-89540331D01*
X109158062Y-89713407D01*
X109398669Y-89842014D01*
X109659743Y-89921210D01*
X109863213Y-89941250D01*
X123499287Y-89941250D01*
X123702757Y-89921210D01*
X123963831Y-89842014D01*
X124204438Y-89713407D01*
X124295949Y-89638306D01*
X124383696Y-89850145D01*
X124605526Y-90182137D01*
X124887863Y-90464474D01*
X125219855Y-90686304D01*
X125588746Y-90839104D01*
X125980358Y-90917000D01*
X126379642Y-90917000D01*
X126771254Y-90839104D01*
X127140145Y-90686304D01*
X127472137Y-90464474D01*
X127567469Y-90369142D01*
X127645487Y-90626331D01*
X127774094Y-90866938D01*
X127947170Y-91077831D01*
X127974629Y-91100366D01*
X127997169Y-91127831D01*
X128208062Y-91300907D01*
X128448669Y-91429514D01*
X128709743Y-91508710D01*
X128913213Y-91528750D01*
X142549287Y-91528750D01*
X142752757Y-91508710D01*
X143013831Y-91429514D01*
X143254438Y-91300907D01*
X143465331Y-91127831D01*
X143487869Y-91100369D01*
X143515331Y-91077831D01*
X143688407Y-90866938D01*
X143817014Y-90626331D01*
X143896210Y-90365257D01*
X143916250Y-90161787D01*
X143916250Y-86050714D01*
X146596250Y-86050714D01*
X146596251Y-99686787D01*
X146616291Y-99890257D01*
X146695487Y-100151331D01*
X146824094Y-100391938D01*
X146997170Y-100602831D01*
X147024629Y-100625366D01*
X147047169Y-100652831D01*
X147258062Y-100825907D01*
X147498669Y-100954514D01*
X147759743Y-101033710D01*
X147963213Y-101053750D01*
X161599287Y-101053750D01*
X161802757Y-101033710D01*
X162063831Y-100954514D01*
X162304438Y-100825907D01*
X162515331Y-100652831D01*
X162537869Y-100625369D01*
X162565331Y-100602831D01*
X162738407Y-100391938D01*
X162867014Y-100151331D01*
X162946210Y-99890257D01*
X162966250Y-99686787D01*
X162966250Y-86050713D01*
X162946210Y-85847243D01*
X162867014Y-85586169D01*
X162738407Y-85345562D01*
X162565330Y-85134669D01*
X162537871Y-85112134D01*
X162515331Y-85084669D01*
X162304438Y-84911593D01*
X162063831Y-84782986D01*
X161802757Y-84703790D01*
X161599287Y-84683750D01*
X147963213Y-84683750D01*
X147759743Y-84703790D01*
X147498669Y-84782986D01*
X147258062Y-84911593D01*
X147047169Y-85084669D01*
X147024629Y-85112134D01*
X146997169Y-85134670D01*
X146824093Y-85345563D01*
X146695486Y-85586170D01*
X146616290Y-85847244D01*
X146596250Y-86050714D01*
X143916250Y-86050714D01*
X143916250Y-76525713D01*
X143896210Y-76322243D01*
X143817014Y-76061169D01*
X143688407Y-75820562D01*
X143515330Y-75609669D01*
X143487871Y-75587134D01*
X143465331Y-75559669D01*
X143254438Y-75386593D01*
X143013831Y-75257986D01*
X142752757Y-75178790D01*
X142549287Y-75158750D01*
X128913213Y-75158750D01*
X128709743Y-75178790D01*
X128448669Y-75257986D01*
X128208062Y-75386593D01*
X127997169Y-75559669D01*
X127974629Y-75587134D01*
X127947169Y-75609670D01*
X127774093Y-75820563D01*
X127645486Y-76061170D01*
X127566290Y-76322244D01*
X127546250Y-76525714D01*
X127546251Y-87389640D01*
X127472137Y-87315526D01*
X127140145Y-87093696D01*
X126771254Y-86940896D01*
X126379642Y-86863000D01*
X125980358Y-86863000D01*
X125588746Y-86940896D01*
X125219855Y-87093696D01*
X124887863Y-87315526D01*
X124866250Y-87337139D01*
X124866250Y-74938213D01*
X124846210Y-74734743D01*
X124767014Y-74473669D01*
X124638407Y-74233062D01*
X124465330Y-74022169D01*
X124437871Y-73999634D01*
X124415331Y-73972169D01*
X124204438Y-73799093D01*
X123963831Y-73670486D01*
X123702757Y-73591290D01*
X123499287Y-73571250D01*
X109863213Y-73571250D01*
X109659743Y-73591290D01*
X109398669Y-73670486D01*
X109158062Y-73799093D01*
X108947169Y-73972169D01*
X108924629Y-73999634D01*
X108897169Y-74022170D01*
X108724093Y-74233063D01*
X108595486Y-74473670D01*
X108516290Y-74734744D01*
X108496250Y-74938214D01*
X105816250Y-74938214D01*
X105816250Y-71763213D01*
X105796210Y-71559743D01*
X105717014Y-71298669D01*
X105588407Y-71058062D01*
X105415330Y-70847169D01*
X105387871Y-70824634D01*
X105365331Y-70797169D01*
X105154438Y-70624093D01*
X104913831Y-70495486D01*
X104652757Y-70416290D01*
X104449287Y-70396250D01*
X90813213Y-70396250D01*
X90609743Y-70416290D01*
X90348669Y-70495486D01*
X90108062Y-70624093D01*
X89897169Y-70797169D01*
X89874629Y-70824634D01*
X89847169Y-70847170D01*
X89674093Y-71058063D01*
X89545486Y-71298670D01*
X89466290Y-71559744D01*
X89446250Y-71763214D01*
X67716250Y-71763214D01*
X67716250Y-63031963D01*
X67696210Y-62828493D01*
X67617014Y-62567419D01*
X67488407Y-62326812D01*
X67315330Y-62115919D01*
X67287871Y-62093384D01*
X67265331Y-62065919D01*
X67054438Y-61892843D01*
X66813831Y-61764236D01*
X66552757Y-61685040D01*
X66349287Y-61665000D01*
X52713213Y-61665000D01*
X52509743Y-61685040D01*
X52248669Y-61764236D01*
X52008062Y-61892843D01*
X51797169Y-62065919D01*
X51774629Y-62093384D01*
X51747169Y-62115920D01*
X51574093Y-62326813D01*
X51445486Y-62567420D01*
X51366290Y-62828494D01*
X51346250Y-63031964D01*
X51346251Y-69949640D01*
X51292137Y-69895526D01*
X50960145Y-69673696D01*
X50591254Y-69520896D01*
X50199642Y-69443000D01*
X49800358Y-69443000D01*
X49408746Y-69520896D01*
X49039855Y-69673696D01*
X48707863Y-69895526D01*
X48666250Y-69937139D01*
X48666250Y-63031963D01*
X48646210Y-62828493D01*
X48567014Y-62567419D01*
X48438407Y-62326812D01*
X48265330Y-62115919D01*
X48237871Y-62093384D01*
X48215331Y-62065919D01*
X48004438Y-61892843D01*
X47763831Y-61764236D01*
X47502757Y-61685040D01*
X47299287Y-61665000D01*
X33663213Y-61665000D01*
X33459743Y-61685040D01*
X33198669Y-61764236D01*
X32958062Y-61892843D01*
X32747169Y-62065919D01*
X32724629Y-62093384D01*
X32697169Y-62115920D01*
X32524093Y-62326813D01*
X32395486Y-62567420D01*
X32316290Y-62828494D01*
X32296250Y-63031964D01*
X29159692Y-63031964D01*
X29159688Y-62032285D01*
X29226409Y-61351814D01*
X29414656Y-60728310D01*
X29720419Y-60153254D01*
X30132060Y-59648532D01*
X30633894Y-59233379D01*
X31223661Y-58914493D01*
X31428044Y-58838060D01*
X51284131Y-55094464D01*
X70396250Y-55094464D01*
X70396251Y-68730537D01*
X70416291Y-68934007D01*
X70495487Y-69195081D01*
X70624094Y-69435688D01*
X70797170Y-69646581D01*
X70824629Y-69669116D01*
X70847169Y-69696581D01*
X71058062Y-69869657D01*
X71298669Y-69998264D01*
X71559743Y-70077460D01*
X71763213Y-70097500D01*
X85399287Y-70097500D01*
X85602757Y-70077460D01*
X85863831Y-69998264D01*
X86104438Y-69869657D01*
X86315331Y-69696581D01*
X86337869Y-69669119D01*
X86365331Y-69646581D01*
X86538407Y-69435688D01*
X86667014Y-69195081D01*
X86746210Y-68934007D01*
X86766250Y-68730537D01*
X86766250Y-64772861D01*
X86817863Y-64824474D01*
X87149855Y-65046304D01*
X87518746Y-65199104D01*
X87910358Y-65277000D01*
X88309642Y-65277000D01*
X88701254Y-65199104D01*
X89070145Y-65046304D01*
X89402137Y-64824474D01*
X89446251Y-64780360D01*
X89446251Y-66349287D01*
X89466291Y-66552757D01*
X89545487Y-66813831D01*
X89674094Y-67054438D01*
X89847170Y-67265331D01*
X89874629Y-67287866D01*
X89897169Y-67315331D01*
X90108062Y-67488407D01*
X90348669Y-67617014D01*
X90609743Y-67696210D01*
X90813213Y-67716250D01*
X104449287Y-67716250D01*
X104652757Y-67696210D01*
X104913831Y-67617014D01*
X105154438Y-67488407D01*
X105365331Y-67315331D01*
X105387869Y-67287869D01*
X105415331Y-67265331D01*
X105588407Y-67054438D01*
X105717014Y-66813831D01*
X105796210Y-66552757D01*
X105816250Y-66349287D01*
X105816250Y-65562861D01*
X105857863Y-65604474D01*
X106189855Y-65826304D01*
X106558746Y-65979104D01*
X106950358Y-66057000D01*
X107349642Y-66057000D01*
X107741254Y-65979104D01*
X108110145Y-65826304D01*
X108442137Y-65604474D01*
X108496251Y-65550360D01*
X108496251Y-69524287D01*
X108516291Y-69727757D01*
X108595487Y-69988831D01*
X108724094Y-70229438D01*
X108897170Y-70440331D01*
X108924629Y-70462866D01*
X108947169Y-70490331D01*
X109158062Y-70663407D01*
X109398669Y-70792014D01*
X109659743Y-70871210D01*
X109863213Y-70891250D01*
X123499287Y-70891250D01*
X123702757Y-70871210D01*
X123963831Y-70792014D01*
X124204438Y-70663407D01*
X124415331Y-70490331D01*
X124437869Y-70462869D01*
X124465331Y-70440331D01*
X124638407Y-70229438D01*
X124767014Y-69988831D01*
X124846210Y-69727757D01*
X124866250Y-69524287D01*
X124866250Y-57475714D01*
X127546250Y-57475714D01*
X127546251Y-71111787D01*
X127566291Y-71315257D01*
X127645487Y-71576331D01*
X127774094Y-71816938D01*
X127947170Y-72027831D01*
X127974629Y-72050366D01*
X127997169Y-72077831D01*
X128208062Y-72250907D01*
X128448669Y-72379514D01*
X128709743Y-72458710D01*
X128913213Y-72478750D01*
X142549287Y-72478750D01*
X142752757Y-72458710D01*
X143013831Y-72379514D01*
X143254438Y-72250907D01*
X143465331Y-72077831D01*
X143487869Y-72050369D01*
X143515331Y-72027831D01*
X143688407Y-71816938D01*
X143817014Y-71576331D01*
X143896210Y-71315257D01*
X143916250Y-71111787D01*
X143916250Y-57475713D01*
X143896210Y-57272243D01*
X143817014Y-57011169D01*
X143688407Y-56770562D01*
X143515330Y-56559669D01*
X143487871Y-56537134D01*
X143465331Y-56509669D01*
X143254438Y-56336593D01*
X143013831Y-56207986D01*
X142752757Y-56128790D01*
X142549287Y-56108750D01*
X128913213Y-56108750D01*
X128709743Y-56128790D01*
X128448669Y-56207986D01*
X128208062Y-56336593D01*
X127997169Y-56509669D01*
X127974629Y-56537134D01*
X127947169Y-56559670D01*
X127774093Y-56770563D01*
X127645486Y-57011170D01*
X127566290Y-57272244D01*
X127546250Y-57475714D01*
X124866250Y-57475714D01*
X124866250Y-55888213D01*
X124846210Y-55684743D01*
X124767014Y-55423669D01*
X124638407Y-55183062D01*
X124465330Y-54972169D01*
X124437871Y-54949634D01*
X124415331Y-54922169D01*
X124204438Y-54749093D01*
X123963831Y-54620486D01*
X123702757Y-54541290D01*
X123499287Y-54521250D01*
X109863213Y-54521250D01*
X109659743Y-54541290D01*
X109398669Y-54620486D01*
X109158062Y-54749093D01*
X108947169Y-54922169D01*
X108924629Y-54949634D01*
X108897169Y-54972170D01*
X108724093Y-55183063D01*
X108595486Y-55423670D01*
X108516290Y-55684744D01*
X108496250Y-55888214D01*
X108496250Y-62509639D01*
X108442137Y-62455526D01*
X108110145Y-62233696D01*
X107741254Y-62080896D01*
X107349642Y-62003000D01*
X106950358Y-62003000D01*
X106558746Y-62080896D01*
X106189855Y-62233696D01*
X105857863Y-62455526D01*
X105816250Y-62497139D01*
X105816250Y-52713213D01*
X105796210Y-52509743D01*
X105717014Y-52248669D01*
X105588407Y-52008062D01*
X105415330Y-51797169D01*
X105387871Y-51774634D01*
X105365331Y-51747169D01*
X105154438Y-51574093D01*
X104913831Y-51445486D01*
X104652757Y-51366290D01*
X104449287Y-51346250D01*
X90813213Y-51346250D01*
X90609743Y-51366290D01*
X90348669Y-51445486D01*
X90108062Y-51574093D01*
X89897169Y-51747169D01*
X89874629Y-51774634D01*
X89847169Y-51797170D01*
X89674093Y-52008063D01*
X89545486Y-52248670D01*
X89466290Y-52509744D01*
X89446250Y-52713214D01*
X89446251Y-61719640D01*
X89402137Y-61675526D01*
X89070145Y-61453696D01*
X88701254Y-61300896D01*
X88309642Y-61223000D01*
X87910358Y-61223000D01*
X87518746Y-61300896D01*
X87149855Y-61453696D01*
X86817863Y-61675526D01*
X86766250Y-61727139D01*
X86766250Y-55094463D01*
X86746210Y-54890993D01*
X86667014Y-54629919D01*
X86538407Y-54389312D01*
X86365330Y-54178419D01*
X86337871Y-54155884D01*
X86315331Y-54128419D01*
X86104438Y-53955343D01*
X85863831Y-53826736D01*
X85602757Y-53747540D01*
X85399287Y-53727500D01*
X71763213Y-53727500D01*
X71559743Y-53747540D01*
X71298669Y-53826736D01*
X71058062Y-53955343D01*
X70847169Y-54128419D01*
X70824629Y-54155884D01*
X70797169Y-54178420D01*
X70624093Y-54389313D01*
X70495486Y-54629920D01*
X70416290Y-54890994D01*
X70396250Y-55094464D01*
X51284131Y-55094464D01*
X86426796Y-48468791D01*
X88636587Y-48237308D01*
X90861472Y-48160000D01*
X134891393Y-48162738D01*
G37*
X134891393Y-48162738D02*
X135499536Y-48285097D01*
X136076863Y-48525134D01*
X136561213Y-48840925D01*
X144678890Y-54936114D01*
X144688076Y-54941694D01*
X144912967Y-55099390D01*
X145073175Y-55266677D01*
X145197840Y-55461901D01*
X145282211Y-55677618D01*
X145326472Y-55924559D01*
X145330011Y-56013407D01*
X145350027Y-82042925D01*
X145359651Y-82139882D01*
X145360397Y-82142334D01*
X145371955Y-82250292D01*
X145383343Y-82305228D01*
X145393343Y-82360451D01*
X145395924Y-82369297D01*
X145451342Y-82554434D01*
X145474008Y-82609797D01*
X145495896Y-82665465D01*
X145500146Y-82673641D01*
X145590469Y-82844489D01*
X145623435Y-82894362D01*
X145655741Y-82944752D01*
X145661499Y-82951947D01*
X145783287Y-83101996D01*
X145825334Y-83144538D01*
X145866787Y-83187668D01*
X145873832Y-83193608D01*
X146022444Y-83317144D01*
X146071973Y-83350722D01*
X146120996Y-83384967D01*
X146129061Y-83389426D01*
X146298838Y-83481743D01*
X146353926Y-83505054D01*
X146408689Y-83529134D01*
X146417466Y-83531941D01*
X146601942Y-83589524D01*
X146660485Y-83601685D01*
X146718902Y-83614674D01*
X146728058Y-83615722D01*
X146858322Y-83629725D01*
X146860967Y-83630529D01*
X146957925Y-83640138D01*
X162977515Y-83649881D01*
X163269677Y-83678527D01*
X163519466Y-83753943D01*
X163749848Y-83876440D01*
X163952049Y-84041351D01*
X164118371Y-84242399D01*
X164242468Y-84471912D01*
X164319628Y-84721176D01*
X164350000Y-85010147D01*
X164339992Y-122042240D01*
X164341567Y-122058276D01*
X164396625Y-123192388D01*
X164399755Y-123222787D01*
X164402406Y-123253186D01*
X164402734Y-123255467D01*
X164616675Y-124725011D01*
X164623488Y-124758849D01*
X164630192Y-124792760D01*
X164630764Y-124794992D01*
X165002164Y-126232835D01*
X165012640Y-126265896D01*
X165022918Y-126298726D01*
X165023724Y-126300872D01*
X165023728Y-126300885D01*
X165023733Y-126300897D01*
X165548241Y-127690206D01*
X165562218Y-127721923D01*
X165575991Y-127753472D01*
X165577021Y-127755513D01*
X165577028Y-127755529D01*
X165577036Y-127755543D01*
X166248521Y-129080078D01*
X166268852Y-129115317D01*
X166273432Y-129124820D01*
X166278279Y-129132658D01*
X166452895Y-129410697D01*
X166483976Y-129450868D01*
X166513366Y-129492292D01*
X166519455Y-129499209D01*
X166823396Y-129839684D01*
X166867417Y-129880227D01*
X166910828Y-129921343D01*
X166918144Y-129926946D01*
X167282429Y-130201901D01*
X167333461Y-130233106D01*
X167384057Y-130265023D01*
X167392323Y-130269098D01*
X167803077Y-130468060D01*
X167859212Y-130488763D01*
X167915029Y-130510240D01*
X167923928Y-130512632D01*
X168365504Y-130628022D01*
X168424541Y-130637419D01*
X168483517Y-130647654D01*
X168492712Y-130648272D01*
X168936419Y-130674980D01*
X168956768Y-130676946D01*
X174984902Y-130665626D01*
X174699855Y-130783696D01*
X174367863Y-131005526D01*
X174085526Y-131287863D01*
X173863696Y-131619855D01*
X173710896Y-131988746D01*
X173633000Y-132380358D01*
X173633000Y-132779642D01*
X173710896Y-133171254D01*
X173863696Y-133540145D01*
X174085526Y-133872137D01*
X174367863Y-134154474D01*
X174699855Y-134376304D01*
X175068746Y-134529104D01*
X175460358Y-134607000D01*
X175859642Y-134607000D01*
X176251254Y-134529104D01*
X176620145Y-134376304D01*
X176952137Y-134154474D01*
X177234474Y-133872137D01*
X177456304Y-133540145D01*
X177609104Y-133171254D01*
X177687000Y-132779642D01*
X177687000Y-132380358D01*
X177609104Y-131988746D01*
X177456304Y-131619855D01*
X177234474Y-131287863D01*
X176952137Y-131005526D01*
X176620145Y-130783696D01*
X176329005Y-130663101D01*
X177403595Y-130661083D01*
X177708407Y-130680967D01*
X177962391Y-130748702D01*
X178198385Y-130864478D01*
X178407393Y-131023886D01*
X178581458Y-131220856D01*
X178713951Y-131447886D01*
X178799822Y-131696322D01*
X178839460Y-131983166D01*
X178840163Y-132014700D01*
X178840225Y-132015212D01*
X178840198Y-132016172D01*
X178848543Y-132356634D01*
X178849057Y-132361732D01*
X178853489Y-132422701D01*
X178984859Y-133468785D01*
X178987966Y-133484044D01*
X178989460Y-133499541D01*
X179004833Y-133566893D01*
X179292923Y-134581068D01*
X179298304Y-134595686D01*
X179302124Y-134610774D01*
X179327507Y-134675025D01*
X179765687Y-135633955D01*
X179773218Y-135647593D01*
X179779276Y-135661928D01*
X179814086Y-135721601D01*
X180392273Y-136603217D01*
X180401779Y-136615557D01*
X180409936Y-136628812D01*
X180453356Y-136682512D01*
X180453372Y-136682533D01*
X180453378Y-136682539D01*
X181116874Y-137420517D01*
X181118476Y-137423158D01*
X181206293Y-137519025D01*
X181284858Y-137576651D01*
X181312661Y-137593116D01*
X181312675Y-137593126D01*
X181312690Y-137593134D01*
X185875466Y-140295252D01*
X186426837Y-140731249D01*
X186869845Y-141250591D01*
X187203543Y-141846091D01*
X187415219Y-142495067D01*
X187496811Y-143172793D01*
X187445210Y-143853468D01*
X187262382Y-144511154D01*
X186944373Y-145142478D01*
X186943370Y-145143888D01*
X170201745Y-174379268D01*
X169768752Y-174926838D01*
X169249410Y-175369846D01*
X168653913Y-175703542D01*
X168004935Y-175915220D01*
X167327208Y-175996812D01*
X166646533Y-175945211D01*
X165988847Y-175762383D01*
X165356227Y-175443721D01*
X145179890Y-163667942D01*
X153653556Y-163667942D01*
X153697998Y-163937119D01*
X153710513Y-163970371D01*
X153716300Y-164005421D01*
X153812401Y-164260756D01*
X153956469Y-164492436D01*
X154142968Y-164691559D01*
X154309158Y-164810649D01*
X165944862Y-171528527D01*
X165715526Y-171757863D01*
X165493696Y-172089855D01*
X165340896Y-172458746D01*
X165263000Y-172850358D01*
X165263000Y-173249642D01*
X165340896Y-173641254D01*
X165493696Y-174010145D01*
X165715526Y-174342137D01*
X165997863Y-174624474D01*
X166329855Y-174846304D01*
X166698746Y-174999104D01*
X167090358Y-175077000D01*
X167489642Y-175077000D01*
X167881254Y-174999104D01*
X168250145Y-174846304D01*
X168582137Y-174624474D01*
X168864474Y-174342137D01*
X169086304Y-174010145D01*
X169239104Y-173641254D01*
X169317000Y-173249642D01*
X169317000Y-172850358D01*
X169239104Y-172458746D01*
X169086304Y-172089855D01*
X168864474Y-171757863D01*
X168582137Y-171475526D01*
X168250145Y-171253696D01*
X167976921Y-171140522D01*
X167985649Y-171128342D01*
X174803686Y-159319158D01*
X174888066Y-159132928D01*
X174950017Y-158867233D01*
X174958944Y-158594558D01*
X174914502Y-158325381D01*
X174901987Y-158292130D01*
X174896200Y-158257078D01*
X174800099Y-158001743D01*
X174656031Y-157770063D01*
X174469532Y-157570940D01*
X174303342Y-157451850D01*
X162494157Y-150633814D01*
X162307927Y-150549434D01*
X162042232Y-150487483D01*
X161769558Y-150478556D01*
X161500381Y-150522998D01*
X161467130Y-150535513D01*
X161432078Y-150541300D01*
X161176743Y-150637401D01*
X160945063Y-150781469D01*
X160745940Y-150967968D01*
X160626850Y-151134158D01*
X153808814Y-162943343D01*
X153724434Y-163129573D01*
X153662483Y-163395268D01*
X153653556Y-163667942D01*
X145179890Y-163667942D01*
X124987742Y-151882936D01*
X124788128Y-151761692D01*
X133016056Y-151761692D01*
X133060498Y-152030869D01*
X133073013Y-152064121D01*
X133078800Y-152099171D01*
X133174901Y-152354506D01*
X133318969Y-152586186D01*
X133505468Y-152785309D01*
X133671658Y-152904399D01*
X145480842Y-159722436D01*
X145667072Y-159806816D01*
X145932767Y-159868767D01*
X146205442Y-159877694D01*
X146474619Y-159833252D01*
X146507871Y-159820737D01*
X146542921Y-159814950D01*
X146798256Y-159718849D01*
X147029936Y-159574781D01*
X147229059Y-159388282D01*
X147348149Y-159222092D01*
X154166186Y-147412908D01*
X154250566Y-147226678D01*
X154312517Y-146960983D01*
X154319945Y-146734093D01*
X162685346Y-146734093D01*
X162737508Y-147050033D01*
X162850304Y-147349725D01*
X163019401Y-147621654D01*
X163238298Y-147855368D01*
X163498585Y-148041887D01*
X176843343Y-155746487D01*
X177135017Y-155878643D01*
X177446868Y-155951356D01*
X177766913Y-155961834D01*
X178082853Y-155909672D01*
X178382545Y-155796876D01*
X178654474Y-155627779D01*
X178888188Y-155408882D01*
X179074707Y-155148595D01*
X185979307Y-143189477D01*
X186111463Y-142897803D01*
X186184176Y-142585952D01*
X186194654Y-142265907D01*
X186142492Y-141949967D01*
X186029696Y-141650275D01*
X185860599Y-141378346D01*
X185641702Y-141144632D01*
X185381415Y-140958113D01*
X172036657Y-133253513D01*
X171744983Y-133121357D01*
X171433132Y-133048644D01*
X171113087Y-133038166D01*
X170797147Y-133090328D01*
X170497455Y-133203124D01*
X170225526Y-133372221D01*
X169991812Y-133591118D01*
X169805293Y-133851405D01*
X162900693Y-145810523D01*
X162768537Y-146102197D01*
X162695824Y-146414048D01*
X162685346Y-146734093D01*
X154319945Y-146734093D01*
X154321444Y-146688308D01*
X154277002Y-146419131D01*
X154264487Y-146385880D01*
X154258700Y-146350828D01*
X154162599Y-146095493D01*
X154018531Y-145863813D01*
X153832032Y-145664690D01*
X153665842Y-145545600D01*
X141856657Y-138727564D01*
X141670427Y-138643184D01*
X141404732Y-138581233D01*
X141132058Y-138572306D01*
X140862881Y-138616748D01*
X140829630Y-138629263D01*
X140794578Y-138635050D01*
X140539243Y-138731151D01*
X140307563Y-138875219D01*
X140108440Y-139061718D01*
X139989350Y-139227908D01*
X133171314Y-151037093D01*
X133086934Y-151223323D01*
X133024983Y-151489018D01*
X133016056Y-151761692D01*
X124788128Y-151761692D01*
X124325243Y-151480540D01*
X124295741Y-151465068D01*
X124266657Y-151448886D01*
X123104970Y-150895017D01*
X123104964Y-150895014D01*
X123028056Y-150864112D01*
X121806104Y-150460207D01*
X121725930Y-150439187D01*
X120463005Y-150191622D01*
X120462990Y-150191618D01*
X120380814Y-150180813D01*
X119106753Y-150094161D01*
X119084487Y-150091966D01*
X92467630Y-150089998D01*
X92462921Y-150090461D01*
X91800824Y-150099899D01*
X91786362Y-150100686D01*
X91771855Y-150100948D01*
X91764958Y-150101387D01*
X89827155Y-150234626D01*
X89804268Y-150237125D01*
X89781334Y-150239388D01*
X89774494Y-150240377D01*
X87853619Y-150528595D01*
X87831003Y-150532923D01*
X87808327Y-150537017D01*
X87801588Y-150538552D01*
X85910014Y-150979895D01*
X85887864Y-150986010D01*
X85865544Y-150991921D01*
X85858951Y-150993992D01*
X84021090Y-151581706D01*
X84002257Y-151586929D01*
X71908613Y-156259728D01*
X69660710Y-156747519D01*
X67356388Y-157093682D01*
X65032535Y-157290589D01*
X63141374Y-157340000D01*
X32532279Y-157340000D01*
X31851874Y-157273286D01*
X31228430Y-157085057D01*
X30653427Y-156779323D01*
X30148752Y-156367721D01*
X29733638Y-155865933D01*
X29423896Y-155293077D01*
X29231318Y-154670961D01*
X29160000Y-153992416D01*
X29159950Y-139231964D01*
X32296250Y-139231964D01*
X32296251Y-152868037D01*
X32316291Y-153071507D01*
X32395487Y-153332581D01*
X32524094Y-153573188D01*
X32697170Y-153784081D01*
X32724629Y-153806616D01*
X32747169Y-153834081D01*
X32958062Y-154007157D01*
X33198669Y-154135764D01*
X33459743Y-154214960D01*
X33663213Y-154235000D01*
X47299287Y-154235000D01*
X47502757Y-154214960D01*
X47763831Y-154135764D01*
X48004438Y-154007157D01*
X48215331Y-153834081D01*
X48237869Y-153806619D01*
X48265331Y-153784081D01*
X48438407Y-153573188D01*
X48567014Y-153332581D01*
X48646210Y-153071507D01*
X48666250Y-152868037D01*
X48666250Y-150452861D01*
X48717863Y-150504474D01*
X49049855Y-150726304D01*
X49418746Y-150879104D01*
X49810358Y-150957000D01*
X50209642Y-150957000D01*
X50601254Y-150879104D01*
X50970145Y-150726304D01*
X51302137Y-150504474D01*
X51346251Y-150460360D01*
X51346251Y-152868037D01*
X51366291Y-153071507D01*
X51445487Y-153332581D01*
X51574094Y-153573188D01*
X51747170Y-153784081D01*
X51774629Y-153806616D01*
X51797169Y-153834081D01*
X52008062Y-154007157D01*
X52248669Y-154135764D01*
X52509743Y-154214960D01*
X52713213Y-154235000D01*
X66349287Y-154235000D01*
X66552757Y-154214960D01*
X66813831Y-154135764D01*
X67054438Y-154007157D01*
X67265331Y-153834081D01*
X67287869Y-153806619D01*
X67315331Y-153784081D01*
X67488407Y-153573188D01*
X67617014Y-153332581D01*
X67696210Y-153071507D01*
X67716250Y-152868037D01*
X67716250Y-139231963D01*
X67696210Y-139028493D01*
X67617014Y-138767419D01*
X67488407Y-138526812D01*
X67315330Y-138315919D01*
X67287871Y-138293384D01*
X67265331Y-138265919D01*
X67054438Y-138092843D01*
X66813831Y-137964236D01*
X66552757Y-137885040D01*
X66349287Y-137865000D01*
X52713213Y-137865000D01*
X52509743Y-137885040D01*
X52248669Y-137964236D01*
X52008062Y-138092843D01*
X51797169Y-138265919D01*
X51774629Y-138293384D01*
X51747169Y-138315920D01*
X51574093Y-138526813D01*
X51445486Y-138767420D01*
X51366290Y-139028494D01*
X51346250Y-139231964D01*
X51346251Y-147399640D01*
X51302137Y-147355526D01*
X50970145Y-147133696D01*
X50601254Y-146980896D01*
X50209642Y-146903000D01*
X49810358Y-146903000D01*
X49418746Y-146980896D01*
X49049855Y-147133696D01*
X48717863Y-147355526D01*
X48666250Y-147407139D01*
X48666250Y-139231963D01*
X48646210Y-139028493D01*
X48567014Y-138767419D01*
X48438407Y-138526812D01*
X48265330Y-138315919D01*
X48237871Y-138293384D01*
X48215331Y-138265919D01*
X48004438Y-138092843D01*
X47763831Y-137964236D01*
X47502757Y-137885040D01*
X47299287Y-137865000D01*
X33663213Y-137865000D01*
X33459743Y-137885040D01*
X33198669Y-137964236D01*
X32958062Y-138092843D01*
X32747169Y-138265919D01*
X32724629Y-138293384D01*
X32697169Y-138315920D01*
X32524093Y-138526813D01*
X32395486Y-138767420D01*
X32316290Y-139028494D01*
X32296250Y-139231964D01*
X29159950Y-139231964D01*
X29159886Y-120181964D01*
X32296250Y-120181964D01*
X32296251Y-133818037D01*
X32316291Y-134021507D01*
X32395487Y-134282581D01*
X32524094Y-134523188D01*
X32697170Y-134734081D01*
X32724629Y-134756616D01*
X32747169Y-134784081D01*
X32958062Y-134957157D01*
X33198669Y-135085764D01*
X33459743Y-135164960D01*
X33663213Y-135185000D01*
X47299287Y-135185000D01*
X47502757Y-135164960D01*
X47763831Y-135085764D01*
X48004438Y-134957157D01*
X48215331Y-134784081D01*
X48237869Y-134756619D01*
X48265331Y-134734081D01*
X48438407Y-134523188D01*
X48567014Y-134282581D01*
X48646210Y-134021507D01*
X48666250Y-133818037D01*
X48666250Y-120181964D01*
X51346250Y-120181964D01*
X51346251Y-133818037D01*
X51366291Y-134021507D01*
X51445487Y-134282581D01*
X51574094Y-134523188D01*
X51747170Y-134734081D01*
X51774629Y-134756616D01*
X51797169Y-134784081D01*
X52008062Y-134957157D01*
X52248669Y-135085764D01*
X52509743Y-135164960D01*
X52713213Y-135185000D01*
X66349287Y-135185000D01*
X66552757Y-135164960D01*
X66813831Y-135085764D01*
X67054438Y-134957157D01*
X67265331Y-134784081D01*
X67287869Y-134756619D01*
X67315331Y-134734081D01*
X67488407Y-134523188D01*
X67617014Y-134282581D01*
X67696210Y-134021507D01*
X67716250Y-133818037D01*
X67716250Y-131294464D01*
X70396250Y-131294464D01*
X70396251Y-144930537D01*
X70416291Y-145134007D01*
X70495487Y-145395081D01*
X70624094Y-145635688D01*
X70797170Y-145846581D01*
X70824629Y-145869116D01*
X70847169Y-145896581D01*
X71058062Y-146069657D01*
X71298669Y-146198264D01*
X71559743Y-146277460D01*
X71763213Y-146297500D01*
X85399287Y-146297500D01*
X85602757Y-146277460D01*
X85863831Y-146198264D01*
X86104438Y-146069657D01*
X86315331Y-145896581D01*
X86337869Y-145869119D01*
X86365331Y-145846581D01*
X86538407Y-145635688D01*
X86667014Y-145395081D01*
X86746210Y-145134007D01*
X86766250Y-144930537D01*
X86766250Y-140572861D01*
X86807863Y-140614474D01*
X87139855Y-140836304D01*
X87508746Y-140989104D01*
X87900358Y-141067000D01*
X88299642Y-141067000D01*
X88691254Y-140989104D01*
X89060145Y-140836304D01*
X89392137Y-140614474D01*
X89446251Y-140560360D01*
X89446251Y-142549287D01*
X89466291Y-142752757D01*
X89545487Y-143013831D01*
X89674094Y-143254438D01*
X89847170Y-143465331D01*
X89874629Y-143487866D01*
X89897169Y-143515331D01*
X90108062Y-143688407D01*
X90348669Y-143817014D01*
X90609743Y-143896210D01*
X90813213Y-143916250D01*
X104449287Y-143916250D01*
X104652757Y-143896210D01*
X104913831Y-143817014D01*
X105154438Y-143688407D01*
X105365331Y-143515331D01*
X105387869Y-143487869D01*
X105415331Y-143465331D01*
X105588407Y-143254438D01*
X105717014Y-143013831D01*
X105796210Y-142752757D01*
X105816250Y-142549287D01*
X105816250Y-141702861D01*
X105857863Y-141744474D01*
X106189855Y-141966304D01*
X106558746Y-142119104D01*
X106950358Y-142197000D01*
X107349642Y-142197000D01*
X107741254Y-142119104D01*
X108110145Y-141966304D01*
X108442137Y-141744474D01*
X108496251Y-141690360D01*
X108496251Y-145724287D01*
X108516291Y-145927757D01*
X108595487Y-146188831D01*
X108724094Y-146429438D01*
X108897170Y-146640331D01*
X108924629Y-146662866D01*
X108947169Y-146690331D01*
X109158062Y-146863407D01*
X109398669Y-146992014D01*
X109659743Y-147071210D01*
X109863213Y-147091250D01*
X123499287Y-147091250D01*
X123702757Y-147071210D01*
X123963831Y-146992014D01*
X124204438Y-146863407D01*
X124415331Y-146690331D01*
X124437869Y-146662869D01*
X124465331Y-146640331D01*
X124638407Y-146429438D01*
X124767014Y-146188831D01*
X124846210Y-145927757D01*
X124866250Y-145724287D01*
X124866250Y-137474192D01*
X146509806Y-137474192D01*
X146554248Y-137743369D01*
X146566763Y-137776621D01*
X146572550Y-137811671D01*
X146668651Y-138067006D01*
X146812719Y-138298686D01*
X146999218Y-138497809D01*
X147165408Y-138616899D01*
X158974592Y-145434936D01*
X159160822Y-145519316D01*
X159426517Y-145581267D01*
X159699192Y-145590194D01*
X159968369Y-145545752D01*
X160001621Y-145533237D01*
X160036671Y-145527450D01*
X160292006Y-145431349D01*
X160523686Y-145287281D01*
X160722809Y-145100782D01*
X160841899Y-144934592D01*
X167659936Y-133125408D01*
X167744316Y-132939178D01*
X167806267Y-132673483D01*
X167815194Y-132400808D01*
X167770752Y-132131631D01*
X167758237Y-132098380D01*
X167752450Y-132063328D01*
X167656349Y-131807993D01*
X167512281Y-131576313D01*
X167325782Y-131377190D01*
X167159592Y-131258100D01*
X155350407Y-124440064D01*
X155164177Y-124355684D01*
X154898482Y-124293733D01*
X154625808Y-124284806D01*
X154356631Y-124329248D01*
X154323380Y-124341763D01*
X154288328Y-124347550D01*
X154032993Y-124443651D01*
X153801313Y-124587719D01*
X153602190Y-124774218D01*
X153483100Y-124940408D01*
X146665064Y-136749593D01*
X146580684Y-136935823D01*
X146518733Y-137201518D01*
X146509806Y-137474192D01*
X124866250Y-137474192D01*
X124866250Y-132088213D01*
X124846210Y-131884743D01*
X124775111Y-131650358D01*
X139933000Y-131650358D01*
X139933000Y-132049642D01*
X140010896Y-132441254D01*
X140163696Y-132810145D01*
X140385526Y-133142137D01*
X140667863Y-133424474D01*
X140999855Y-133646304D01*
X141368746Y-133799104D01*
X141760358Y-133877000D01*
X142159642Y-133877000D01*
X142551254Y-133799104D01*
X142920145Y-133646304D01*
X143252137Y-133424474D01*
X143534474Y-133142137D01*
X143756304Y-132810145D01*
X143909104Y-132441254D01*
X143987000Y-132049642D01*
X143987000Y-131650358D01*
X143909104Y-131258746D01*
X143756304Y-130889855D01*
X143534474Y-130557863D01*
X143252137Y-130275526D01*
X142920145Y-130053696D01*
X142551254Y-129900896D01*
X142159642Y-129823000D01*
X141760358Y-129823000D01*
X141368746Y-129900896D01*
X140999855Y-130053696D01*
X140667863Y-130275526D01*
X140385526Y-130557863D01*
X140163696Y-130889855D01*
X140010896Y-131258746D01*
X139933000Y-131650358D01*
X124775111Y-131650358D01*
X124767014Y-131623669D01*
X124638407Y-131383062D01*
X124465330Y-131172169D01*
X124437871Y-131149634D01*
X124415331Y-131122169D01*
X124204438Y-130949093D01*
X123963831Y-130820486D01*
X123702757Y-130741290D01*
X123499287Y-130721250D01*
X109863213Y-130721250D01*
X109659743Y-130741290D01*
X109398669Y-130820486D01*
X109158062Y-130949093D01*
X108947169Y-131122169D01*
X108924629Y-131149634D01*
X108897169Y-131172170D01*
X108724093Y-131383063D01*
X108595486Y-131623670D01*
X108516290Y-131884744D01*
X108496250Y-132088214D01*
X108496250Y-138649639D01*
X108442137Y-138595526D01*
X108110145Y-138373696D01*
X107741254Y-138220896D01*
X107349642Y-138143000D01*
X106950358Y-138143000D01*
X106558746Y-138220896D01*
X106189855Y-138373696D01*
X105857863Y-138595526D01*
X105816250Y-138637139D01*
X105816250Y-128913213D01*
X105796210Y-128709743D01*
X105717014Y-128448669D01*
X105588407Y-128208062D01*
X105415330Y-127997169D01*
X105387871Y-127974634D01*
X105365331Y-127947169D01*
X105154438Y-127774093D01*
X104913831Y-127645486D01*
X104652757Y-127566290D01*
X104449287Y-127546250D01*
X90813213Y-127546250D01*
X90609743Y-127566290D01*
X90348669Y-127645486D01*
X90108062Y-127774093D01*
X89897169Y-127947169D01*
X89874629Y-127974634D01*
X89847169Y-127997170D01*
X89674093Y-128208063D01*
X89545486Y-128448670D01*
X89466290Y-128709744D01*
X89446250Y-128913214D01*
X89446251Y-137519640D01*
X89392137Y-137465526D01*
X89060145Y-137243696D01*
X88691254Y-137090896D01*
X88299642Y-137013000D01*
X87900358Y-137013000D01*
X87508746Y-137090896D01*
X87139855Y-137243696D01*
X86807863Y-137465526D01*
X86766250Y-137507139D01*
X86766250Y-131294463D01*
X86746210Y-131090993D01*
X86667014Y-130829919D01*
X86538407Y-130589312D01*
X86365330Y-130378419D01*
X86337871Y-130355884D01*
X86315331Y-130328419D01*
X86104438Y-130155343D01*
X85863831Y-130026736D01*
X85602757Y-129947540D01*
X85399287Y-129927500D01*
X71763213Y-129927500D01*
X71559743Y-129947540D01*
X71298669Y-130026736D01*
X71058062Y-130155343D01*
X70847169Y-130328419D01*
X70824629Y-130355884D01*
X70797169Y-130378420D01*
X70624093Y-130589313D01*
X70495486Y-130829920D01*
X70416290Y-131090994D01*
X70396250Y-131294464D01*
X67716250Y-131294464D01*
X67716250Y-120181963D01*
X67696210Y-119978493D01*
X67617014Y-119717419D01*
X67488407Y-119476812D01*
X67315330Y-119265919D01*
X67287871Y-119243384D01*
X67265331Y-119215919D01*
X67054438Y-119042843D01*
X66813831Y-118914236D01*
X66552757Y-118835040D01*
X66349287Y-118815000D01*
X52713213Y-118815000D01*
X52509743Y-118835040D01*
X52248669Y-118914236D01*
X52008062Y-119042843D01*
X51797169Y-119215919D01*
X51774629Y-119243384D01*
X51747169Y-119265920D01*
X51574093Y-119476813D01*
X51445486Y-119717420D01*
X51366290Y-119978494D01*
X51346250Y-120181964D01*
X48666250Y-120181964D01*
X48666250Y-120181963D01*
X48646210Y-119978493D01*
X48567014Y-119717419D01*
X48438407Y-119476812D01*
X48265330Y-119265919D01*
X48237871Y-119243384D01*
X48215331Y-119215919D01*
X48004438Y-119042843D01*
X47763831Y-118914236D01*
X47502757Y-118835040D01*
X47299287Y-118815000D01*
X33663213Y-118815000D01*
X33459743Y-118835040D01*
X33198669Y-118914236D01*
X32958062Y-119042843D01*
X32747169Y-119215919D01*
X32724629Y-119243384D01*
X32697169Y-119265920D01*
X32524093Y-119476813D01*
X32395486Y-119717420D01*
X32316290Y-119978494D01*
X32296250Y-120181964D01*
X29159886Y-120181964D01*
X29159822Y-101131964D01*
X32296250Y-101131964D01*
X32296251Y-114768037D01*
X32316291Y-114971507D01*
X32395487Y-115232581D01*
X32524094Y-115473188D01*
X32697170Y-115684081D01*
X32724629Y-115706616D01*
X32747169Y-115734081D01*
X32958062Y-115907157D01*
X33198669Y-116035764D01*
X33459743Y-116114960D01*
X33663213Y-116135000D01*
X47299287Y-116135000D01*
X47502757Y-116114960D01*
X47763831Y-116035764D01*
X48004438Y-115907157D01*
X48215331Y-115734081D01*
X48237869Y-115706619D01*
X48265331Y-115684081D01*
X48438407Y-115473188D01*
X48567014Y-115232581D01*
X48646210Y-114971507D01*
X48666250Y-114768037D01*
X48666250Y-111862861D01*
X48707863Y-111904474D01*
X49039855Y-112126304D01*
X49408746Y-112279104D01*
X49800358Y-112357000D01*
X50199642Y-112357000D01*
X50591254Y-112279104D01*
X50960145Y-112126304D01*
X51292137Y-111904474D01*
X51346251Y-111850360D01*
X51346251Y-114768037D01*
X51366291Y-114971507D01*
X51445487Y-115232581D01*
X51574094Y-115473188D01*
X51747170Y-115684081D01*
X51774629Y-115706616D01*
X51797169Y-115734081D01*
X52008062Y-115907157D01*
X52248669Y-116035764D01*
X52509743Y-116114960D01*
X52713213Y-116135000D01*
X66349287Y-116135000D01*
X66552757Y-116114960D01*
X66813831Y-116035764D01*
X67054438Y-115907157D01*
X67265331Y-115734081D01*
X67287869Y-115706619D01*
X67315331Y-115684081D01*
X67488407Y-115473188D01*
X67617014Y-115232581D01*
X67696210Y-114971507D01*
X67716250Y-114768037D01*
X67716250Y-112244464D01*
X70396250Y-112244464D01*
X70396251Y-125880537D01*
X70416291Y-126084007D01*
X70495487Y-126345081D01*
X70624094Y-126585688D01*
X70797170Y-126796581D01*
X70824629Y-126819116D01*
X70847169Y-126846581D01*
X71058062Y-127019657D01*
X71298669Y-127148264D01*
X71559743Y-127227460D01*
X71763213Y-127247500D01*
X85399287Y-127247500D01*
X85602757Y-127227460D01*
X85863831Y-127148264D01*
X86104438Y-127019657D01*
X86315331Y-126846581D01*
X86337869Y-126819119D01*
X86365331Y-126796581D01*
X86538407Y-126585688D01*
X86667014Y-126345081D01*
X86746210Y-126084007D01*
X86766250Y-125880537D01*
X86766250Y-112244463D01*
X86746210Y-112040993D01*
X86667014Y-111779919D01*
X86538407Y-111539312D01*
X86365330Y-111328419D01*
X86337871Y-111305884D01*
X86315331Y-111278419D01*
X86104438Y-111105343D01*
X85863831Y-110976736D01*
X85602757Y-110897540D01*
X85399287Y-110877500D01*
X71763213Y-110877500D01*
X71559743Y-110897540D01*
X71298669Y-110976736D01*
X71058062Y-111105343D01*
X70847169Y-111278419D01*
X70824629Y-111305884D01*
X70797169Y-111328420D01*
X70624093Y-111539313D01*
X70495486Y-111779920D01*
X70416290Y-112040994D01*
X70396250Y-112244464D01*
X67716250Y-112244464D01*
X67716250Y-109863214D01*
X89446250Y-109863214D01*
X89446251Y-123499287D01*
X89466291Y-123702757D01*
X89545487Y-123963831D01*
X89674094Y-124204438D01*
X89847170Y-124415331D01*
X89874629Y-124437866D01*
X89897169Y-124465331D01*
X90108062Y-124638407D01*
X90348669Y-124767014D01*
X90609743Y-124846210D01*
X90813213Y-124866250D01*
X104449287Y-124866250D01*
X104652757Y-124846210D01*
X104913831Y-124767014D01*
X105154438Y-124638407D01*
X105365331Y-124465331D01*
X105387869Y-124437869D01*
X105415331Y-124415331D01*
X105588407Y-124204438D01*
X105717014Y-123963831D01*
X105796210Y-123702757D01*
X105816250Y-123499287D01*
X105816250Y-113038214D01*
X108496250Y-113038214D01*
X108496251Y-126674287D01*
X108516291Y-126877757D01*
X108595487Y-127138831D01*
X108724094Y-127379438D01*
X108897170Y-127590331D01*
X108924629Y-127612866D01*
X108947169Y-127640331D01*
X109158062Y-127813407D01*
X109398669Y-127942014D01*
X109659743Y-128021210D01*
X109863213Y-128041250D01*
X123499287Y-128041250D01*
X123702757Y-128021210D01*
X123963831Y-127942014D01*
X124204438Y-127813407D01*
X124415331Y-127640331D01*
X124437869Y-127612869D01*
X124465331Y-127590331D01*
X124638407Y-127379438D01*
X124767014Y-127138831D01*
X124846210Y-126877757D01*
X124866250Y-126674287D01*
X124866250Y-114625714D01*
X127546250Y-114625714D01*
X127546251Y-128261787D01*
X127566291Y-128465257D01*
X127645487Y-128726331D01*
X127774094Y-128966938D01*
X127947170Y-129177831D01*
X127974629Y-129200366D01*
X127997169Y-129227831D01*
X128208062Y-129400907D01*
X128448669Y-129529514D01*
X128709743Y-129608710D01*
X128913213Y-129628750D01*
X142549287Y-129628750D01*
X142752757Y-129608710D01*
X143013831Y-129529514D01*
X143254438Y-129400907D01*
X143465331Y-129227831D01*
X143487869Y-129200369D01*
X143515331Y-129177831D01*
X143688407Y-128966938D01*
X143817014Y-128726331D01*
X143896210Y-128465257D01*
X143916250Y-128261787D01*
X143916250Y-114625713D01*
X143896210Y-114422243D01*
X143817014Y-114161169D01*
X143688407Y-113920562D01*
X143515330Y-113709669D01*
X143487871Y-113687134D01*
X143465331Y-113659669D01*
X143254438Y-113486593D01*
X143013831Y-113357986D01*
X142752757Y-113278790D01*
X142549287Y-113258750D01*
X128913213Y-113258750D01*
X128709743Y-113278790D01*
X128448669Y-113357986D01*
X128208062Y-113486593D01*
X127997169Y-113659669D01*
X127974629Y-113687134D01*
X127947169Y-113709670D01*
X127774093Y-113920563D01*
X127645486Y-114161170D01*
X127566290Y-114422244D01*
X127546250Y-114625714D01*
X124866250Y-114625714D01*
X124866250Y-113038213D01*
X124846210Y-112834743D01*
X124767014Y-112573669D01*
X124638407Y-112333062D01*
X124465330Y-112122169D01*
X124437871Y-112099634D01*
X124415331Y-112072169D01*
X124204438Y-111899093D01*
X123963831Y-111770486D01*
X123702757Y-111691290D01*
X123499287Y-111671250D01*
X109863213Y-111671250D01*
X109659743Y-111691290D01*
X109398669Y-111770486D01*
X109158062Y-111899093D01*
X108947169Y-112072169D01*
X108924629Y-112099634D01*
X108897169Y-112122170D01*
X108724093Y-112333063D01*
X108595486Y-112573670D01*
X108516290Y-112834744D01*
X108496250Y-113038214D01*
X105816250Y-113038214D01*
X105816250Y-109863213D01*
X105796210Y-109659743D01*
X105717014Y-109398669D01*
X105588407Y-109158062D01*
X105415330Y-108947169D01*
X105387871Y-108924634D01*
X105365331Y-108897169D01*
X105154438Y-108724093D01*
X104913831Y-108595486D01*
X104652757Y-108516290D01*
X104449287Y-108496250D01*
X90813213Y-108496250D01*
X90609743Y-108516290D01*
X90348669Y-108595486D01*
X90108062Y-108724093D01*
X89897169Y-108897169D01*
X89874629Y-108924634D01*
X89847169Y-108947170D01*
X89674093Y-109158063D01*
X89545486Y-109398670D01*
X89466290Y-109659744D01*
X89446250Y-109863214D01*
X67716250Y-109863214D01*
X67716250Y-101131963D01*
X67696210Y-100928493D01*
X67617014Y-100667419D01*
X67488407Y-100426812D01*
X67315330Y-100215919D01*
X67287871Y-100193384D01*
X67265331Y-100165919D01*
X67054438Y-99992843D01*
X66813831Y-99864236D01*
X66552757Y-99785040D01*
X66349287Y-99765000D01*
X52713213Y-99765000D01*
X52509743Y-99785040D01*
X52248669Y-99864236D01*
X52008062Y-99992843D01*
X51797169Y-100165919D01*
X51774629Y-100193384D01*
X51747169Y-100215920D01*
X51574093Y-100426813D01*
X51445486Y-100667420D01*
X51366290Y-100928494D01*
X51346250Y-101131964D01*
X51346251Y-108809640D01*
X51292137Y-108755526D01*
X50960145Y-108533696D01*
X50591254Y-108380896D01*
X50199642Y-108303000D01*
X49800358Y-108303000D01*
X49408746Y-108380896D01*
X49039855Y-108533696D01*
X48707863Y-108755526D01*
X48666250Y-108797139D01*
X48666250Y-101131963D01*
X48646210Y-100928493D01*
X48567014Y-100667419D01*
X48438407Y-100426812D01*
X48265330Y-100215919D01*
X48237871Y-100193384D01*
X48215331Y-100165919D01*
X48004438Y-99992843D01*
X47763831Y-99864236D01*
X47502757Y-99785040D01*
X47299287Y-99765000D01*
X33663213Y-99765000D01*
X33459743Y-99785040D01*
X33198669Y-99864236D01*
X32958062Y-99992843D01*
X32747169Y-100165919D01*
X32724629Y-100193384D01*
X32697169Y-100215920D01*
X32524093Y-100426813D01*
X32395486Y-100667420D01*
X32316290Y-100928494D01*
X32296250Y-101131964D01*
X29159822Y-101131964D01*
X29159757Y-82081964D01*
X32296250Y-82081964D01*
X32296251Y-95718037D01*
X32316291Y-95921507D01*
X32395487Y-96182581D01*
X32524094Y-96423188D01*
X32697170Y-96634081D01*
X32724629Y-96656616D01*
X32747169Y-96684081D01*
X32958062Y-96857157D01*
X33198669Y-96985764D01*
X33459743Y-97064960D01*
X33663213Y-97085000D01*
X47299287Y-97085000D01*
X47502757Y-97064960D01*
X47763831Y-96985764D01*
X48004438Y-96857157D01*
X48215331Y-96684081D01*
X48237869Y-96656619D01*
X48265331Y-96634081D01*
X48438407Y-96423188D01*
X48567014Y-96182581D01*
X48646210Y-95921507D01*
X48666250Y-95718037D01*
X48666250Y-82081964D01*
X51346250Y-82081964D01*
X51346251Y-95718037D01*
X51366291Y-95921507D01*
X51445487Y-96182581D01*
X51574094Y-96423188D01*
X51747170Y-96634081D01*
X51774629Y-96656616D01*
X51797169Y-96684081D01*
X52008062Y-96857157D01*
X52248669Y-96985764D01*
X52509743Y-97064960D01*
X52713213Y-97085000D01*
X66349287Y-97085000D01*
X66552757Y-97064960D01*
X66813831Y-96985764D01*
X67054438Y-96857157D01*
X67265331Y-96684081D01*
X67287869Y-96656619D01*
X67315331Y-96634081D01*
X67488407Y-96423188D01*
X67617014Y-96182581D01*
X67696210Y-95921507D01*
X67716250Y-95718037D01*
X67716250Y-93194464D01*
X70396250Y-93194464D01*
X70396251Y-106830537D01*
X70416291Y-107034007D01*
X70495487Y-107295081D01*
X70624094Y-107535688D01*
X70797170Y-107746581D01*
X70824629Y-107769116D01*
X70847169Y-107796581D01*
X71058062Y-107969657D01*
X71298669Y-108098264D01*
X71559743Y-108177460D01*
X71763213Y-108197500D01*
X85399287Y-108197500D01*
X85602757Y-108177460D01*
X85863831Y-108098264D01*
X86104438Y-107969657D01*
X86315331Y-107796581D01*
X86337869Y-107769119D01*
X86365331Y-107746581D01*
X86538407Y-107535688D01*
X86667014Y-107295081D01*
X86746210Y-107034007D01*
X86766250Y-106830537D01*
X86766250Y-102832861D01*
X86817863Y-102884474D01*
X87149855Y-103106304D01*
X87518746Y-103259104D01*
X87910358Y-103337000D01*
X88309642Y-103337000D01*
X88701254Y-103259104D01*
X89070145Y-103106304D01*
X89402137Y-102884474D01*
X89446251Y-102840360D01*
X89446251Y-104449287D01*
X89466291Y-104652757D01*
X89545487Y-104913831D01*
X89674094Y-105154438D01*
X89847170Y-105365331D01*
X89874629Y-105387866D01*
X89897169Y-105415331D01*
X90108062Y-105588407D01*
X90348669Y-105717014D01*
X90609743Y-105796210D01*
X90813213Y-105816250D01*
X104449287Y-105816250D01*
X104652757Y-105796210D01*
X104913831Y-105717014D01*
X105154438Y-105588407D01*
X105365331Y-105415331D01*
X105387869Y-105387869D01*
X105415331Y-105365331D01*
X105588407Y-105154438D01*
X105717014Y-104913831D01*
X105796210Y-104652757D01*
X105816250Y-104449287D01*
X105816250Y-103292861D01*
X105857863Y-103334474D01*
X106189855Y-103556304D01*
X106558746Y-103709104D01*
X106950358Y-103787000D01*
X107349642Y-103787000D01*
X107741254Y-103709104D01*
X108110145Y-103556304D01*
X108442137Y-103334474D01*
X108496251Y-103280360D01*
X108496251Y-107624287D01*
X108516291Y-107827757D01*
X108595487Y-108088831D01*
X108724094Y-108329438D01*
X108897170Y-108540331D01*
X108924629Y-108562866D01*
X108947169Y-108590331D01*
X109158062Y-108763407D01*
X109398669Y-108892014D01*
X109659743Y-108971210D01*
X109863213Y-108991250D01*
X123499287Y-108991250D01*
X123702757Y-108971210D01*
X123963831Y-108892014D01*
X124204438Y-108763407D01*
X124415331Y-108590331D01*
X124437869Y-108562869D01*
X124465331Y-108540331D01*
X124638407Y-108329438D01*
X124767014Y-108088831D01*
X124846210Y-107827757D01*
X124866250Y-107624287D01*
X124866250Y-95575714D01*
X127546250Y-95575714D01*
X127546251Y-109211787D01*
X127566291Y-109415257D01*
X127645487Y-109676331D01*
X127774094Y-109916938D01*
X127947170Y-110127831D01*
X127974629Y-110150366D01*
X127997169Y-110177831D01*
X128208062Y-110350907D01*
X128448669Y-110479514D01*
X128709743Y-110558710D01*
X128913213Y-110578750D01*
X142549287Y-110578750D01*
X142752757Y-110558710D01*
X143013831Y-110479514D01*
X143254438Y-110350907D01*
X143465331Y-110177831D01*
X143487869Y-110150369D01*
X143515331Y-110127831D01*
X143688407Y-109916938D01*
X143817014Y-109676331D01*
X143896210Y-109415257D01*
X143916250Y-109211787D01*
X143916250Y-105100714D01*
X146596250Y-105100714D01*
X146596251Y-118736787D01*
X146616291Y-118940257D01*
X146695487Y-119201331D01*
X146824094Y-119441938D01*
X146997170Y-119652831D01*
X147024629Y-119675366D01*
X147047169Y-119702831D01*
X147258062Y-119875907D01*
X147498669Y-120004514D01*
X147759743Y-120083710D01*
X147963213Y-120103750D01*
X161599287Y-120103750D01*
X161802757Y-120083710D01*
X162063831Y-120004514D01*
X162304438Y-119875907D01*
X162515331Y-119702831D01*
X162537869Y-119675369D01*
X162565331Y-119652831D01*
X162738407Y-119441938D01*
X162867014Y-119201331D01*
X162946210Y-118940257D01*
X162966250Y-118736787D01*
X162966250Y-105100713D01*
X162946210Y-104897243D01*
X162867014Y-104636169D01*
X162738407Y-104395562D01*
X162565330Y-104184669D01*
X162537871Y-104162134D01*
X162515331Y-104134669D01*
X162304438Y-103961593D01*
X162063831Y-103832986D01*
X161802757Y-103753790D01*
X161599287Y-103733750D01*
X147963213Y-103733750D01*
X147759743Y-103753790D01*
X147498669Y-103832986D01*
X147258062Y-103961593D01*
X147047169Y-104134669D01*
X147024629Y-104162134D01*
X146997169Y-104184670D01*
X146824093Y-104395563D01*
X146695486Y-104636170D01*
X146616290Y-104897244D01*
X146596250Y-105100714D01*
X143916250Y-105100714D01*
X143916250Y-95575713D01*
X143896210Y-95372243D01*
X143817014Y-95111169D01*
X143688407Y-94870562D01*
X143515330Y-94659669D01*
X143487871Y-94637134D01*
X143465331Y-94609669D01*
X143254438Y-94436593D01*
X143013831Y-94307986D01*
X142752757Y-94228790D01*
X142549287Y-94208750D01*
X128913213Y-94208750D01*
X128709743Y-94228790D01*
X128448669Y-94307986D01*
X128208062Y-94436593D01*
X127997169Y-94609669D01*
X127974629Y-94637134D01*
X127947169Y-94659670D01*
X127774093Y-94870563D01*
X127645486Y-95111170D01*
X127566290Y-95372244D01*
X127546250Y-95575714D01*
X124866250Y-95575714D01*
X124866250Y-93988213D01*
X124846210Y-93784743D01*
X124767014Y-93523669D01*
X124638407Y-93283062D01*
X124465330Y-93072169D01*
X124437871Y-93049634D01*
X124415331Y-93022169D01*
X124204438Y-92849093D01*
X123963831Y-92720486D01*
X123702757Y-92641290D01*
X123499287Y-92621250D01*
X109863213Y-92621250D01*
X109659743Y-92641290D01*
X109398669Y-92720486D01*
X109158062Y-92849093D01*
X108947169Y-93022169D01*
X108924629Y-93049634D01*
X108897169Y-93072170D01*
X108724093Y-93283063D01*
X108595486Y-93523670D01*
X108516290Y-93784744D01*
X108496250Y-93988214D01*
X108496250Y-100239639D01*
X108442137Y-100185526D01*
X108110145Y-99963696D01*
X107741254Y-99810896D01*
X107349642Y-99733000D01*
X106950358Y-99733000D01*
X106558746Y-99810896D01*
X106189855Y-99963696D01*
X105857863Y-100185526D01*
X105816250Y-100227139D01*
X105816250Y-90813213D01*
X105796210Y-90609743D01*
X105717014Y-90348669D01*
X105588407Y-90108062D01*
X105415330Y-89897169D01*
X105387871Y-89874634D01*
X105365331Y-89847169D01*
X105154438Y-89674093D01*
X104913831Y-89545486D01*
X104652757Y-89466290D01*
X104449287Y-89446250D01*
X90813213Y-89446250D01*
X90609743Y-89466290D01*
X90348669Y-89545486D01*
X90108062Y-89674093D01*
X89897169Y-89847169D01*
X89874629Y-89874634D01*
X89847169Y-89897170D01*
X89674093Y-90108063D01*
X89545486Y-90348670D01*
X89466290Y-90609744D01*
X89446250Y-90813214D01*
X89446251Y-99779640D01*
X89402137Y-99735526D01*
X89070145Y-99513696D01*
X88701254Y-99360896D01*
X88309642Y-99283000D01*
X87910358Y-99283000D01*
X87518746Y-99360896D01*
X87149855Y-99513696D01*
X86817863Y-99735526D01*
X86766250Y-99787139D01*
X86766250Y-93194463D01*
X86746210Y-92990993D01*
X86667014Y-92729919D01*
X86538407Y-92489312D01*
X86365330Y-92278419D01*
X86337871Y-92255884D01*
X86315331Y-92228419D01*
X86104438Y-92055343D01*
X85863831Y-91926736D01*
X85602757Y-91847540D01*
X85399287Y-91827500D01*
X71763213Y-91827500D01*
X71559743Y-91847540D01*
X71298669Y-91926736D01*
X71058062Y-92055343D01*
X70847169Y-92228419D01*
X70824629Y-92255884D01*
X70797169Y-92278420D01*
X70624093Y-92489313D01*
X70495486Y-92729920D01*
X70416290Y-92990994D01*
X70396250Y-93194464D01*
X67716250Y-93194464D01*
X67716250Y-82081963D01*
X67696210Y-81878493D01*
X67617014Y-81617419D01*
X67488407Y-81376812D01*
X67315330Y-81165919D01*
X67287871Y-81143384D01*
X67265331Y-81115919D01*
X67054438Y-80942843D01*
X66813831Y-80814236D01*
X66552757Y-80735040D01*
X66349287Y-80715000D01*
X52713213Y-80715000D01*
X52509743Y-80735040D01*
X52248669Y-80814236D01*
X52008062Y-80942843D01*
X51797169Y-81115919D01*
X51774629Y-81143384D01*
X51747169Y-81165920D01*
X51574093Y-81376813D01*
X51445486Y-81617420D01*
X51366290Y-81878494D01*
X51346250Y-82081964D01*
X48666250Y-82081964D01*
X48666250Y-82081963D01*
X48646210Y-81878493D01*
X48567014Y-81617419D01*
X48438407Y-81376812D01*
X48265330Y-81165919D01*
X48237871Y-81143384D01*
X48215331Y-81115919D01*
X48004438Y-80942843D01*
X47763831Y-80814236D01*
X47502757Y-80735040D01*
X47299287Y-80715000D01*
X33663213Y-80715000D01*
X33459743Y-80735040D01*
X33198669Y-80814236D01*
X32958062Y-80942843D01*
X32747169Y-81115919D01*
X32724629Y-81143384D01*
X32697169Y-81165920D01*
X32524093Y-81376813D01*
X32395486Y-81617420D01*
X32316290Y-81878494D01*
X32296250Y-82081964D01*
X29159757Y-82081964D01*
X29159692Y-63031964D01*
X32296250Y-63031964D01*
X32296251Y-76668037D01*
X32316291Y-76871507D01*
X32395487Y-77132581D01*
X32524094Y-77373188D01*
X32697170Y-77584081D01*
X32724629Y-77606616D01*
X32747169Y-77634081D01*
X32958062Y-77807157D01*
X33198669Y-77935764D01*
X33459743Y-78014960D01*
X33663213Y-78035000D01*
X47299287Y-78035000D01*
X47502757Y-78014960D01*
X47763831Y-77935764D01*
X48004438Y-77807157D01*
X48215331Y-77634081D01*
X48237869Y-77606619D01*
X48265331Y-77584081D01*
X48438407Y-77373188D01*
X48567014Y-77132581D01*
X48646210Y-76871507D01*
X48666250Y-76668037D01*
X48666250Y-73002861D01*
X48707863Y-73044474D01*
X49039855Y-73266304D01*
X49408746Y-73419104D01*
X49800358Y-73497000D01*
X50199642Y-73497000D01*
X50591254Y-73419104D01*
X50960145Y-73266304D01*
X51292137Y-73044474D01*
X51346251Y-72990360D01*
X51346251Y-76668037D01*
X51366291Y-76871507D01*
X51445487Y-77132581D01*
X51574094Y-77373188D01*
X51747170Y-77584081D01*
X51774629Y-77606616D01*
X51797169Y-77634081D01*
X52008062Y-77807157D01*
X52248669Y-77935764D01*
X52509743Y-78014960D01*
X52713213Y-78035000D01*
X66349287Y-78035000D01*
X66552757Y-78014960D01*
X66813831Y-77935764D01*
X67054438Y-77807157D01*
X67265331Y-77634081D01*
X67287869Y-77606619D01*
X67315331Y-77584081D01*
X67488407Y-77373188D01*
X67617014Y-77132581D01*
X67696210Y-76871507D01*
X67716250Y-76668037D01*
X67716250Y-74144464D01*
X70396250Y-74144464D01*
X70396251Y-87780537D01*
X70416291Y-87984007D01*
X70495487Y-88245081D01*
X70624094Y-88485688D01*
X70797170Y-88696581D01*
X70824629Y-88719116D01*
X70847169Y-88746581D01*
X71058062Y-88919657D01*
X71298669Y-89048264D01*
X71559743Y-89127460D01*
X71763213Y-89147500D01*
X85399287Y-89147500D01*
X85602757Y-89127460D01*
X85863831Y-89048264D01*
X86104438Y-88919657D01*
X86315331Y-88746581D01*
X86337869Y-88719119D01*
X86365331Y-88696581D01*
X86538407Y-88485688D01*
X86667014Y-88245081D01*
X86746210Y-87984007D01*
X86766250Y-87780537D01*
X86766250Y-74144463D01*
X86746210Y-73940993D01*
X86667014Y-73679919D01*
X86538407Y-73439312D01*
X86365330Y-73228419D01*
X86337871Y-73205884D01*
X86315331Y-73178419D01*
X86104438Y-73005343D01*
X85863831Y-72876736D01*
X85602757Y-72797540D01*
X85399287Y-72777500D01*
X71763213Y-72777500D01*
X71559743Y-72797540D01*
X71298669Y-72876736D01*
X71058062Y-73005343D01*
X70847169Y-73178419D01*
X70824629Y-73205884D01*
X70797169Y-73228420D01*
X70624093Y-73439313D01*
X70495486Y-73679920D01*
X70416290Y-73940994D01*
X70396250Y-74144464D01*
X67716250Y-74144464D01*
X67716250Y-71763214D01*
X89446250Y-71763214D01*
X89446251Y-85399287D01*
X89466291Y-85602757D01*
X89545487Y-85863831D01*
X89674094Y-86104438D01*
X89847170Y-86315331D01*
X89874629Y-86337866D01*
X89897169Y-86365331D01*
X90108062Y-86538407D01*
X90348669Y-86667014D01*
X90609743Y-86746210D01*
X90813213Y-86766250D01*
X104449287Y-86766250D01*
X104652757Y-86746210D01*
X104913831Y-86667014D01*
X105154438Y-86538407D01*
X105365331Y-86365331D01*
X105387869Y-86337869D01*
X105415331Y-86315331D01*
X105588407Y-86104438D01*
X105717014Y-85863831D01*
X105796210Y-85602757D01*
X105816250Y-85399287D01*
X105816250Y-74938214D01*
X108496250Y-74938214D01*
X108496251Y-88574287D01*
X108516291Y-88777757D01*
X108595487Y-89038831D01*
X108724094Y-89279438D01*
X108897170Y-89490331D01*
X108924629Y-89512866D01*
X108947169Y-89540331D01*
X109158062Y-89713407D01*
X109398669Y-89842014D01*
X109659743Y-89921210D01*
X109863213Y-89941250D01*
X123499287Y-89941250D01*
X123702757Y-89921210D01*
X123963831Y-89842014D01*
X124204438Y-89713407D01*
X124295949Y-89638306D01*
X124383696Y-89850145D01*
X124605526Y-90182137D01*
X124887863Y-90464474D01*
X125219855Y-90686304D01*
X125588746Y-90839104D01*
X125980358Y-90917000D01*
X126379642Y-90917000D01*
X126771254Y-90839104D01*
X127140145Y-90686304D01*
X127472137Y-90464474D01*
X127567469Y-90369142D01*
X127645487Y-90626331D01*
X127774094Y-90866938D01*
X127947170Y-91077831D01*
X127974629Y-91100366D01*
X127997169Y-91127831D01*
X128208062Y-91300907D01*
X128448669Y-91429514D01*
X128709743Y-91508710D01*
X128913213Y-91528750D01*
X142549287Y-91528750D01*
X142752757Y-91508710D01*
X143013831Y-91429514D01*
X143254438Y-91300907D01*
X143465331Y-91127831D01*
X143487869Y-91100369D01*
X143515331Y-91077831D01*
X143688407Y-90866938D01*
X143817014Y-90626331D01*
X143896210Y-90365257D01*
X143916250Y-90161787D01*
X143916250Y-86050714D01*
X146596250Y-86050714D01*
X146596251Y-99686787D01*
X146616291Y-99890257D01*
X146695487Y-100151331D01*
X146824094Y-100391938D01*
X146997170Y-100602831D01*
X147024629Y-100625366D01*
X147047169Y-100652831D01*
X147258062Y-100825907D01*
X147498669Y-100954514D01*
X147759743Y-101033710D01*
X147963213Y-101053750D01*
X161599287Y-101053750D01*
X161802757Y-101033710D01*
X162063831Y-100954514D01*
X162304438Y-100825907D01*
X162515331Y-100652831D01*
X162537869Y-100625369D01*
X162565331Y-100602831D01*
X162738407Y-100391938D01*
X162867014Y-100151331D01*
X162946210Y-99890257D01*
X162966250Y-99686787D01*
X162966250Y-86050713D01*
X162946210Y-85847243D01*
X162867014Y-85586169D01*
X162738407Y-85345562D01*
X162565330Y-85134669D01*
X162537871Y-85112134D01*
X162515331Y-85084669D01*
X162304438Y-84911593D01*
X162063831Y-84782986D01*
X161802757Y-84703790D01*
X161599287Y-84683750D01*
X147963213Y-84683750D01*
X147759743Y-84703790D01*
X147498669Y-84782986D01*
X147258062Y-84911593D01*
X147047169Y-85084669D01*
X147024629Y-85112134D01*
X146997169Y-85134670D01*
X146824093Y-85345563D01*
X146695486Y-85586170D01*
X146616290Y-85847244D01*
X146596250Y-86050714D01*
X143916250Y-86050714D01*
X143916250Y-76525713D01*
X143896210Y-76322243D01*
X143817014Y-76061169D01*
X143688407Y-75820562D01*
X143515330Y-75609669D01*
X143487871Y-75587134D01*
X143465331Y-75559669D01*
X143254438Y-75386593D01*
X143013831Y-75257986D01*
X142752757Y-75178790D01*
X142549287Y-75158750D01*
X128913213Y-75158750D01*
X128709743Y-75178790D01*
X128448669Y-75257986D01*
X128208062Y-75386593D01*
X127997169Y-75559669D01*
X127974629Y-75587134D01*
X127947169Y-75609670D01*
X127774093Y-75820563D01*
X127645486Y-76061170D01*
X127566290Y-76322244D01*
X127546250Y-76525714D01*
X127546251Y-87389640D01*
X127472137Y-87315526D01*
X127140145Y-87093696D01*
X126771254Y-86940896D01*
X126379642Y-86863000D01*
X125980358Y-86863000D01*
X125588746Y-86940896D01*
X125219855Y-87093696D01*
X124887863Y-87315526D01*
X124866250Y-87337139D01*
X124866250Y-74938213D01*
X124846210Y-74734743D01*
X124767014Y-74473669D01*
X124638407Y-74233062D01*
X124465330Y-74022169D01*
X124437871Y-73999634D01*
X124415331Y-73972169D01*
X124204438Y-73799093D01*
X123963831Y-73670486D01*
X123702757Y-73591290D01*
X123499287Y-73571250D01*
X109863213Y-73571250D01*
X109659743Y-73591290D01*
X109398669Y-73670486D01*
X109158062Y-73799093D01*
X108947169Y-73972169D01*
X108924629Y-73999634D01*
X108897169Y-74022170D01*
X108724093Y-74233063D01*
X108595486Y-74473670D01*
X108516290Y-74734744D01*
X108496250Y-74938214D01*
X105816250Y-74938214D01*
X105816250Y-71763213D01*
X105796210Y-71559743D01*
X105717014Y-71298669D01*
X105588407Y-71058062D01*
X105415330Y-70847169D01*
X105387871Y-70824634D01*
X105365331Y-70797169D01*
X105154438Y-70624093D01*
X104913831Y-70495486D01*
X104652757Y-70416290D01*
X104449287Y-70396250D01*
X90813213Y-70396250D01*
X90609743Y-70416290D01*
X90348669Y-70495486D01*
X90108062Y-70624093D01*
X89897169Y-70797169D01*
X89874629Y-70824634D01*
X89847169Y-70847170D01*
X89674093Y-71058063D01*
X89545486Y-71298670D01*
X89466290Y-71559744D01*
X89446250Y-71763214D01*
X67716250Y-71763214D01*
X67716250Y-63031963D01*
X67696210Y-62828493D01*
X67617014Y-62567419D01*
X67488407Y-62326812D01*
X67315330Y-62115919D01*
X67287871Y-62093384D01*
X67265331Y-62065919D01*
X67054438Y-61892843D01*
X66813831Y-61764236D01*
X66552757Y-61685040D01*
X66349287Y-61665000D01*
X52713213Y-61665000D01*
X52509743Y-61685040D01*
X52248669Y-61764236D01*
X52008062Y-61892843D01*
X51797169Y-62065919D01*
X51774629Y-62093384D01*
X51747169Y-62115920D01*
X51574093Y-62326813D01*
X51445486Y-62567420D01*
X51366290Y-62828494D01*
X51346250Y-63031964D01*
X51346251Y-69949640D01*
X51292137Y-69895526D01*
X50960145Y-69673696D01*
X50591254Y-69520896D01*
X50199642Y-69443000D01*
X49800358Y-69443000D01*
X49408746Y-69520896D01*
X49039855Y-69673696D01*
X48707863Y-69895526D01*
X48666250Y-69937139D01*
X48666250Y-63031963D01*
X48646210Y-62828493D01*
X48567014Y-62567419D01*
X48438407Y-62326812D01*
X48265330Y-62115919D01*
X48237871Y-62093384D01*
X48215331Y-62065919D01*
X48004438Y-61892843D01*
X47763831Y-61764236D01*
X47502757Y-61685040D01*
X47299287Y-61665000D01*
X33663213Y-61665000D01*
X33459743Y-61685040D01*
X33198669Y-61764236D01*
X32958062Y-61892843D01*
X32747169Y-62065919D01*
X32724629Y-62093384D01*
X32697169Y-62115920D01*
X32524093Y-62326813D01*
X32395486Y-62567420D01*
X32316290Y-62828494D01*
X32296250Y-63031964D01*
X29159692Y-63031964D01*
X29159688Y-62032285D01*
X29226409Y-61351814D01*
X29414656Y-60728310D01*
X29720419Y-60153254D01*
X30132060Y-59648532D01*
X30633894Y-59233379D01*
X31223661Y-58914493D01*
X31428044Y-58838060D01*
X51284131Y-55094464D01*
X70396250Y-55094464D01*
X70396251Y-68730537D01*
X70416291Y-68934007D01*
X70495487Y-69195081D01*
X70624094Y-69435688D01*
X70797170Y-69646581D01*
X70824629Y-69669116D01*
X70847169Y-69696581D01*
X71058062Y-69869657D01*
X71298669Y-69998264D01*
X71559743Y-70077460D01*
X71763213Y-70097500D01*
X85399287Y-70097500D01*
X85602757Y-70077460D01*
X85863831Y-69998264D01*
X86104438Y-69869657D01*
X86315331Y-69696581D01*
X86337869Y-69669119D01*
X86365331Y-69646581D01*
X86538407Y-69435688D01*
X86667014Y-69195081D01*
X86746210Y-68934007D01*
X86766250Y-68730537D01*
X86766250Y-64772861D01*
X86817863Y-64824474D01*
X87149855Y-65046304D01*
X87518746Y-65199104D01*
X87910358Y-65277000D01*
X88309642Y-65277000D01*
X88701254Y-65199104D01*
X89070145Y-65046304D01*
X89402137Y-64824474D01*
X89446251Y-64780360D01*
X89446251Y-66349287D01*
X89466291Y-66552757D01*
X89545487Y-66813831D01*
X89674094Y-67054438D01*
X89847170Y-67265331D01*
X89874629Y-67287866D01*
X89897169Y-67315331D01*
X90108062Y-67488407D01*
X90348669Y-67617014D01*
X90609743Y-67696210D01*
X90813213Y-67716250D01*
X104449287Y-67716250D01*
X104652757Y-67696210D01*
X104913831Y-67617014D01*
X105154438Y-67488407D01*
X105365331Y-67315331D01*
X105387869Y-67287869D01*
X105415331Y-67265331D01*
X105588407Y-67054438D01*
X105717014Y-66813831D01*
X105796210Y-66552757D01*
X105816250Y-66349287D01*
X105816250Y-65562861D01*
X105857863Y-65604474D01*
X106189855Y-65826304D01*
X106558746Y-65979104D01*
X106950358Y-66057000D01*
X107349642Y-66057000D01*
X107741254Y-65979104D01*
X108110145Y-65826304D01*
X108442137Y-65604474D01*
X108496251Y-65550360D01*
X108496251Y-69524287D01*
X108516291Y-69727757D01*
X108595487Y-69988831D01*
X108724094Y-70229438D01*
X108897170Y-70440331D01*
X108924629Y-70462866D01*
X108947169Y-70490331D01*
X109158062Y-70663407D01*
X109398669Y-70792014D01*
X109659743Y-70871210D01*
X109863213Y-70891250D01*
X123499287Y-70891250D01*
X123702757Y-70871210D01*
X123963831Y-70792014D01*
X124204438Y-70663407D01*
X124415331Y-70490331D01*
X124437869Y-70462869D01*
X124465331Y-70440331D01*
X124638407Y-70229438D01*
X124767014Y-69988831D01*
X124846210Y-69727757D01*
X124866250Y-69524287D01*
X124866250Y-57475714D01*
X127546250Y-57475714D01*
X127546251Y-71111787D01*
X127566291Y-71315257D01*
X127645487Y-71576331D01*
X127774094Y-71816938D01*
X127947170Y-72027831D01*
X127974629Y-72050366D01*
X127997169Y-72077831D01*
X128208062Y-72250907D01*
X128448669Y-72379514D01*
X128709743Y-72458710D01*
X128913213Y-72478750D01*
X142549287Y-72478750D01*
X142752757Y-72458710D01*
X143013831Y-72379514D01*
X143254438Y-72250907D01*
X143465331Y-72077831D01*
X143487869Y-72050369D01*
X143515331Y-72027831D01*
X143688407Y-71816938D01*
X143817014Y-71576331D01*
X143896210Y-71315257D01*
X143916250Y-71111787D01*
X143916250Y-57475713D01*
X143896210Y-57272243D01*
X143817014Y-57011169D01*
X143688407Y-56770562D01*
X143515330Y-56559669D01*
X143487871Y-56537134D01*
X143465331Y-56509669D01*
X143254438Y-56336593D01*
X143013831Y-56207986D01*
X142752757Y-56128790D01*
X142549287Y-56108750D01*
X128913213Y-56108750D01*
X128709743Y-56128790D01*
X128448669Y-56207986D01*
X128208062Y-56336593D01*
X127997169Y-56509669D01*
X127974629Y-56537134D01*
X127947169Y-56559670D01*
X127774093Y-56770563D01*
X127645486Y-57011170D01*
X127566290Y-57272244D01*
X127546250Y-57475714D01*
X124866250Y-57475714D01*
X124866250Y-55888213D01*
X124846210Y-55684743D01*
X124767014Y-55423669D01*
X124638407Y-55183062D01*
X124465330Y-54972169D01*
X124437871Y-54949634D01*
X124415331Y-54922169D01*
X124204438Y-54749093D01*
X123963831Y-54620486D01*
X123702757Y-54541290D01*
X123499287Y-54521250D01*
X109863213Y-54521250D01*
X109659743Y-54541290D01*
X109398669Y-54620486D01*
X109158062Y-54749093D01*
X108947169Y-54922169D01*
X108924629Y-54949634D01*
X108897169Y-54972170D01*
X108724093Y-55183063D01*
X108595486Y-55423670D01*
X108516290Y-55684744D01*
X108496250Y-55888214D01*
X108496250Y-62509639D01*
X108442137Y-62455526D01*
X108110145Y-62233696D01*
X107741254Y-62080896D01*
X107349642Y-62003000D01*
X106950358Y-62003000D01*
X106558746Y-62080896D01*
X106189855Y-62233696D01*
X105857863Y-62455526D01*
X105816250Y-62497139D01*
X105816250Y-52713213D01*
X105796210Y-52509743D01*
X105717014Y-52248669D01*
X105588407Y-52008062D01*
X105415330Y-51797169D01*
X105387871Y-51774634D01*
X105365331Y-51747169D01*
X105154438Y-51574093D01*
X104913831Y-51445486D01*
X104652757Y-51366290D01*
X104449287Y-51346250D01*
X90813213Y-51346250D01*
X90609743Y-51366290D01*
X90348669Y-51445486D01*
X90108062Y-51574093D01*
X89897169Y-51747169D01*
X89874629Y-51774634D01*
X89847169Y-51797170D01*
X89674093Y-52008063D01*
X89545486Y-52248670D01*
X89466290Y-52509744D01*
X89446250Y-52713214D01*
X89446251Y-61719640D01*
X89402137Y-61675526D01*
X89070145Y-61453696D01*
X88701254Y-61300896D01*
X88309642Y-61223000D01*
X87910358Y-61223000D01*
X87518746Y-61300896D01*
X87149855Y-61453696D01*
X86817863Y-61675526D01*
X86766250Y-61727139D01*
X86766250Y-55094463D01*
X86746210Y-54890993D01*
X86667014Y-54629919D01*
X86538407Y-54389312D01*
X86365330Y-54178419D01*
X86337871Y-54155884D01*
X86315331Y-54128419D01*
X86104438Y-53955343D01*
X85863831Y-53826736D01*
X85602757Y-53747540D01*
X85399287Y-53727500D01*
X71763213Y-53727500D01*
X71559743Y-53747540D01*
X71298669Y-53826736D01*
X71058062Y-53955343D01*
X70847169Y-54128419D01*
X70824629Y-54155884D01*
X70797169Y-54178420D01*
X70624093Y-54389313D01*
X70495486Y-54629920D01*
X70416290Y-54890994D01*
X70396250Y-55094464D01*
X51284131Y-55094464D01*
X86426796Y-48468791D01*
X88636587Y-48237308D01*
X90861472Y-48160000D01*
X134891393Y-48162738D01*
G36*
X171703278Y-159149222D02*
G01*
X166288278Y-168528278D01*
X156909221Y-163113277D01*
X162324223Y-153734221D01*
X171703278Y-159149222D01*
G37*
X171703278Y-159149222D02*
X166288278Y-168528278D01*
X156909221Y-163113277D01*
X162324223Y-153734221D01*
X171703278Y-159149222D01*
G36*
X151065778Y-147242972D02*
G01*
X145650778Y-156622028D01*
X136271721Y-151207027D01*
X141686723Y-141827971D01*
X151065778Y-147242972D01*
G37*
X151065778Y-147242972D02*
X145650778Y-156622028D01*
X136271721Y-151207027D01*
X141686723Y-141827971D01*
X151065778Y-147242972D01*
G36*
X45896251Y-151465000D02*
G01*
X35066250Y-151465000D01*
X35066250Y-140635000D01*
X45896250Y-140635000D01*
X45896251Y-151465000D01*
G37*
X45896251Y-151465000D02*
X35066250Y-151465000D01*
X35066250Y-140635000D01*
X45896250Y-140635000D01*
X45896251Y-151465000D01*
G36*
X64946251Y-151465000D02*
G01*
X54116250Y-151465000D01*
X54116250Y-140635000D01*
X64946250Y-140635000D01*
X64946251Y-151465000D01*
G37*
X64946251Y-151465000D02*
X54116250Y-151465000D01*
X54116250Y-140635000D01*
X64946250Y-140635000D01*
X64946251Y-151465000D01*
G36*
X122096251Y-144321250D02*
G01*
X111266250Y-144321250D01*
X111266250Y-133491250D01*
X122096250Y-133491250D01*
X122096251Y-144321250D01*
G37*
X122096251Y-144321250D02*
X111266250Y-144321250D01*
X111266250Y-133491250D01*
X122096250Y-133491250D01*
X122096251Y-144321250D01*
G36*
X83996251Y-143527500D02*
G01*
X73166250Y-143527500D01*
X73166250Y-132697500D01*
X83996250Y-132697500D01*
X83996251Y-143527500D01*
G37*
X83996251Y-143527500D02*
X73166250Y-143527500D01*
X73166250Y-132697500D01*
X83996250Y-132697500D01*
X83996251Y-143527500D01*
G36*
X103046251Y-141146250D02*
G01*
X92216250Y-141146250D01*
X92216250Y-130316250D01*
X103046250Y-130316250D01*
X103046251Y-141146250D01*
G37*
X103046251Y-141146250D02*
X92216250Y-141146250D01*
X92216250Y-130316250D01*
X103046250Y-130316250D01*
X103046251Y-141146250D01*
G36*
X164559528Y-132955472D02*
G01*
X159144528Y-142334528D01*
X149765471Y-136919527D01*
X155180473Y-127540471D01*
X164559528Y-132955472D01*
G37*
X164559528Y-132955472D02*
X159144528Y-142334528D01*
X149765471Y-136919527D01*
X155180473Y-127540471D01*
X164559528Y-132955472D01*
G36*
X64946251Y-132415000D02*
G01*
X54116250Y-132415000D01*
X54116250Y-121585000D01*
X64946250Y-121585000D01*
X64946251Y-132415000D01*
G37*
X64946251Y-132415000D02*
X54116250Y-132415000D01*
X54116250Y-121585000D01*
X64946250Y-121585000D01*
X64946251Y-132415000D01*
G36*
X45896251Y-132415000D02*
G01*
X35066250Y-132415000D01*
X35066250Y-121585000D01*
X45896250Y-121585000D01*
X45896251Y-132415000D01*
G37*
X45896251Y-132415000D02*
X35066250Y-132415000D01*
X35066250Y-121585000D01*
X45896250Y-121585000D01*
X45896251Y-132415000D01*
G36*
X141146251Y-126858750D02*
G01*
X130316250Y-126858750D01*
X130316250Y-116028750D01*
X141146250Y-116028750D01*
X141146251Y-126858750D01*
G37*
X141146251Y-126858750D02*
X130316250Y-126858750D01*
X130316250Y-116028750D01*
X141146250Y-116028750D01*
X141146251Y-126858750D01*
G36*
X122096251Y-125271250D02*
G01*
X111266250Y-125271250D01*
X111266250Y-114441250D01*
X122096250Y-114441250D01*
X122096251Y-125271250D01*
G37*
X122096251Y-125271250D02*
X111266250Y-125271250D01*
X111266250Y-114441250D01*
X122096250Y-114441250D01*
X122096251Y-125271250D01*
G36*
X83996251Y-124477500D02*
G01*
X73166250Y-124477500D01*
X73166250Y-113647500D01*
X83996250Y-113647500D01*
X83996251Y-124477500D01*
G37*
X83996251Y-124477500D02*
X73166250Y-124477500D01*
X73166250Y-113647500D01*
X83996250Y-113647500D01*
X83996251Y-124477500D01*
G36*
X103046251Y-122096250D02*
G01*
X92216250Y-122096250D01*
X92216250Y-111266250D01*
X103046250Y-111266250D01*
X103046251Y-122096250D01*
G37*
X103046251Y-122096250D02*
X92216250Y-122096250D01*
X92216250Y-111266250D01*
X103046250Y-111266250D01*
X103046251Y-122096250D01*
G36*
X160196251Y-117333750D02*
G01*
X149366250Y-117333750D01*
X149366250Y-106503750D01*
X160196250Y-106503750D01*
X160196251Y-117333750D01*
G37*
X160196251Y-117333750D02*
X149366250Y-117333750D01*
X149366250Y-106503750D01*
X160196250Y-106503750D01*
X160196251Y-117333750D01*
G36*
X45896251Y-113365000D02*
G01*
X35066250Y-113365000D01*
X35066250Y-102535000D01*
X45896250Y-102535000D01*
X45896251Y-113365000D01*
G37*
X45896251Y-113365000D02*
X35066250Y-113365000D01*
X35066250Y-102535000D01*
X45896250Y-102535000D01*
X45896251Y-113365000D01*
G36*
X64946251Y-113365000D02*
G01*
X54116250Y-113365000D01*
X54116250Y-102535000D01*
X64946250Y-102535000D01*
X64946251Y-113365000D01*
G37*
X64946251Y-113365000D02*
X54116250Y-113365000D01*
X54116250Y-102535000D01*
X64946250Y-102535000D01*
X64946251Y-113365000D01*
G36*
X141146251Y-107808750D02*
G01*
X130316250Y-107808750D01*
X130316250Y-96978750D01*
X141146250Y-96978750D01*
X141146251Y-107808750D01*
G37*
X141146251Y-107808750D02*
X130316250Y-107808750D01*
X130316250Y-96978750D01*
X141146250Y-96978750D01*
X141146251Y-107808750D01*
G36*
X122096251Y-106221250D02*
G01*
X111266250Y-106221250D01*
X111266250Y-95391250D01*
X122096250Y-95391250D01*
X122096251Y-106221250D01*
G37*
X122096251Y-106221250D02*
X111266250Y-106221250D01*
X111266250Y-95391250D01*
X122096250Y-95391250D01*
X122096251Y-106221250D01*
G36*
X83996251Y-105427500D02*
G01*
X73166250Y-105427500D01*
X73166250Y-94597500D01*
X83996250Y-94597500D01*
X83996251Y-105427500D01*
G37*
X83996251Y-105427500D02*
X73166250Y-105427500D01*
X73166250Y-94597500D01*
X83996250Y-94597500D01*
X83996251Y-105427500D01*
G36*
X103046251Y-103046250D02*
G01*
X92216250Y-103046250D01*
X92216250Y-92216250D01*
X103046250Y-92216250D01*
X103046251Y-103046250D01*
G37*
X103046251Y-103046250D02*
X92216250Y-103046250D01*
X92216250Y-92216250D01*
X103046250Y-92216250D01*
X103046251Y-103046250D01*
G36*
X160196251Y-98283750D02*
G01*
X149366250Y-98283750D01*
X149366250Y-87453750D01*
X160196250Y-87453750D01*
X160196251Y-98283750D01*
G37*
X160196251Y-98283750D02*
X149366250Y-98283750D01*
X149366250Y-87453750D01*
X160196250Y-87453750D01*
X160196251Y-98283750D01*
G36*
X45896251Y-94315000D02*
G01*
X35066250Y-94315000D01*
X35066250Y-83485000D01*
X45896250Y-83485000D01*
X45896251Y-94315000D01*
G37*
X45896251Y-94315000D02*
X35066250Y-94315000D01*
X35066250Y-83485000D01*
X45896250Y-83485000D01*
X45896251Y-94315000D01*
G36*
X64946251Y-94315000D02*
G01*
X54116250Y-94315000D01*
X54116250Y-83485000D01*
X64946250Y-83485000D01*
X64946251Y-94315000D01*
G37*
X64946251Y-94315000D02*
X54116250Y-94315000D01*
X54116250Y-83485000D01*
X64946250Y-83485000D01*
X64946251Y-94315000D01*
G36*
X141146251Y-88758750D02*
G01*
X130316250Y-88758750D01*
X130316250Y-77928750D01*
X141146250Y-77928750D01*
X141146251Y-88758750D01*
G37*
X141146251Y-88758750D02*
X130316250Y-88758750D01*
X130316250Y-77928750D01*
X141146250Y-77928750D01*
X141146251Y-88758750D01*
G36*
X122096251Y-87171250D02*
G01*
X111266250Y-87171250D01*
X111266250Y-76341250D01*
X122096250Y-76341250D01*
X122096251Y-87171250D01*
G37*
X122096251Y-87171250D02*
X111266250Y-87171250D01*
X111266250Y-76341250D01*
X122096250Y-76341250D01*
X122096251Y-87171250D01*
G36*
X83996251Y-86377500D02*
G01*
X73166250Y-86377500D01*
X73166250Y-75547500D01*
X83996250Y-75547500D01*
X83996251Y-86377500D01*
G37*
X83996251Y-86377500D02*
X73166250Y-86377500D01*
X73166250Y-75547500D01*
X83996250Y-75547500D01*
X83996251Y-86377500D01*
G36*
X103046251Y-83996250D02*
G01*
X92216250Y-83996250D01*
X92216250Y-73166250D01*
X103046250Y-73166250D01*
X103046251Y-83996250D01*
G37*
X103046251Y-83996250D02*
X92216250Y-83996250D01*
X92216250Y-73166250D01*
X103046250Y-73166250D01*
X103046251Y-83996250D01*
G36*
X64946251Y-75265000D02*
G01*
X54116250Y-75265000D01*
X54116250Y-64435000D01*
X64946250Y-64435000D01*
X64946251Y-75265000D01*
G37*
X64946251Y-75265000D02*
X54116250Y-75265000D01*
X54116250Y-64435000D01*
X64946250Y-64435000D01*
X64946251Y-75265000D01*
G36*
X45896251Y-75265000D02*
G01*
X35066250Y-75265000D01*
X35066250Y-64435000D01*
X45896250Y-64435000D01*
X45896251Y-75265000D01*
G37*
X45896251Y-75265000D02*
X35066250Y-75265000D01*
X35066250Y-64435000D01*
X45896250Y-64435000D01*
X45896251Y-75265000D01*
G36*
X141146251Y-69708750D02*
G01*
X130316250Y-69708750D01*
X130316250Y-58878750D01*
X141146250Y-58878750D01*
X141146251Y-69708750D01*
G37*
X141146251Y-69708750D02*
X130316250Y-69708750D01*
X130316250Y-58878750D01*
X141146250Y-58878750D01*
X141146251Y-69708750D01*
G36*
X122096251Y-68121250D02*
G01*
X111266250Y-68121250D01*
X111266250Y-57291250D01*
X122096250Y-57291250D01*
X122096251Y-68121250D01*
G37*
X122096251Y-68121250D02*
X111266250Y-68121250D01*
X111266250Y-57291250D01*
X122096250Y-57291250D01*
X122096251Y-68121250D01*
G36*
X83996251Y-67327500D02*
G01*
X73166250Y-67327500D01*
X73166250Y-56497500D01*
X83996250Y-56497500D01*
X83996251Y-67327500D01*
G37*
X83996251Y-67327500D02*
X73166250Y-67327500D01*
X73166250Y-56497500D01*
X83996250Y-56497500D01*
X83996251Y-67327500D01*
G36*
X103046251Y-64946250D02*
G01*
X92216250Y-64946250D01*
X92216250Y-54116250D01*
X103046250Y-54116250D01*
X103046251Y-64946250D01*
G37*
X103046251Y-64946250D02*
X92216250Y-64946250D01*
X92216250Y-54116250D01*
X103046250Y-54116250D01*
X103046251Y-64946250D01*
M02*
