M48
; DRILL file {KiCad (5.1.5)-3} date 12/20/2020 11:31:46 PM
; FORMAT={-:-/ absolute / inch / decimal}
; #@! TF.CreationDate,2020-12-20T23:31:46-06:00
; #@! TF.GenerationSoftware,Kicad,Pcbnew,(5.1.5)-3
; #@! TF.FileFunction,NonPlated,1,2,NPTH
FMAT,2
INCH
T1C0.0472
T2C0.0591
T3C0.0689
T4C0.0866
T5C0.1378
T6C0.1570
%
G90
G05
T1
X6.75Y-1.9331
X6.75Y-2.2087
X6.8189Y-1.9331
X6.8189Y-2.2087
T3
X4.3937Y-4.7188
X4.7938Y-4.7188
X4.3937Y-3.9688
X4.7938Y-3.9688
X1.3938Y-3.5
X1.7937Y-3.5
X2.8937Y-3.9375
X3.2937Y-3.9375
X1.3937Y-5.7512
X1.7937Y-5.7512
X3.6437Y-4.5938
X4.0438Y-4.5938
X6.0143Y-5.2125
X6.3607Y-5.4125
X2.1437Y-3.5004
X2.5437Y-3.5004
X2.1437Y-2.75
X2.5437Y-2.75
X3.6437Y-3.0938
X4.0438Y-3.0938
X5.1437Y-4.0312
X5.5438Y-4.0312
X1.3938Y-4.25
X1.7937Y-4.25
X5.1437Y-2.5312
X5.5438Y-2.5312
X2.1437Y-5.75
X2.5437Y-5.75
X4.3937Y-5.4688
X4.7938Y-5.4688
X5.8937Y-3.6562
X6.2938Y-3.6562
X5.1437Y-3.2812
X5.5438Y-3.2812
X2.8937Y-2.4375
X3.2937Y-2.4375
X3.6437Y-5.3438
X4.0438Y-5.3438
X6.2955Y-6.2437
X6.642Y-6.4437
X1.3938Y-2.75
X1.7937Y-2.75
X3.6437Y-2.3438
X4.0438Y-2.3438
X2.8937Y-4.6875
X3.2937Y-4.6875
X2.1437Y-4.25
X2.5437Y-4.25
X3.6437Y-3.8438
X4.0438Y-3.8438
X1.3938Y-5.0
X1.7937Y-5.0
X4.3937Y-2.4688
X4.7938Y-2.4688
X5.483Y-5.775
X5.8295Y-5.975
X2.8937Y-5.4375
X3.2937Y-5.4375
X2.1437Y-5.0
X2.5437Y-5.0
X4.3937Y-3.2188
X4.7938Y-3.2188
X5.1437Y-4.7812
X5.5438Y-4.7812
X2.8937Y-3.1875
X3.2937Y-3.1875
X5.8937Y-4.4062
X6.2938Y-4.4062
T4
X6.9921Y-5.0197
X6.9902Y-3.2913
X6.6772Y-3.2913
X6.8438Y-3.6875
X6.6654Y-5.0197
X6.8438Y-4.4062
X5.7244Y-1.9665
T5
X1.974Y-5.8634
X3.4764Y-2.4902
X3.4685Y-5.4744
X3.4693Y-3.989
X5.5894Y-5.1909
X4.9688Y-3.5
X6.9154Y-5.2193
X1.9688Y-4.3438
X4.2185Y-4.0067
X6.5854Y-6.8075
X1.9661Y-2.813
X4.2189Y-5.5189
X4.2193Y-2.5217
T6
X3.8438Y-4.5938
X6.1875Y-5.3125
X2.3437Y-3.5004
X2.3438Y-2.75
X3.8438Y-3.0938
X5.3438Y-4.0312
X1.5938Y-4.25
X5.3438Y-2.5312
X2.3438Y-5.75
X4.5938Y-5.4688
X6.0938Y-3.6562
X5.3438Y-3.2812
X3.0938Y-2.4375
X3.8438Y-5.3438
X6.4688Y-6.3438
X1.5938Y-2.75
X3.8438Y-2.3438
X3.0938Y-4.6875
X2.3438Y-4.25
X3.8438Y-3.8438
X1.5938Y-5.0
X4.5938Y-2.4688
X5.6562Y-5.875
X3.0938Y-5.4375
X2.3438Y-5.0
X4.5938Y-3.2188
X5.3438Y-4.7812
X3.0938Y-3.1875
X6.0938Y-4.4062
X4.5938Y-4.7188
X4.5938Y-3.9688
X1.5938Y-3.5
X3.0938Y-3.9375
X1.5937Y-5.7512
T2
G00X6.7426Y-5.8656
M15
G01X6.7869Y-5.8912
M16
G05
G00X6.9631Y-5.4838
M15
G01X7.0074Y-5.5094
M16
G05
T0
M30
