G04 #@! TF.GenerationSoftware,KiCad,Pcbnew,(5.1.5)-3*
G04 #@! TF.CreationDate,2020-12-01T17:42:57-06:00*
G04 #@! TF.ProjectId,ZodiarkSplit,5a6f6469-6172-46b5-9370-6c69742e6b69,rev?*
G04 #@! TF.SameCoordinates,Original*
G04 #@! TF.FileFunction,Profile,NP*
%FSLAX46Y46*%
G04 Gerber Fmt 4.6, Leading zero omitted, Abs format (unit mm)*
G04 Created by KiCad (PCBNEW (5.1.5)-3) date 2020-12-01 17:42:57*
%MOMM*%
%LPD*%
G04 APERTURE LIST*
%ADD10C,0.050000*%
%ADD11C,0.120000*%
G04 APERTURE END LIST*
D10*
X63150000Y-158000000D02*
X32500000Y-158000000D01*
X84209892Y-152214255D02*
X72098667Y-156893847D01*
X119052020Y-150751963D02*
X92500000Y-150750000D01*
X165000002Y-176000000D02*
X124649999Y-152450001D01*
X181649060Y-137025283D02*
X186249999Y-139750001D01*
X179500000Y-50750000D02*
X179500000Y-132000000D01*
X90850000Y-47500000D02*
X176250000Y-47500000D01*
X31250001Y-58200001D02*
X86331103Y-47815204D01*
X72098667Y-156893847D02*
G75*
G02X63150000Y-158000000I-8948667J35643847D01*
G01*
X84209892Y-152214255D02*
G75*
G02X92500000Y-150750000I8290108J-22735745D01*
G01*
X119052020Y-150751963D02*
G75*
G02X124649999Y-152450001I-52020J-10248037D01*
G01*
X181649060Y-137025283D02*
G75*
G02X179500000Y-132000000I4800940J5025283D01*
G01*
X86331103Y-47815204D02*
G75*
G02X90850000Y-47500000I4518897J-32234796D01*
G01*
X28499689Y-61999999D02*
X28500000Y-154000000D01*
X28499689Y-61999999D02*
G75*
G02X31250001Y-58200001I4000311J-1D01*
G01*
X32500000Y-158000000D02*
G75*
G02X28500000Y-154000000I0J4000000D01*
G01*
X187499999Y-145499999D02*
X170750000Y-174750000D01*
X170750000Y-174750000D02*
G75*
G02X165000002Y-176000000I-3499999J2249999D01*
G01*
X186249999Y-139750001D02*
G75*
G02X187499999Y-145499999I-2249999J-3499999D01*
G01*
X176250000Y-47500000D02*
G75*
G02X179500000Y-50750000I0J-3250000D01*
G01*
D11*
X139065257Y-153642788D02*
X142009743Y-155342788D01*
X140565257Y-151044712D02*
X139065257Y-153642788D01*
X143509743Y-152744712D02*
X140565257Y-151044712D01*
X142009743Y-155342788D02*
X143509743Y-152744712D01*
X159702757Y-165549038D02*
X162647243Y-167249038D01*
X161202757Y-162950962D02*
X159702757Y-165549038D01*
X164147243Y-164650962D02*
X161202757Y-162950962D01*
X162647243Y-167249038D02*
X164147243Y-164650962D01*
X134031250Y-108656250D02*
X137431250Y-108656250D01*
X134031250Y-105656250D02*
X134031250Y-108656250D01*
X137431250Y-105656250D02*
X134031250Y-105656250D01*
X137431250Y-108656250D02*
X137431250Y-105656250D01*
X153081250Y-118181250D02*
X156481250Y-118181250D01*
X153081250Y-115181250D02*
X153081250Y-118181250D01*
X156481250Y-115181250D02*
X153081250Y-115181250D01*
X156481250Y-118181250D02*
X156481250Y-115181250D01*
X134031250Y-70556250D02*
X137431250Y-70556250D01*
X134031250Y-67556250D02*
X134031250Y-70556250D01*
X137431250Y-67556250D02*
X134031250Y-67556250D01*
X137431250Y-70556250D02*
X137431250Y-67556250D01*
X114981250Y-145168750D02*
X118381250Y-145168750D01*
X114981250Y-142168750D02*
X114981250Y-145168750D01*
X118381250Y-142168750D02*
X114981250Y-142168750D01*
X118381250Y-145168750D02*
X118381250Y-142168750D01*
X157003493Y-138457212D02*
X154059007Y-136757212D01*
X155503493Y-141055288D02*
X157003493Y-138457212D01*
X152559007Y-139355288D02*
X155503493Y-141055288D01*
X154059007Y-136757212D02*
X152559007Y-139355288D01*
X114981250Y-107068750D02*
X118381250Y-107068750D01*
X114981250Y-104068750D02*
X114981250Y-107068750D01*
X118381250Y-104068750D02*
X114981250Y-104068750D01*
X118381250Y-107068750D02*
X118381250Y-104068750D01*
X156481250Y-96131250D02*
X153081250Y-96131250D01*
X156481250Y-99131250D02*
X156481250Y-96131250D01*
X153081250Y-99131250D02*
X156481250Y-99131250D01*
X153081250Y-96131250D02*
X153081250Y-99131250D01*
X114981250Y-68968750D02*
X118381250Y-68968750D01*
X114981250Y-65968750D02*
X114981250Y-68968750D01*
X118381250Y-65968750D02*
X114981250Y-65968750D01*
X118381250Y-68968750D02*
X118381250Y-65968750D01*
X95931250Y-141993750D02*
X99331250Y-141993750D01*
X95931250Y-138993750D02*
X95931250Y-141993750D01*
X99331250Y-138993750D02*
X95931250Y-138993750D01*
X99331250Y-141993750D02*
X99331250Y-138993750D01*
X137431250Y-124706250D02*
X134031250Y-124706250D01*
X137431250Y-127706250D02*
X137431250Y-124706250D01*
X134031250Y-127706250D02*
X137431250Y-127706250D01*
X134031250Y-124706250D02*
X134031250Y-127706250D01*
X95931250Y-103937500D02*
X99331250Y-103937500D01*
X95931250Y-100937500D02*
X95931250Y-103937500D01*
X99331250Y-100937500D02*
X95931250Y-100937500D01*
X99331250Y-103937500D02*
X99331250Y-100937500D01*
X137431250Y-86606250D02*
X134031250Y-86606250D01*
X137431250Y-89606250D02*
X137431250Y-86606250D01*
X134031250Y-89606250D02*
X137431250Y-89606250D01*
X134031250Y-86606250D02*
X134031250Y-89606250D01*
X95931250Y-65793750D02*
X99331250Y-65793750D01*
X95931250Y-62793750D02*
X95931250Y-65793750D01*
X99331250Y-62793750D02*
X95931250Y-62793750D01*
X99331250Y-65793750D02*
X99331250Y-62793750D01*
X76881250Y-144375000D02*
X80281250Y-144375000D01*
X76881250Y-141375000D02*
X76881250Y-144375000D01*
X80281250Y-141375000D02*
X76881250Y-141375000D01*
X80281250Y-144375000D02*
X80281250Y-141375000D01*
X118381250Y-123118750D02*
X114981250Y-123118750D01*
X118381250Y-126118750D02*
X118381250Y-123118750D01*
X114981250Y-126118750D02*
X118381250Y-126118750D01*
X114981250Y-123118750D02*
X114981250Y-126118750D01*
X76881250Y-106275000D02*
X80281250Y-106275000D01*
X76881250Y-103275000D02*
X76881250Y-106275000D01*
X80281250Y-103275000D02*
X76881250Y-103275000D01*
X80281250Y-106275000D02*
X80281250Y-103275000D01*
X118381250Y-85018750D02*
X114981250Y-85018750D01*
X118381250Y-88018750D02*
X118381250Y-85018750D01*
X114981250Y-88018750D02*
X118381250Y-88018750D01*
X114981250Y-85018750D02*
X114981250Y-88018750D01*
X76881250Y-68175000D02*
X80281250Y-68175000D01*
X76881250Y-65175000D02*
X76881250Y-68175000D01*
X80281250Y-65175000D02*
X76881250Y-65175000D01*
X80281250Y-68175000D02*
X80281250Y-65175000D01*
X57831250Y-152312500D02*
X61231250Y-152312500D01*
X57831250Y-149312500D02*
X57831250Y-152312500D01*
X61231250Y-149312500D02*
X57831250Y-149312500D01*
X61231250Y-152312500D02*
X61231250Y-149312500D01*
X99331250Y-119943750D02*
X95931250Y-119943750D01*
X99331250Y-122943750D02*
X99331250Y-119943750D01*
X95931250Y-122943750D02*
X99331250Y-122943750D01*
X95931250Y-119943750D02*
X95931250Y-122943750D01*
X57831250Y-114212500D02*
X61231250Y-114212500D01*
X57831250Y-111212500D02*
X57831250Y-114212500D01*
X61231250Y-111212500D02*
X57831250Y-111212500D01*
X61231250Y-114212500D02*
X61231250Y-111212500D01*
X99331250Y-81843750D02*
X95931250Y-81843750D01*
X99331250Y-84843750D02*
X99331250Y-81843750D01*
X95931250Y-84843750D02*
X99331250Y-84843750D01*
X95931250Y-81843750D02*
X95931250Y-84843750D01*
X57831250Y-76112500D02*
X61231250Y-76112500D01*
X57831250Y-73112500D02*
X57831250Y-76112500D01*
X61231250Y-73112500D02*
X57831250Y-73112500D01*
X61231250Y-76112500D02*
X61231250Y-73112500D01*
X38781250Y-152312500D02*
X42181250Y-152312500D01*
X38781250Y-149312500D02*
X38781250Y-152312500D01*
X42181250Y-149312500D02*
X38781250Y-149312500D01*
X42181250Y-152312500D02*
X42181250Y-149312500D01*
X80281250Y-122325000D02*
X76881250Y-122325000D01*
X80281250Y-125325000D02*
X80281250Y-122325000D01*
X76881250Y-125325000D02*
X80281250Y-125325000D01*
X76881250Y-122325000D02*
X76881250Y-125325000D01*
X38781250Y-114212500D02*
X42181250Y-114212500D01*
X38781250Y-111212500D02*
X38781250Y-114212500D01*
X42181250Y-111212500D02*
X38781250Y-111212500D01*
X42181250Y-114212500D02*
X42181250Y-111212500D01*
X80281250Y-84225000D02*
X76881250Y-84225000D01*
X80281250Y-87225000D02*
X80281250Y-84225000D01*
X76881250Y-87225000D02*
X80281250Y-87225000D01*
X76881250Y-84225000D02*
X76881250Y-87225000D01*
X38781250Y-76112500D02*
X42181250Y-76112500D01*
X38781250Y-73112500D02*
X38781250Y-76112500D01*
X42181250Y-73112500D02*
X38781250Y-73112500D01*
X42181250Y-76112500D02*
X42181250Y-73112500D01*
X61231250Y-130262500D02*
X57831250Y-130262500D01*
X61231250Y-133262500D02*
X61231250Y-130262500D01*
X57831250Y-133262500D02*
X61231250Y-133262500D01*
X57831250Y-130262500D02*
X57831250Y-133262500D01*
X42181250Y-130262500D02*
X38781250Y-130262500D01*
X42181250Y-133262500D02*
X42181250Y-130262500D01*
X38781250Y-133262500D02*
X42181250Y-133262500D01*
X38781250Y-130262500D02*
X38781250Y-133262500D01*
X61231250Y-92162500D02*
X57831250Y-92162500D01*
X61231250Y-95162500D02*
X61231250Y-92162500D01*
X57831250Y-95162500D02*
X61231250Y-95162500D01*
X57831250Y-92162500D02*
X57831250Y-95162500D01*
X42181250Y-92162500D02*
X38781250Y-92162500D01*
X42181250Y-95162500D02*
X42181250Y-92162500D01*
X38781250Y-95162500D02*
X42181250Y-95162500D01*
X38781250Y-92162500D02*
X38781250Y-95162500D01*
M02*
