M48
; DRILL file {KiCad (5.1.5)-3} date 12/20/2020 11:31:46 PM
; FORMAT={-:-/ absolute / inch / decimal}
; #@! TF.CreationDate,2020-12-20T23:31:46-06:00
; #@! TF.GenerationSoftware,Kicad,Pcbnew,(5.1.5)-3
; #@! TF.FileFunction,Plated,1,2,PTH
FMAT,2
INCH
T1C0.0004
T2C0.0118
T3C0.0157
T4C0.0197
T5C0.0320
T6C0.0394
T7C0.0512
T8C0.1220
%
G90
G05
T1
X4.4953Y-4.581
X4.6922Y-4.581
X4.4953Y-3.831
X4.6922Y-3.831
X1.4953Y-3.3622
X1.6922Y-3.3622
X2.9953Y-3.7997
X3.1922Y-3.7997
X1.4953Y-5.6134
X1.6921Y-5.6134
X3.7453Y-4.456
X3.9422Y-4.456
X6.1712Y-5.144
X6.3416Y-5.2424
X2.2453Y-3.3626
X2.4421Y-3.3626
X2.2453Y-2.6122
X2.4422Y-2.6122
X3.7453Y-2.956
X3.9422Y-2.956
X5.2453Y-3.8935
X5.4422Y-3.8935
X1.4953Y-4.1122
X1.6922Y-4.1122
X5.2453Y-2.3935
X5.4422Y-2.3935
X2.2453Y-5.6122
X2.4422Y-5.6122
X4.4953Y-5.331
X4.6922Y-5.331
X5.9953Y-3.5185
X6.1922Y-3.5185
X5.2453Y-3.1435
X5.4422Y-3.1435
X2.9953Y-2.2997
X3.1922Y-2.2997
X3.7453Y-5.206
X3.9422Y-5.206
X6.4524Y-6.1752
X6.6229Y-6.2736
X1.4953Y-2.6122
X1.6922Y-2.6122
X3.7453Y-2.206
X3.9422Y-2.206
X2.9953Y-4.5497
X3.1922Y-4.5497
X2.2453Y-4.1122
X2.4422Y-4.1122
X3.7453Y-3.706
X3.9422Y-3.706
X1.4953Y-4.8622
X1.6922Y-4.8622
X4.4953Y-2.331
X4.6922Y-2.331
X5.6399Y-5.7065
X5.8104Y-5.8049
X2.9953Y-5.2997
X3.1922Y-5.2997
X2.2453Y-4.8622
X2.4422Y-4.8622
X4.4953Y-3.081
X4.6922Y-3.081
X5.2453Y-4.6435
X5.4422Y-4.6435
X2.9953Y-3.0497
X3.1922Y-3.0497
X5.9953Y-4.2685
X6.1922Y-4.2685
T2
X6.4375Y-3.3199
X6.4375Y-3.4301
X2.6875Y-5.4136
X2.6875Y-5.5239
X1.9375Y-3.1636
X1.9375Y-3.2739
X4.1875Y-4.2574
X4.1875Y-4.3676
X5.6875Y-2.9449
X5.6875Y-3.0551
X2.6875Y-3.9136
X2.6875Y-4.0239
X2.6875Y-4.6636
X2.6875Y-4.7739
X3.4375Y-2.1011
X3.4375Y-2.2114
X4.1875Y-2.0074
X4.1875Y-2.1176
X3.4375Y-5.1011
X3.4375Y-5.2114
X4.9375Y-4.3824
X4.9375Y-4.4926
X1.9375Y-5.4136
X1.9375Y-5.5239
X2.6875Y-3.1636
X2.6875Y-3.2739
X4.1875Y-5.0074
X4.1875Y-5.1176
X3.4375Y-3.6011
X3.4375Y-3.7114
X4.9375Y-5.1324
X4.9375Y-5.2426
X5.6875Y-2.1949
X5.6875Y-2.3051
X1.9375Y-2.4136
X1.9375Y-2.5239
X2.6875Y-2.4136
X2.6875Y-2.5239
X4.1875Y-2.75
X4.1875Y-2.8602
X4.9375Y-2.8824
X4.9375Y-2.9926
X5.6875Y-4.4449
X5.6875Y-4.5551
X6.4375Y-4.0699
X6.4375Y-4.1801
X3.4375Y-2.8511
X3.4375Y-2.9614
X4.1875Y-3.5074
X4.1875Y-3.6176
X5.6875Y-3.6949
X5.6875Y-3.8051
X6.0662Y-5.8602
X6.1213Y-5.7648
X6.5974Y-5.2977
X6.6526Y-5.2023
X1.9375Y-4.6636
X1.9375Y-4.7739
X4.9375Y-2.1324
X4.9375Y-2.2426
X4.9375Y-3.6324
X4.9375Y-3.7426
X6.8787Y-6.329
X6.9338Y-6.2335
X1.9375Y-3.9136
X1.9375Y-4.0239
X3.4375Y-4.3511
X3.4375Y-4.4614
X6.3585Y-5.8162
X6.454Y-5.8713
T3
X1.2776Y-3.6496
X1.2795Y-4.4902
X1.2854Y-3.0059
X1.2896Y-5.2106
X1.3228Y-6.0787
X1.3467Y-3.0945
X1.3467Y-4.5551
X1.3681Y-3.6476
X1.4094Y-5.2185
X1.4114Y-3.0059
X1.4114Y-4.4902
X1.5433Y-2.378
X1.7598Y-4.4232
X1.7736Y-3.6378
X1.7776Y-5.9291
X1.8051Y-3.0059
X1.8504Y-5.125
X1.8661Y-3.5984
X1.9311Y-5.0925
X2.063Y-2.3258
X2.065Y-6.0768
X2.1043Y-4.5512
X2.1083Y-3.6575
X2.1102Y-3.0945
X2.1339Y-5.9744
X2.1555Y-3.0059
X2.1614Y-4.4665
X2.1752Y-5.1988
X2.5256Y-4.4291
X2.5354Y-3.6417
X2.5571Y-5.1201
X2.5807Y-2.874
X2.5827Y-3.5512
X2.6004Y-4.5571
X2.6043Y-5.0236
X2.6063Y-2.1417
X2.6063Y-2.3228
X2.622Y-3.0945
X2.6299Y-2.8189
X2.6378Y-2.1102
X2.6378Y-2.3543
X2.6378Y-5.9685
X2.6437Y-3.5925
X2.6437Y-4.2559
X2.6516Y-5.7618
X2.685Y-4.3386
X2.6929Y-2.1181
X2.6929Y-3.5984
X2.6929Y-5.1024
X2.6929Y-5.7638
X2.6929Y-6.0394
X2.7008Y-2.8504
X2.7087Y-3.4055
X2.7283Y-4.8543
X2.7343Y-4.1791
X2.7343Y-4.4783
X2.7638Y-3.2835
X2.7638Y-3.5354
X2.7913Y-5.7638
X2.8189Y-2.0372
X2.8467Y-2.8189
X2.8543Y-4.2461
X2.8602Y-5.6909
X2.8661Y-3.3445
X2.9094Y-4.1791
X2.9114Y-2.7028
X2.9134Y-4.8937
X3.2598Y-4.1142
X3.2618Y-3.3268
X3.2697Y-5.6083
X3.2854Y-2.6555
X3.2894Y-4.8125
X3.3092Y-3.2814
X3.3444Y-4.7814
X3.4763Y-1.9803
X3.5217Y-5.6673
X3.5967Y-4.1516
X3.6063Y-2.6614
X3.6161Y-5.5846
X3.6535Y-4.0846
X3.6594Y-2.6004
X3.6673Y-3.228
X3.6791Y-4.7933
X4.0177Y-4.0571
X4.0177Y-5.5236
X4.0217Y-3.2402
X4.0234Y-2.5608
X4.0492Y-4.7187
X4.0709Y-3.1969
X4.1063Y-4.6949
X4.2854Y-5.7106
X4.3467Y-4.2854
X4.3543Y-2.7795
X4.3701Y-5.6949
X4.3866Y-3.3767
X4.4075Y-4.2185
X4.4094Y-2.689
X4.4252Y-4.9114
X4.7717Y-4.25
X4.7736Y-5.6772
X4.7874Y-3.3701
X4.8287Y-4.8437
X4.8484Y-2.689
X4.8504Y-3.3228
X4.8661Y-4.815
X4.9764Y-2.189
X4.9847Y-2.9734
X5.0Y-3.3543
X5.0236Y-2.8031
X5.0709Y-5.2835
X5.0787Y-5.7874
X5.0967Y-4.3583
X5.1102Y-2.8661
X5.1417Y-3.437
X5.1555Y-4.2677
X5.1634Y-2.7657
X5.1772Y-4.9783
X5.2205Y-5.9843
X5.3307Y-5.937
X5.378Y-5.3071
X5.5217Y-3.437
X5.5251Y-4.9062
X5.5514Y-2.7483
X5.5551Y-4.8799
X5.5748Y-3.3937
X5.5945Y-4.248
X5.6457Y-2.8583
X5.6673Y-2.5276
X5.6929Y-4.3602
X5.6929Y-4.6614
X5.6929Y-4.8504
X5.6929Y-5.3071
X5.6949Y-3.9626
X5.6959Y-2.3543
X5.6959Y-2.8583
X5.7128Y-2.0977
X5.7165Y-2.1417
X5.7244Y-3.3228
X5.7323Y-5.4646
X5.7382Y-6.1693
X5.748Y-4.0709
X5.753Y-2.5669
X5.753Y-2.6614
X5.753Y-2.7559
X5.753Y-2.8583
X5.7559Y-2.9449
X5.7571Y-2.0612
X5.7587Y-2.1031
X5.7638Y-4.7165
X5.7736Y-4.9213
X5.7795Y-2.811
X5.7795Y-5.3524
X5.7844Y-3.063
X5.8189Y-2.874
X5.8189Y-4.8504
X5.8524Y-4.685
X5.9134Y-4.6319
X5.9272Y-3.8661
X5.9665Y-6.1594
X5.9685Y-6.4094
X6.0787Y-2.189
X6.0787Y-2.2598
X6.1654Y-6.437
X6.1732Y-2.2992
X6.1732Y-2.3622
X6.2021Y-2.4593
X6.2126Y-2.9685
X6.2126Y-3.0551
X6.247Y-3.189
X6.252Y-5.6555
X6.2756Y-2.874
X6.2756Y-2.9606
X6.2756Y-3.2205
X6.2835Y-3.8189
X6.2835Y-4.5787
X6.2913Y-2.3937
X6.2913Y-2.4646
X6.2913Y-2.5669
X6.2913Y-2.6614
X6.3182Y-5.5375
X6.3307Y-2.8661
X6.3307Y-2.7874
X6.3386Y-2.1024
X6.3386Y-2.1654
X6.3465Y-1.9843
X6.3465Y-2.063
X6.3465Y-2.4931
X6.3465Y-2.5591
X6.3543Y-3.0837
X6.3543Y-3.1575
X6.3622Y-5.5276
X6.3701Y-2.69
X6.3701Y-2.7638
X6.3701Y-3.7874
X6.3937Y-2.8661
X6.3937Y-3.2677
X6.4252Y-2.7638
X6.4331Y-5.7559
X6.4537Y-3.2205
X6.4646Y-3.2677
X6.4921Y-3.2117
X6.5128Y-5.0366
X6.5276Y-1.9685
X6.5394Y-4.8819
X6.5512Y-6.5748
X6.5925Y-3.7874
X6.5925Y-4.002
X6.5925Y-4.7539
X6.5945Y-6.6752
X6.6154Y-3.8265
X6.6154Y-4.5394
X6.616Y-2.395
X6.626Y-6.622
X6.6555Y-6.565
X6.7008Y-5.5984
X6.7087Y-2.4961
X6.7188Y-5.3438
X6.7421Y-4.6535
X6.7945Y-2.4744
X6.8189Y-5.5433
X6.8252Y-2.5862
X6.8705Y-4.726
X6.8713Y-2.5831
X6.8996Y-4.6524
X6.9055Y-5.3937
X6.9213Y-6.1417
X6.9528Y-2.2055
X6.9567Y-4.5319
X7.0157Y-6.0945
X7.1102Y-5.8346
T4
X6.6614Y-2.5512
X6.6614Y-2.6299
X6.7638Y-2.5512
X6.7638Y-2.6299
T5
X5.8715Y-2.0123
X5.8715Y-2.1123
X5.8715Y-2.2123
X5.8715Y-2.3123
X5.8715Y-2.4123
X5.8715Y-2.5123
X5.8715Y-2.6123
X5.8715Y-2.7123
X5.8715Y-2.8123
X5.8715Y-2.9123
X5.8715Y-3.0123
X5.8715Y-3.1123
X5.9226Y-2.0593
X5.9226Y-2.1593
X5.9226Y-2.2593
X5.9226Y-2.3593
X5.9226Y-2.4593
X5.9226Y-2.5593
X5.9226Y-2.6593
X5.9226Y-2.7593
X5.9226Y-2.8593
X5.9226Y-2.9593
X5.9226Y-3.0593
X5.9226Y-3.1593
X6.4715Y-2.0123
X6.4715Y-2.1123
X6.4715Y-2.2123
X6.4715Y-2.3123
X6.4715Y-2.4123
X6.4715Y-2.5123
X6.4715Y-2.6123
X6.4715Y-2.7123
X6.4715Y-2.8123
X6.4715Y-2.9123
X6.4715Y-3.0123
X6.4715Y-3.1123
X6.5226Y-2.0593
X6.5226Y-2.1593
X6.5226Y-2.2593
X6.5226Y-2.3593
X6.5226Y-2.4593
X6.5226Y-2.5593
X6.5226Y-2.6593
X6.5226Y-2.7593
X6.5226Y-2.8593
X6.5226Y-2.9593
X6.5226Y-3.0593
X6.5226Y-3.1593
X6.9823Y-2.435
X6.9823Y-2.535
X6.9823Y-2.635
X6.9823Y-2.735
X6.6812Y-4.9062
X6.7812Y-4.9062
X6.8812Y-4.9062
X6.9813Y-4.9062
X6.7638Y-2.7165
X6.7638Y-2.9165
X6.6614Y-2.7165
X6.6614Y-2.9165
T6
X6.5701Y-5.6251
X6.6193Y-5.5399
X6.6685Y-5.4546
X7.0645Y-5.9105
X7.1629Y-5.7401
T7
X6.9795Y-2.8705
X6.9795Y-3.1264
T8
X4.4437Y-5.3687
X4.4937Y-5.2687
X4.6937Y-5.2687
X4.7437Y-5.3687
X5.9437Y-3.5562
X5.9937Y-3.4562
X6.1937Y-3.4562
X6.2437Y-3.5562
X5.1937Y-3.1812
X5.2437Y-3.0812
X5.4437Y-3.0812
X5.4937Y-3.1812
X2.9438Y-2.3375
X2.9937Y-2.2375
X3.1938Y-2.2375
X3.2437Y-2.3375
X3.6938Y-5.2437
X3.7437Y-5.1437
X3.9438Y-5.1437
X3.9937Y-5.2437
X6.3888Y-6.1821
X6.4821Y-6.1205
X6.6487Y-6.3321
X6.6554Y-6.2205
X1.4437Y-2.65
X1.4937Y-2.55
X1.6937Y-2.55
X1.7437Y-2.65
X3.6938Y-2.2437
X3.7437Y-2.1437
X3.9438Y-2.1437
X3.9937Y-2.2437
X2.9438Y-4.5875
X2.9937Y-4.4875
X3.1938Y-4.4875
X3.2437Y-4.5875
X2.1938Y-4.15
X2.2437Y-4.05
X2.4438Y-4.05
X2.4937Y-4.15
X3.6938Y-3.7437
X3.7437Y-3.6437
X3.9438Y-3.6437
X3.9937Y-3.7437
X1.4437Y-4.9
X1.4937Y-4.8
X1.6937Y-4.8
X1.7437Y-4.9
X4.4437Y-2.3687
X4.4937Y-2.2687
X4.6937Y-2.2687
X4.7437Y-2.3687
X5.5763Y-5.7134
X5.6696Y-5.6518
X5.8362Y-5.8634
X5.8429Y-5.7518
X2.9438Y-5.3375
X2.9937Y-5.2375
X3.1938Y-5.2375
X3.2437Y-5.3375
X2.1938Y-4.9
X2.2437Y-4.8
X2.4438Y-4.8
X2.4937Y-4.9
X4.4437Y-3.1187
X4.4937Y-3.0187
X4.6937Y-3.0187
X4.7437Y-3.1187
X5.1937Y-4.6812
X5.2437Y-4.5812
X5.4437Y-4.5812
X5.4937Y-4.6812
X2.9438Y-3.0875
X2.9937Y-2.9875
X3.1938Y-2.9875
X3.2437Y-3.0875
X5.9437Y-4.3062
X5.9937Y-4.2062
X6.1937Y-4.2062
X6.2437Y-4.3062
X4.4437Y-4.6187
X4.4937Y-4.5187
X4.6937Y-4.5187
X4.7437Y-4.6187
X4.4437Y-3.8687
X4.4937Y-3.7687
X4.6937Y-3.7687
X4.7437Y-3.8687
X1.4437Y-3.4
X1.4937Y-3.3
X1.6937Y-3.3
X1.7437Y-3.4
X2.9438Y-3.8375
X2.9937Y-3.7375
X3.1938Y-3.7375
X3.2437Y-3.8375
X1.4437Y-5.6512
X1.4937Y-5.5512
X1.6937Y-5.5512
X1.7437Y-5.6512
X3.6938Y-4.4937
X3.7437Y-4.3937
X3.9438Y-4.3937
X3.9937Y-4.4937
X6.1076Y-5.1509
X6.2009Y-5.0893
X6.3674Y-5.3009
X6.3741Y-5.1893
X2.1937Y-3.4004
X2.2437Y-3.3004
X2.4437Y-3.3004
X2.4937Y-3.4004
X2.1938Y-2.65
X2.2437Y-2.55
X2.4438Y-2.55
X2.4937Y-2.65
X3.6938Y-2.9937
X3.7437Y-2.8937
X3.9438Y-2.8937
X3.9937Y-2.9937
X5.1937Y-3.9312
X5.2437Y-3.8312
X5.4437Y-3.8312
X5.4937Y-3.9312
X1.4437Y-4.15
X1.4937Y-4.05
X1.6937Y-4.05
X1.7437Y-4.15
X5.1937Y-2.4312
X5.2437Y-2.3312
X5.4437Y-2.3312
X5.4937Y-2.4312
X2.1938Y-5.65
X2.2437Y-5.55
X2.4438Y-5.55
X2.4937Y-5.65
T6
G00X6.6673Y-1.9941
M15
G01X6.6673Y-2.0138
M16
G05
G00X6.6673Y-2.1122
M15
G01X6.6673Y-2.1319
M16
G05
G00X6.6673Y-2.2697
M15
G01X6.6673Y-2.2894
M16
G05
G00X6.7362Y-2.3287
M15
G01X6.7362Y-2.3484
M16
G05
G00X6.8327Y-2.3287
M15
G01X6.8327Y-2.3484
M16
G05
G00X6.9016Y-1.9941
M15
G01X6.9016Y-2.0138
M16
G05
G00X6.9016Y-2.1122
M15
G01X6.9016Y-2.1319
M16
G05
G00X6.9016Y-2.2697
M15
G01X6.9016Y-2.2894
M16
G05
T0
M30
